<?xml version="1.0" encoding="utf-8"?>
<!-- Generator: Adobe Illustrator 22.0.1, SVG Export Plug-In . SVG Version: 6.00 Build 0)  -->
<svg version="1.1" id="圖層_1" xmlns="http://www.w3.org/2000/svg" xmlns:xlink="http://www.w3.org/1999/xlink" x="0px" y="0px"
	 viewBox="0 0 45.3 45.3" style="enable-background:new 0 0 45.3 45.3;" xml:space="preserve">
<style type="text/css">
	.st0{opacity:0.2;}
	.st1{fill:#FFFFFF;}
</style>
<g>
	<g class="st0">
		<path d="M19.6,23.2l12.1,15.2c0.4,0.5,0.2,1.2-0.4,1.4l0,0c-0.4,0.1-0.7,0-1-0.3l-13-16.3c-0.3-0.3-0.3-0.8,0-1.1L30.3,6
			c0.2-0.3,0.7-0.4,1-0.3l0,0c0.5,0.2,0.7,0.9,0.4,1.4L19.6,22C19.4,22.4,19.4,22.8,19.6,23.2z"/>
	</g>
	<g>
		<path class="st1" d="M18.1,23.2l12.1,15.2c0.4,0.5,0.2,1.2-0.4,1.4l0,0c-0.4,0.1-0.7,0-1-0.3l-13-16.3c-0.3-0.3-0.3-0.8,0-1.1
			L28.8,6c0.2-0.3,0.7-0.4,1-0.3l0,0c0.5,0.2,0.7,0.9,0.4,1.4L18.1,22C17.9,22.4,17.9,22.8,18.1,23.2z"/>
	</g>
</g>
</svg>
