<?xml version="1.0" encoding="utf-8"?>
<!-- Generator: Adobe Illustrator 22.0.1, SVG Export Plug-In . SVG Version: 6.00 Build 0)  -->
<svg version="1.1" id="圖層_1" xmlns="http://www.w3.org/2000/svg" xmlns:xlink="http://www.w3.org/1999/xlink" x="0px" y="0px"
	 viewBox="0 0 45.3 45.3" style="enable-background:new 0 0 45.3 45.3;" xml:space="preserve">
<style type="text/css">
	.st0{opacity:0.2;}
	.st1{fill:#FFFFFF;}
</style>
<g>
	<g class="st0">
		<path d="M15,5.7L15,5.7c0.4-0.1,0.8,0,1,0.3l13,16.1c0.3,0.3,0.3,0.8,0,1.1L16,39.5c-0.2,0.3-0.6,0.4-1,0.3l0,0
			c-0.6-0.2-0.8-0.9-0.4-1.4l12.1-15.2c0.3-0.3,0.3-0.8,0-1.1L14.6,7C14.3,6.6,14.4,5.9,15,5.7z"/>
	</g>
	<g>
		<path class="st1" d="M16.5,5.7L16.5,5.7c0.4-0.1,0.8,0,1,0.3l13,16.1c0.3,0.3,0.3,0.8,0,1.1l-13,16.3c-0.2,0.3-0.6,0.4-1,0.3l0,0
			c-0.6-0.2-0.8-0.9-0.4-1.4l12.1-15.2c0.3-0.3,0.3-0.8,0-1.1L16.1,7C15.8,6.6,15.9,5.9,16.5,5.7z"/>
	</g>
</g>
</svg>
