<?xml version="1.0" encoding="utf-8"?>
<!-- Generator: Adobe Illustrator 22.0.1, SVG Export Plug-In . SVG Version: 6.00 Build 0)  -->
<svg version="1.1" id="圖層_1" xmlns="http://www.w3.org/2000/svg" xmlns:xlink="http://www.w3.org/1999/xlink" x="0px" y="0px"
	 viewBox="0 0 482.7 187" style="enable-background:new 0 0 482.7 187;" xml:space="preserve">
<style type="text/css">
	.st0{fill:#FFFFFF;stroke:#FFFFFF;stroke-width:0.9274;stroke-miterlimit:10;}
	.st1{fill:#FFFFFF;}
	.st2{fill:#FFFFFF;stroke:#FFFFFF;stroke-width:1.4524;stroke-miterlimit:10;}
	.st3{fill:none;stroke:#FFFFFF;stroke-width:6.4921;stroke-miterlimit:10;}
</style>
<g>
	<g>
		<path class="st1" d="M126,169.9c0,0.4,0,0.8-0.1,1.1c-0.1,0.3-0.2,0.5-0.3,0.7c-0.2,0.3-0.4,0.5-0.8,0.7c-0.4,0.2-0.8,0.4-1.4,0.6
			l-0.3-0.8c0.3-0.1,0.4-0.2,0.6-0.3c0.1-0.1,0.2-0.2,0.3-0.3c0.1-0.1,0.1-0.3,0.1-0.4c0-0.2,0-0.4,0-0.7v-6.7c0-0.2,0-0.4,0-0.5
			c0-0.1,0-0.2-0.1-0.3c0-0.1-0.1-0.1-0.2-0.2c-0.1-0.1-0.2-0.1-0.4-0.1v-0.4h3.2v0.4c-0.2,0-0.3,0.1-0.4,0.1
			c-0.1,0.1-0.1,0.1-0.2,0.2c0,0.1-0.1,0.2-0.1,0.3c0,0.1,0,0.3,0,0.5V169.9z"/>
		<path class="st1" d="M134.9,168h-2.6l-0.2,0.6c-0.1,0.2-0.1,0.3-0.1,0.5c0,0.2-0.1,0.3-0.1,0.5c0,0.4,0.2,0.6,0.6,0.6v0.4h-2.6
			v-0.4c0.2,0,0.3-0.1,0.4-0.2c0.1-0.1,0.2-0.2,0.3-0.4c0.1-0.2,0.2-0.4,0.3-0.7l2.6-6.8h1.6l2,6.9c0.1,0.3,0.2,0.5,0.2,0.7
			c0.1,0.1,0.1,0.2,0.2,0.3c0.1,0.1,0.2,0.1,0.4,0.2v0.4h-3.4v-0.4c0.2,0,0.4-0.1,0.5-0.2c0.1-0.1,0.2-0.2,0.2-0.4
			c0-0.1,0-0.3,0-0.4c0-0.2-0.1-0.4-0.1-0.6L134.9,168z M132.5,167.3h2.2l-1-3.5L132.5,167.3z"/>
		<path class="st1" d="M145.1,162.2c0.7,0,1.3,0.1,1.7,0.2c0.5,0.1,0.9,0.3,1.2,0.5c0.4,0.2,0.6,0.5,0.9,0.8
			c0.2,0.3,0.4,0.7,0.5,1.1c0.1,0.4,0.2,0.9,0.2,1.4c0,0.6-0.1,1.2-0.2,1.7c-0.2,0.5-0.4,0.9-0.7,1.3c-0.3,0.3-0.6,0.6-1,0.8
			c-0.4,0.2-0.8,0.4-1.3,0.4c-0.4,0.1-1,0.1-1.6,0.1h-2.8v-0.4c0.2,0,0.3-0.1,0.4-0.1c0.1,0,0.2-0.1,0.2-0.2c0-0.1,0.1-0.2,0.1-0.3
			c0-0.1,0-0.3,0-0.5v-5.3c0-0.2,0-0.4,0-0.5c0-0.1,0-0.2-0.1-0.3c0-0.1-0.1-0.1-0.2-0.2c-0.1-0.1-0.2-0.1-0.4-0.1v-0.4H145.1z
			 M144.4,169.9c0.1,0,0.3,0,0.6,0c0.5,0,0.8-0.1,1.1-0.2c0.2-0.1,0.4-0.2,0.6-0.4c0.3-0.3,0.5-0.6,0.6-1.1c0.1-0.5,0.2-1.1,0.2-1.8
			c0-0.8-0.1-1.4-0.3-1.9c-0.2-0.5-0.5-0.9-0.9-1.1c-0.4-0.2-0.8-0.4-1.4-0.4c-0.3,0-0.4,0-0.5,0V169.9z"/>
		<path class="st1" d="M160,162.2v2h-0.8c-0.1-0.4-0.2-0.7-0.3-0.8c-0.1-0.1-0.2-0.2-0.3-0.3c-0.1-0.1-0.4-0.1-0.7-0.1h-1.3v2.9h0.8
			c0.2,0,0.3,0,0.4-0.1c0.1-0.1,0.2-0.1,0.3-0.3c0.1-0.1,0.1-0.3,0.2-0.6h0.7v2.5h-0.7c-0.1-0.2-0.1-0.4-0.2-0.5
			c-0.1-0.1-0.2-0.2-0.2-0.3c-0.1-0.1-0.2-0.1-0.4-0.1h-0.8v3.3h1.3c0.1,0,0.3,0,0.4,0c0.1,0,0.2-0.1,0.3-0.1c0.1,0,0.2-0.1,0.2-0.2
			c0.1-0.1,0.1-0.2,0.2-0.3c0.1-0.1,0.1-0.2,0.2-0.4c0.1-0.1,0.1-0.3,0.2-0.6h0.8l-0.1,2.2h-6v-0.4c0.2,0,0.3-0.1,0.4-0.1
			c0.1,0,0.2-0.1,0.2-0.2c0-0.1,0.1-0.2,0.1-0.3c0-0.1,0-0.3,0-0.5v-5.3c0-0.2,0-0.4,0-0.5c0-0.1,0-0.2-0.1-0.3
			c0-0.1-0.1-0.1-0.2-0.2c-0.1-0.1-0.2-0.1-0.4-0.1v-0.4H160z"/>
		<path class="st1" d="M173.4,170.6h-3.2v-0.4c0.2,0,0.3-0.1,0.4-0.1c0.1,0,0.2-0.1,0.2-0.2c0-0.1,0.1-0.2,0.1-0.3
			c0-0.1,0-0.3,0-0.5v-5.3c0-0.2,0-0.4,0-0.5c0-0.1,0-0.2-0.1-0.3c0-0.1-0.1-0.1-0.2-0.2c-0.1-0.1-0.2-0.1-0.4-0.1v-0.4h3.6
			c0.5,0,0.9,0,1.2,0.1c0.3,0.1,0.6,0.2,0.9,0.3c0.2,0.1,0.4,0.3,0.5,0.4c0.1,0.2,0.3,0.4,0.3,0.6c0.1,0.2,0.1,0.5,0.1,0.8
			c0,0.4-0.1,0.7-0.2,1c-0.1,0.3-0.3,0.5-0.6,0.7c-0.2,0.2-0.6,0.4-1,0.5v0.1c0.3,0.1,0.6,0.3,0.8,0.5c0.2,0.2,0.4,0.5,0.5,0.8
			l0.4,0.8c0.2,0.4,0.3,0.7,0.5,0.8c0.2,0.2,0.4,0.3,0.6,0.3v0.4h-2.4c-0.2-0.3-0.5-0.8-0.8-1.5l-0.5-1.1c-0.1-0.3-0.3-0.5-0.4-0.7
			c-0.1-0.1-0.2-0.2-0.3-0.3c-0.1-0.1-0.3-0.1-0.5-0.1h-0.4v2c0,0.3,0,0.5,0,0.6c0,0.1,0.1,0.2,0.2,0.3c0.1,0.1,0.2,0.1,0.5,0.2
			V170.6z M172.8,163v3.4h0.6c0.3,0,0.6,0,0.8-0.1c0.2-0.1,0.4-0.2,0.5-0.4c0.1-0.2,0.2-0.3,0.3-0.6c0-0.2,0.1-0.4,0.1-0.7
			c0-0.6-0.1-1-0.4-1.3c-0.3-0.3-0.7-0.4-1.2-0.4C173.1,162.9,172.9,163,172.8,163z"/>
		<path class="st1" d="M187.8,162.2v2h-0.8c-0.1-0.4-0.2-0.7-0.3-0.8c-0.1-0.1-0.2-0.2-0.3-0.3c-0.1-0.1-0.4-0.1-0.7-0.1h-1.3v2.9
			h0.8c0.2,0,0.3,0,0.4-0.1c0.1-0.1,0.2-0.1,0.3-0.3c0.1-0.1,0.1-0.3,0.2-0.6h0.7v2.5h-0.7c-0.1-0.2-0.1-0.4-0.2-0.5
			c-0.1-0.1-0.2-0.2-0.2-0.3c-0.1-0.1-0.2-0.1-0.4-0.1h-0.8v3.3h1.3c0.1,0,0.3,0,0.4,0c0.1,0,0.2-0.1,0.3-0.1c0.1,0,0.2-0.1,0.2-0.2
			c0.1-0.1,0.1-0.2,0.2-0.3c0.1-0.1,0.1-0.2,0.2-0.4c0.1-0.1,0.1-0.3,0.2-0.6h0.8l-0.1,2.2h-6v-0.4c0.2,0,0.3-0.1,0.4-0.1
			c0.1,0,0.2-0.1,0.2-0.2c0-0.1,0.1-0.2,0.1-0.3c0-0.1,0-0.3,0-0.5v-5.3c0-0.2,0-0.4,0-0.5c0-0.1,0-0.2-0.1-0.3
			c0-0.1-0.1-0.1-0.2-0.2c-0.1-0.1-0.2-0.1-0.4-0.1v-0.4H187.8z"/>
		<path class="st1" d="M192.9,168.5c0.1,0.5,0.3,0.8,0.5,1.1c0.2,0.2,0.6,0.4,1.1,0.4c0.2,0,0.5,0,0.7-0.1c0.2-0.1,0.3-0.2,0.5-0.4
			c0.1-0.2,0.2-0.4,0.2-0.7c0-0.3,0-0.5-0.1-0.7c-0.1-0.2-0.2-0.4-0.5-0.5c-0.2-0.2-0.5-0.3-0.9-0.5c-0.3-0.2-0.6-0.3-0.9-0.5
			c-0.3-0.2-0.5-0.4-0.7-0.6c-0.2-0.2-0.3-0.4-0.4-0.7c-0.1-0.2-0.2-0.5-0.2-0.8c0-0.5,0.1-0.9,0.4-1.3c0.2-0.4,0.6-0.6,1.1-0.8
			c0.5-0.2,1-0.3,1.6-0.3c0.4,0,0.7,0,1,0.1c0.3,0,0.7,0.1,1.1,0.2v1.8h-0.8c-0.1-0.3-0.2-0.6-0.3-0.8c-0.1-0.2-0.3-0.3-0.5-0.4
			c-0.2-0.1-0.4-0.1-0.7-0.1c-0.2,0-0.4,0-0.6,0.1c-0.2,0.1-0.3,0.2-0.4,0.4c-0.1,0.2-0.2,0.4-0.2,0.6c0,0.2,0,0.4,0.1,0.6
			c0.1,0.2,0.2,0.3,0.5,0.5c0.2,0.2,0.5,0.4,0.9,0.6c0.5,0.3,0.9,0.5,1.2,0.8c0.3,0.3,0.5,0.5,0.6,0.8c0.1,0.3,0.2,0.6,0.2,1
			c0,0.5-0.1,0.9-0.4,1.3c-0.2,0.4-0.6,0.7-1,0.9c-0.4,0.2-1,0.3-1.5,0.3c-0.4,0-0.9,0-1.3-0.1c-0.5,0-0.9-0.1-1.3-0.2v-1.9H192.9z"
			/>
		<path class="st1" d="M204.3,169.1c0,0.1,0,0.3,0,0.4c0,0.1,0,0.2,0.1,0.3c0,0.1,0.1,0.1,0.1,0.2c0,0.1,0.1,0.1,0.2,0.1
			c0.1,0,0.2,0.1,0.3,0.1v0.4h-3.2v-0.4c0.2,0,0.3-0.1,0.4-0.1c0.1,0,0.2-0.1,0.2-0.2c0-0.1,0.1-0.2,0.1-0.3c0-0.1,0-0.3,0-0.5v-5.3
			c0-0.2,0-0.4,0-0.5c0-0.1,0-0.2-0.1-0.3c0-0.1-0.1-0.1-0.2-0.2c-0.1,0-0.2-0.1-0.4-0.1v-0.4h3.2v0.4c-0.2,0-0.3,0.1-0.4,0.1
			c-0.1,0-0.1,0.1-0.2,0.2c0,0.1-0.1,0.2-0.1,0.3c0,0.1,0,0.3,0,0.5V169.1z"/>
		<path class="st1" d="M212.5,162.2c0.7,0,1.3,0.1,1.7,0.2c0.5,0.1,0.9,0.3,1.2,0.5c0.4,0.2,0.6,0.5,0.9,0.8
			c0.2,0.3,0.4,0.7,0.5,1.1c0.1,0.4,0.2,0.9,0.2,1.4c0,0.6-0.1,1.2-0.2,1.7c-0.1,0.5-0.4,0.9-0.7,1.3c-0.3,0.3-0.6,0.6-1,0.8
			c-0.4,0.2-0.8,0.4-1.3,0.4c-0.4,0.1-1,0.1-1.6,0.1h-2.8v-0.4c0.2,0,0.3-0.1,0.4-0.1c0.1,0,0.2-0.1,0.2-0.2c0-0.1,0.1-0.2,0.1-0.3
			c0-0.1,0-0.3,0-0.5v-5.3c0-0.2,0-0.4,0-0.5c0-0.1,0-0.2-0.1-0.3c0-0.1-0.1-0.1-0.2-0.2c-0.1-0.1-0.2-0.1-0.4-0.1v-0.4H212.5z
			 M211.8,169.9c0.1,0,0.3,0,0.6,0c0.4,0,0.8-0.1,1.1-0.2c0.2-0.1,0.4-0.2,0.6-0.4c0.3-0.3,0.5-0.6,0.6-1.1c0.1-0.5,0.2-1.1,0.2-1.8
			c0-0.8-0.1-1.4-0.3-1.9c-0.2-0.5-0.5-0.9-0.9-1.1c-0.4-0.2-0.8-0.4-1.4-0.4c-0.3,0-0.4,0-0.5,0V169.9z"/>
		<path class="st1" d="M227.4,162.2v2h-0.8c-0.1-0.4-0.3-0.7-0.3-0.8c-0.1-0.1-0.2-0.2-0.3-0.3c-0.1-0.1-0.4-0.1-0.7-0.1h-1.3v2.9
			h0.8c0.2,0,0.3,0,0.4-0.1c0.1-0.1,0.2-0.1,0.3-0.3c0.1-0.1,0.1-0.3,0.2-0.6h0.7v2.5h-0.7c-0.1-0.2-0.1-0.4-0.2-0.5
			c-0.1-0.1-0.2-0.2-0.2-0.3c-0.1-0.1-0.2-0.1-0.4-0.1h-0.8v3.3h1.3c0.1,0,0.3,0,0.4,0c0.1,0,0.2-0.1,0.3-0.1c0.1,0,0.2-0.1,0.2-0.2
			c0.1-0.1,0.1-0.2,0.2-0.3c0.1-0.1,0.1-0.2,0.2-0.4c0.1-0.1,0.1-0.3,0.2-0.6h0.8l-0.1,2.2h-6v-0.4c0.1,0,0.3-0.1,0.4-0.1
			c0.1,0,0.2-0.1,0.2-0.2c0-0.1,0.1-0.2,0.1-0.3c0-0.1,0-0.3,0-0.5v-5.3c0-0.2,0-0.4,0-0.5c0-0.1,0-0.2-0.1-0.3
			c0-0.1-0.1-0.1-0.2-0.2c-0.1-0.1-0.2-0.1-0.4-0.1v-0.4H227.4z"/>
		<path class="st1" d="M239.1,162.2v0.4c-0.2,0.1-0.3,0.1-0.3,0.1c-0.1,0-0.1,0.1-0.2,0.1c0,0.1-0.1,0.2-0.1,0.3c0,0.1,0,0.3,0,0.6
			v6.8h-1.6l-2.8-4.8c-0.4-0.6-0.6-1.2-0.8-1.5h-0.1c0,0.9,0.1,1.8,0.1,2.8v2c0,0.3,0,0.5,0,0.6c0,0.1,0.1,0.2,0.2,0.3
			c0.1,0.1,0.2,0.1,0.5,0.2v0.4h-2.3v-0.4c0.2,0,0.3-0.1,0.4-0.1c0.1,0,0.2-0.1,0.2-0.2c0-0.1,0.1-0.2,0.1-0.3c0-0.1,0-0.3,0-0.5
			v-5.3c0-0.3,0-0.5,0-0.6c0-0.1-0.1-0.2-0.2-0.3c-0.1-0.1-0.2-0.1-0.5-0.2v-0.4h2.5l2.2,3.8c0.1,0.2,0.3,0.6,0.5,1
			c0.2,0.4,0.4,0.8,0.6,1.1h0.1c0-1-0.1-2-0.1-3.2v-1.1c0-0.3,0-0.5,0-0.6c0-0.1-0.1-0.2-0.1-0.3c0-0.1-0.1-0.1-0.2-0.2
			c-0.1,0-0.2-0.1-0.4-0.1v-0.4H239.1z"/>
		<path class="st1" d="M249.5,162.4v1.8h-0.8c-0.1-0.5-0.3-0.8-0.5-1c-0.2-0.2-0.5-0.3-0.8-0.3c-0.6,0-1.1,0.3-1.5,0.9
			c-0.3,0.6-0.5,1.5-0.5,2.8c0,1.1,0.2,2,0.5,2.6c0.3,0.6,0.7,0.9,1.3,0.9c0.3,0,0.5,0,0.7-0.2c0.2-0.1,0.3-0.3,0.5-0.5
			c0.1-0.2,0.2-0.5,0.3-0.8h0.8v1.9c-0.5,0.1-0.9,0.2-1.2,0.2c-0.4,0-0.8,0.1-1.2,0.1c-0.9,0-1.5-0.2-2.1-0.5
			c-0.5-0.3-0.9-0.8-1.2-1.4c-0.3-0.6-0.4-1.4-0.4-2.4c0-0.9,0.1-1.7,0.4-2.3c0.3-0.7,0.7-1.2,1.3-1.5c0.6-0.4,1.3-0.5,2.1-0.5
			c0.4,0,0.8,0,1.1,0.1C248.8,162.2,249.1,162.3,249.5,162.4z"/>
		<path class="st1" d="M259.8,162.2v2H259c-0.1-0.4-0.2-0.7-0.3-0.8c-0.1-0.1-0.2-0.2-0.3-0.3c-0.1-0.1-0.4-0.1-0.7-0.1h-1.3v2.9
			h0.8c0.2,0,0.3,0,0.4-0.1c0.1-0.1,0.2-0.1,0.3-0.3c0.1-0.1,0.1-0.3,0.2-0.6h0.7v2.5H258c-0.1-0.2-0.1-0.4-0.2-0.5
			c-0.1-0.1-0.2-0.2-0.2-0.3c-0.1-0.1-0.2-0.1-0.4-0.1h-0.8v3.3h1.3c0.1,0,0.3,0,0.4,0c0.1,0,0.2-0.1,0.3-0.1c0.1,0,0.2-0.1,0.2-0.2
			c0.1-0.1,0.1-0.2,0.2-0.3c0.1-0.1,0.1-0.2,0.2-0.4c0.1-0.1,0.1-0.3,0.2-0.6h0.8l-0.1,2.2h-6v-0.4c0.2,0,0.3-0.1,0.4-0.1
			c0.1,0,0.2-0.1,0.2-0.2c0-0.1,0.1-0.2,0.1-0.3c0-0.1,0-0.3,0-0.5v-5.3c0-0.2,0-0.4,0-0.5c0-0.1,0-0.2-0.1-0.3
			c0-0.1-0.1-0.1-0.2-0.2c-0.1-0.1-0.2-0.1-0.4-0.1v-0.4H259.8z"/>
	</g>
	<g>
		<g>
			<g>
				<g>
					<path class="st1" d="M48,46.1c-0.3,0.3-0.8,0.4-0.6,0.9c-0.8-0.1-0.5,1.1-1.3,1.1c-0.2,0.4,0.5,0.8,0.3,1.2
						c-0.5,0.2-0.6,0.5-1.1,0.5c-0.3,0.3,0.3,0.8-0.3,0.8l-0.2,0.8c0.5,0.9-0.5,1.2-0.2,2c-1.1,0.8,1,1.4-0.2,2.1
						c0.8,0.6-0.5,0.4,0,1.1c1.1,0.3,0.3,1.8,1.6,2.3c0.3-0.4,0.8,0,1.1-0.2c0.5-0.6,1.9,0.8,2.1-0.6h0.2c0.3,0,0.5,0.5,0.6,0.2
						c0.2-0.3,0.5-1.1,0-1.2c0.6-0.3,1.5-0.9,2.3-0.8c0.3-0.3,0.3-1.1,0.2-1.5H53c0.5-0.5,1.5-1.1,1-1.8c0.8-1.2,1.1-2.4,2.1-3.6
						c0.3-0.6,0.8-1.4,1.5-1.7c0.3-1.1,1.8-1.1,2.4-1.8c0.6-0.2,0.6-0.3,1.1-0.8c-0.2-0.8,0.7-0.6,1-1.2c0-1.4,1.5,0.5,1.8-1.1
						l0.2,0.1c1-0.1,1.8-0.4,2.9-0.4c0.8,0,1.5,0.1,2.1-0.2c0.3,0.2,0.7-0.7,1.1-0.3c0,0.5,0.5,0.8,0.6,1.1c0.2-0.3,0.5-0.5,0.8-0.5
						c0-0.5,0.6-0.6,0.5-1.2c1,0.6,2.3,0.6,3.1,1.4c1.3-0.2,2.4,0.4,3.9,0.3c1-0.6,2.1,0.8,2.8-0.2c0.8,0.2,1.3-0.6,2.1-0.6
						c0.5,0.5,1.1-0.3,1.6-0.4c0.5-0.8-0.7-1.5,0-2.3c1-0.2,0.5-0.9,1-1.4c0-0.5-0.3-0.8-0.5-1.1c1.1-0.9-0.6-1.4-0.3-2.3
						c-0.3-0.3-0.6-0.8-1.1-0.6c-0.8-0.8-2.1-0.9-3.1-0.8c-0.3-0.1-0.6-0.3-0.8-0.1c-0.2,0.1-0.3-0.2-0.5-0.2
						c-0.8,0.8-2.3,0-3.2,0.8c-0.5,0.3-1,0.3-1.5,0.2c-0.3-1.1-0.8,0.6-1.3-0.3c-0.5,0.8-0.8-0.2-1.6,0.1c-0.5,1.1-1.8,0.2-2.4,0.9
						c0,0.5-0.3,0.3-0.6,0.3c-0.2,0.2-0.7,0.2-0.7,0.6c-0.5-0.5-1.1,0-1.6-0.2c-1,0.3-0.3-0.9-1-1.1c0-0.5,0.3-0.8,0.8-1.1
						c0.2-0.3-0.2-0.3-0.3-0.5c-0.2-0.3,0.3-0.5,0.3-0.8c0.3,0.3,0.2,0.8,0.6,0.9L68,33l-0.5-0.2c0-0.9,1-0.2,1.3-0.9
						c0-1.1,1.5-1.5,1.5-2.6c0.6-0.6,1-1.8,1.3-2.6L71.2,27c-0.6-0.6,0.5-0.9,0.5-1.7c0-0.3,0.5-0.6,0.6-0.3c0.2-0.6,1.3-0.6,1-1.4
						c0.8-0.6,0.3-2,1.3-2.6c-0.8-0.8,1-0.6,0.3-1.5c0.8-0.6-0.6-1.8,1-2.1c0.2-0.3,0.2-0.9-0.5-1.1c0.8-0.3,0.5-1.1,0.8-1.5
						c0-0.3,0.5-1.1-0.3-1.2c0.2-0.4,0.6-0.8,0.2-1.2c0.5-0.8,0.3-1.5,0-2.3c-0.7-0.3-0.7-1.1-0.8-1.5c-0.6-0.1-0.5-1-1.1-1.2
						c0.2-0.2,0.3-0.5,0.2-0.6h-0.5c-0.3-0.5-1.1-0.3-1.5-0.9c-0.2-0.9-1.6,0-1.6-1.2c-0.2-0.2-0.3,0-0.5,0.1
						c-0.3-0.5-1.1-0.1-1.3-0.8c-0.6,0.3-1.1-0.6-1.6,0.2c-0.5-0.5-1-0.2-1.5-0.5c0,0.1,0,0.1,0,0.3h-1c-1.6-1.1-3.1,0.8-4.7,0.6
						c-0.3,0.4-0.6,0.3-1.1,0.3l-0.2,0.6c0.2,0,0.3-0.1,0.3-0.3c0.5,0,1.1,0,1.5,0.3c0.5-0.3,1.1-0.1,1.5-0.1
						c0.3,0.9,1.1,0.1,1.6,0.9c0.6,0.8,0.6,1.8,0.6,2.7c-0.3,1.5-1.5,3.5-0.5,4.7c0,0.3-0.2,0.8-0.6,0.6l0.3,0.3c0.2,0,0,0.2,0,0.3
						c-1.5,0.6,0.3,2.1-0.8,2.9c-0.3,0.4,0,1.1-0.2,1.4c-1.1,0.4-1.5,1.4-1.5,2.3c-0.3,0.3-0.3,0.9-1,0.9c0.5,0.5-0.5,0.5-0.2,1.1
						c-1.1,0.5-0.3,1.7-1.5,2.3c-0.5,0.3,0.3,0.9-0.6,0.9c0.3,0.8-0.8,1.4-1,2c0.3,0.3,0.2,0.9,0,1.4c-0.3,0.8-1,1.4-0.8,2.3
						c-1,0-0.2,1.1-0.6,1.4c-0.3,0.3,0.2,1.5-0.8,1.2c-0.2,0.9-1.9,1.2-0.8,2.1c0.5,1.4-1.6,0.6-1.1,2c1.1,0.6-0.8,1.2-0.6,2
						c-1.1,0.5-1.1,1.8-1.5,2.6c-0.5,0.2-0.8,0.3-1.3,0.2C48.8,44.3,49.5,46.1,48,46.1z M55.7,5.7c-0.1,0-0.1,0-0.3,0v0.1h0.1
						C55.6,5.8,55.7,5.8,55.7,5.7z M56.4,5.5h-0.1v0.2h0.1V5.5z M4.5,49.1c0,0.8,0.8,0.3,1,0.8c1.1-0.2,1.5,1.4,2.6,0.9
						c0.8-0.1,1.8,0.3,2.6-0.3c0.3-0.5,0.7,0.3,1,0.2c0.7-0.5,1.6,0,2.3-0.3c0.8-0.3,1.6,0.6,2.1-0.5c0.3,0,0.7,0.2,1,0.2
						c0.7-0.5,1.5-0.6,2.5-0.9c0.3-0.8,1.3,0,1.5-0.9c0.5-0.1,0.8-0.5,1.5-0.3c0.5-0.8,1.5-0.8,2.3-0.9c0.7-0.5,1.5-1.1,2.3-0.9
						c0.3-0.5,1-0.6,0.8-1.2c1.3,0.3,1.3-1.5,2.6-1.2c0.2-0.8,1.1-0.3,1.5-1.1c0.8,0.1,0.8-0.5,1.3-0.8l0.7,0.6
						c0.7,0.2,1.1,1.1,1.8,0.3c0-0.8,0.8,0,1-0.6c0.8,0.2,1.8-0.2,2.3-0.9c0.7-0.3,1.1-1.2,1.8-0.8c0.2-0.3,0.3-0.9,0.5-1.4
						c1.5-0.6,2.1-2,3.6-2.6c1.5,0.8,1.3-1.5,2.6-1.4c0-0.6,1-0.9,0.8-1.7c0.7-0.5,0.5-1.5,0.3-2.1c-0.5-0.3-0.8-0.8-1.3-0.9
						l0.2-0.6c-1.1,0-1.8-0.6-2.6-1.4c-0.7,0.2-1.8-0.1-2.5-0.6c-1.6,0.1-2-1.5-2.8-2.4c-1,0,0-1.1-0.8-1.5
						c-0.7-0.1-0.7-1.1-1.1-1.4c0.2-0.9-1-0.6-1.1-1.2c-0.8,0.1-1.3-0.9-1.6-1.2c-1.6-0.2-1.6-1.4-2.9-2.1c-0.7,0.6-1.5,0-2,0.1
						c-0.8,0.8-1.5-1.1-2.6-0.6c-1.3-0.3-2.6,0-3.6-0.9l-0.3,0.6c-0.2,0-0.3,0-0.5-0.2c-0.5,0.6-1.1,0.6-1.8,1.1
						c-0.5-0.4-0.8,0.3-1.1,0.5c-0.3,0.8-0.3,1.7,0.3,2.3c0.7,0.9-1.1,1.4,0,2.1c-0.5,0.9,0.3,1.7,0.7,2.4c-0.5,0.6,0.8,1.1,0.3,1.8
						c0.5,0.2,0.2,0.6,0.7,0.6c0,0.5,0.8,0.5,0.5,0.9c0.3,0.5,0.3,0.9,0.8,1.1c0,0.5,1,0.9,0.5,1.5c0.3,0.5,0.5,1.5,0.5,2.1h0.5
						c0,0.3-0.2,0.3-0.2,0.6c0.5,0.3,0.5,0.8,0.8,1.4c-0.2,0.3,0.3,0.8-0.2,0.9c-0.2,0.5,0.2,0.5,0.5,0.6c-0.3,0.5,0.5,0.9,0,1.5
						c-0.8,0.6-1.8,1.4-2.6,1.5c-0.5,0.1-1,0.1-1.1,0.7c-1.6,0-2.1,1.5-3.6,2c-1-0.3-1,1.5-1.8,0.5c-0.3,0-0.2,0.6-0.5,0.5
						c-1.5,0.5-2.8,1.1-4.3,1.4c-0.5,0.9-1.8,0.3-2.3,1.1c-1.5,0.2-2.9,1.2-4.3,0.3c-0.8,0.8-1.6-1.2-2.6-0.1
						c0.2,0.6,0.2,1.2,0.7,1.7C3.3,48.5,4,49,4.5,49.1z M50.3,67c0.8,0,0.8-1.1,1.6-1.1c0.6-0.9,0.9-2,1.6-2.7l-1.9-1.4
						c0.2-0.5-0.5-0.3-0.8-0.3c-0.8-0.9-1.7-1.8-3-1.8c-0.5-0.8-1.4-0.6-2.1-1.1c-0.8,0.3-0.8-0.8-1.6-0.6c-0.8,0.8-1.6-0.6-2.5-0.3
						c-0.5-1.1-1.3,0-2.1-0.3c0-0.5-0.2-0.8-0.5-1.1c-0.8,0.3-1.4-0.6-2.4-0.3c-0.2,0.3,0.5,0.6,0.5,0.9c-0.8,0.9-0.5,2.4-1.6,3.3
						c0,0.8-0.9,1.1-1.1,1.7c0.3,0.9-0.3,0.9-0.8,1.2c-0.3,0.9-1.4,0.8-2.1,1.5c-1.4-0.4-1.1,1.5-2.5,0.9c-0.5,0.2-0.5,0.6-0.9,0.6
						c-0.3,0.9-1.4-0.2-1.6,0.8c-0.6,0.1-0.9,0.5-1.4,0.1c-0.2,0-0.3,0.2-0.3,0.3c-1.7,0-3,1.1-4.6,1.1c-0.8-0.6-1.6,0.8-2.4,0.2
						c-1.3,0.3-1.7-1.4-3-1.5c-0.5,0.8-0.9-0.1-1.4,0.6c-0.5-0.4-1.4-0.3-1.7-1.1c-1.3,0.4-1.3-0.8-2.5-0.5c-0.3,0.3-1,0-0.8,0.6
						c0.8,0.5,0.3,1.2,0.3,1.8c0.9,0.3,0.5,1.1,0.9,1.8c1.3,0,0.3,1.2,1.3,1.5c0,0.5,0.9,0.5,0.5,1.1c1,0,0.6,1.1,1,1.5
						c0.8,0.6,1.7,1.2,2.5,1.8c1.3-0.1,2.1,0.8,3.3,0.6c1.3-0.5,2.1,0,3.2-0.8c0.6,0,0.6-0.8,1-1.2c0.8-1.1,3-0.3,3.3-2.1
						c0.6,0,0.8-0.8,1.3-1c0.3,0,0.3-0.2,0.2-0.5c0.2-0.3,0.5,0,0.8-0.1c0.5-0.6,1.4-0.9,2.1-1.5c0.6-0.3,1.3-0.6,1.6-1.2
						c0.3,0,0.3-0.6,0.8-0.4c-0.2,0.9-0.6,1.4-1.1,2c-0.2,0.8-0.8,1.4-0.6,2c-1.4,1.1-1.7,3-2.7,4.2c-0.6,1.7-2.4,2.9-3,4.5
						c0.2,0.1,0,0.4-0.2,0.4c-0.3,0.5-1,0.8-1.1,1.1c-0.6,0.8-1.4,1.5-2.4,1.8c-0.2,0.8-0.9,1.4-0.9,1.8c0.2,1.4-1.4,0.2-1.1,1.4
						c0.3,0.5-0.5,1.2,0,1.7c0,0.9-0.5,1.5-0.8,2.4c0.5,0.4,0.9,1.1,0.5,1.7c0.6,0.6-0.2,1.5-0.6,2.1c0.2,0.4,0.6,0.4,0.9,0.4
						c0.3,0.2,0.5,0.5,0.3,0.9c-0.9,0.8,0.6,0.8,0.6,1.4c0.3,0.5,0.6,0.9,1.3,1.5c0.6-0.2,1.4,0,2.1,0c1.4-0.6,2.2,0.9,3.5,0.9
						c0.3,0.8-0.5,1.1-0.6,1.7c-0.8,0.2-0.3,1.1-1.1,1.4c0,0.9-0.6,1.4-1.1,2.1c-0.9,0-0.3,1.2-1.3,1.4c-0.5,0.8-0.9,2.1-2.4,1.8
						c-0.5-0.3-0.9-0.3-0.9-0.9c-0.3-0.3-0.3-0.6-0.8-0.8c-0.3,0,0-0.5,0-0.3c-0.3-0.9-0.6-1.7-1.4-2.3c0.8-0.9-0.2-2-0.2-2.9
						c0.8-0.4-0.5-0.8-0.3-1.4c-1.1-0.3,0.5-0.8,0.2-1.5c-0.2-0.3-0.5-0.6-0.8-0.8C16,97,15.8,96.6,16,96.1c0.3-0.9-0.3-1.5-0.6-2.3
						c1.4-0.8-0.5-0.9-0.5-1.7l0.3-0.3c-0.9,0-0.5-0.9-1.1-1.4c1-0.5-0.6-0.9-0.2-1.4c-0.3-0.2-0.5-0.5-0.8-0.3
						c-0.3-1.2-1.7-0.6-2.5-1.1c-0.5,0.5-1.4,0.2-1.4,1.1c0,0.3-0.2-0.2-0.5,0c-0.8-0.2-1.1,0.9-1.4,1.5c0.3,0.3-0.6,0.8-0.2,1.2
						c-0.6,0.5,0.3,1.2-0.5,1.4c0,0.3-0.2,0.5,0.2,0.6c-0.3,0.5-0.3,1.1-0.9,1.5c0,0.5,0.2,0.5,0.5,0.6c-0.2,0.3,0.5,0.7,0.2,1.1
						c0.2,0.5-0.5,1.2,0.3,1.7c-0.2,0.5-0.2,0.9-0.3,1.2c0,0.5,0.5,0.6,0.8,0.9c-0.6,0.8,0.3,1.1,0.3,1.7c1.3,0,0,1.2,0.9,1.5
						c-0.9,0.5,0.3,1.2-0.5,1.8c0.8,0.6-0.2,1.4,0.6,2c0.3,0.5-0.3,0.3-0.5,0.5c1.1,1.1-0.3,2,0.6,3c0,0.6-0.8,0.6-0.8,0.9
						c0,0.3,0.2,0.6,0.6,0.8c0.5,0.9,0.3,2-0.3,2.9c0.5,0.6,0.3,1.5,0.5,2.1c-0.3,0.8,0.2,1.8-0.6,2.3c1.1,0.9-1.6,2,0.3,2.3
						c0.2,0.8-0.6,1.2-0.5,2c0.3,0.6,0.2,1.2,0.6,1.8c-0.6,0.5,0,1.1-0.3,1.5c1.4,0.5,0.2,1.8,1.1,2.6c1.1,0,0,1.1,0.6,1.4
						c0.3,0.3,0.3,0.8,0.9,0.4c0.5,0.6,1.3,0.5,1.3,0.9c0.6,0.3,1.1,0.9,1.6,0.5l0.5,0.6c1.1-0.5,2.5,0.5,3-0.6
						c1.1,0.3,1.9-0.5,2.8,0c1.4-0.6,3.2-0.8,4.6-0.9c0.3-0.9,0.8,0.3,1.3-0.5c1.1,0.5,2.2-0.4,3.3-0.2V131c0.8,0.3,0.9-0.6,1.7-0.3
						c0-1.2,1.3,0.2,1.7-0.6c0.5-0.6,1.4-0.1,1.9-0.9c0.6,0,0.9-0.5,1.6-0.5c1.3-1.4,3.5-1.4,4.9-2.7c0.9,0.1,0.8-0.9,1.6-1.2
						c0.9,0.3,0.6-0.8,1.3-0.8c0.8-0.9,2.2-1.4,2.5-2.6c0.5-0.3,0.9-0.9,1.4-1.5c1.1-0.2-0.3-0.8,0.5-1.2c0.9,0,0.2-0.9,0.9-0.9
						c0.8-1.2,1.1-2.1,1.4-3.5c0.3-0.6-0.5-1.4,0.5-2c-0.9-0.6,0.2-0.9,0.3-1.5c-0.2-0.5-0.3-0.8,0.3-1.2c-0.6-0.3-0.2-1.2-0.9-1.4
						c0.5-0.8-0.5-2,0.5-2.4c-1.4-0.9,0.5-2-0.3-3c0.6-1-0.2-1.7-0.3-2.7c0.6-0.6-0.3-1.2,0-2c0.2,0,0.3,0,0.3,0
						c0.2-0.3-0.3-0.6-0.6-0.6c-0.3,0.6,0,1.5-0.6,2c-0.2,0.5,0.2,1.1,0.3,1.5c-1,1.4-0.6,2.7-1,4.2c-0.5,0.2,0.2,0.9-0.5,1.1
						c-0.2,2.1-1.3,3.9-1.7,6c-1.1,0.8-1.1,2.3-2.2,3.2c-0.3,0.2-0.6,0.8-1.1,0.3c0,0.3-0.2,0.4,0.2,0.6c-0.3,0.6-1.1,1.1-1.6,1.7
						c-0.5-0.2-0.5,0.6-0.8,0.9c-1.1,0.1-1.6,1.2-2.5,1.4c-0.3,0.2-0.6,0.4-0.3,0.7c-0.5-0.2-0.3,0.5-0.6,0.6
						c-0.2-0.1-0.5-0.4-0.8-0.1c-0.2,0.3-0.6,0-0.6,0c-0.9-0.2-0.8,0.8-1.4,1.1l-0.2-0.2c0-0.4-0.3,0-0.6,0
						c-0.3,1.1-1.7,0.3-2.2,1.1c-0.5-0.5-0.8,0.3-1.1-0.2c-0.6-0.2-1.1-0.2-1.6,0.5c-0.5-0.3-0.8-0.5-1.4-0.1
						c-0.8,0.8-1.9,0-3.2,0.3c-0.5-0.4-1.1-0.1-1.6-0.6l-0.2,0.2c-0.6-0.2-1.4-0.2-1.9-0.2c-0.3-0.2-0.8-0.2-0.8,0.2
						c-0.3-0.3-0.9-0.3-1.3-0.3c-0.5-0.4-1.3-0.3-1.7-0.6c-1.1,0.3-1.4-0.9-2.4-1.2c-0.3-0.3,0.2-1.2-0.3-1.4
						c0.5-0.6-0.3-1.1,0.3-1.7c1,0.3,0.5,1.1,0.6,1.7c0.3,0.8,1.6,1.2,2.4,1.4c0.5,0,0.6,0.3,0.9,0.6l0.3-0.3c0.6,0,1.4,0.2,1.9,0.8
						c1,0.8,1-0.4,1.7-0.6l0.2,0.3c0.6-0.3,1.6-0.2,2.5-0.5c0-1.1,1.7-0.3,1.6-1.5c0.6-0.3,0.2-0.8,0.6-1.1c0,0.1,0.2,0.3,0.5,0.1
						c0.2-0.3,0-1.1,0.6-1.2c0.2-0.3,0-0.4-0.3-0.6c0.2-0.2,0-0.3,0.2-0.5c0-0.9,0.9-1.2,1.4-1.8c0.3-0.6,0-1.2,0.5-1.8
						c0.8-0.6,0.5-1.2,1.3-1.8c0.8-0.5,1.4-1.2,1.6-2.1c0.2,0.1,0.2,0.5,0.5,0.5c0.2-0.9,1.3-1.1,1.6-1.8c0.8,0.2,0.3-0.9,0.8-1.1
						c0-0.3,0.2-0.5-0.2-0.8c0.2,0,0.3-0.2,0.5-0.2c0.9,0,1.4-0.8,1.7-1.2c-0.2-1.4,1.9-1.5,1.7-3c0.3-0.3,0.6-0.3,0.9-0.3
						c0.5-1.1,1.1-2.1,1.6-3c1.3-0.3,0.3-1.2,0.9-2c0.8-1.1,0-2.1,1.1-3.2c0.3-0.3-0.3-0.9,0.5-0.9c-0.5-1.2,0.2-2.1,0.3-3.2
						c0.2-0.3-0.5-0.4,0-0.8c-0.6,0,0-0.5,0-0.8c-1.1,0-0.2-1.1-1.1-1.5c0.2-1.1-0.8-1.7-1.3-2.4c-0.6-0.1-0.9-0.9-1.3-1.4
						c-1.1-2.1,1.7-3.2,1.6-5c0.2-1.1,1.3-1.7,1.7-2.6c-0.2-1.4,1.4-1.7,1.3-3c0.6-0.2,0.6-0.6,1.1-1.1c-0.3-0.6,0.5-0.5,0.3-1.1
						c0.2-0.3,0-0.7,0.5-0.7c-0.2-0.6,0.8-0.6,0.6-1.2C49.9,68.3,49.8,67.4,50.3,67z M8.4,102.3H8.2v-0.1h0.2V102.3z M55.7,93
						c0,0-0.1,0-0.1,0C55.6,93,55.7,93,55.7,93z M49.5,97c-0.1,0,0,0.3,0,0.5V97z M104.9,162.3c-1.1-0.6,0.6-1.7-0.8-2.1
						c-1.1,0.2-2.3-0.8-3.2-1.4c-0.5-0.3-1.2-0.3-1.7-0.8c-0.9,0-1.1-0.8-1.8-0.9c-0.6,0.4-0.9-0.5-1.5-0.3
						c-1.2-0.8-1.8,0.9-2.6-0.8v0.3c-0.6,0.1-0.9-0.3-1.4-0.5c-0.9,0.8-1.7,0-2.7,0.8c-0.5-0.5-1.2,0.5-1.4-0.5
						c0.3-0.9-0.8-0.6-1.1-1.4c-0.6-0.3-1.1-0.9-1.8-0.9c-0.5,0-0.9-0.9-1.4-0.3c-0.8,0-1.7,0-2.3-0.5l0.5-0.5
						c0.3-0.5-0.5-0.1-0.2-0.6c0.3-0.3,0.3,0.2,0.6,0c0.2,0.2,0.2-0.2,0.2-0.2c0.5,0.2,0.5-0.6,1.1-0.6c0.3-0.1-0.2-0.5-0.3-0.8
						c0.1-0.1,0.3-0.1,0.6-0.1c0.9,0.8,0.9-0.6,1.5-0.9c0.3-1.2,1.5-1.5,2-2.6c0.2-0.8,0.9-0.9,1.4-1.2c0-0.5,0.6-0.8,0.2-1.1
						c0.3-0.6,1.1-1.2,1.1-2c0.6-0.3,0.3-1.2,0.9-1.4c0.2-0.3,0-0.5-0.2-0.8c1.1-0.6,0.8-1.8,1.5-2.4c0.2-0.3,0-0.4-0.2-0.6
						c0.2-0.3,0.5-0.5,0.8-0.5l-0.3-0.6c0.8-1.5-0.6-2.6-0.5-4.1c0.8-0.8-0.6-0.8-0.6-1.4l0.1-0.3c0-0.6-0.6-1.2-1.2-1.7
						c0.2-0.5-0.3-0.3-0.6-0.5c0-0.5,0.1-0.8,0.3-0.9c0-0.5-0.6-0.3-0.8-0.5c0.2-0.4,0-0.8-0.2-1.1c-0.5,0-0.6-0.5-1.2-0.5
						c-0.3-1.1-1.1-1.2-1.8-1.8c-1.1,0-2.1-2-2.9-0.6l-0.2-0.3c-0.6,0-1.5-0.3-2,0.1c0-0.1-0.3-0.1-0.5-0.1c-0.5,0.1-1.1,0.3-1.5,0
						c-0.6-0.3-0.9,0-1.4,0.3l-0.6-0.6c-0.8-0.3-0.2,0.9-0.6,1.1c-0.3,0-0.5-0.1-0.5-0.5c-0.6,0-1.1,0.2-1.5,0.5
						c-0.8-0.3-0.6,0.8-1.4,0.6c-0.2,0-0.2-0.6-0.3-0.5c0,0.9-1.2,0.5-1.5,1.2c-0.3-0.3-0.9-0.2-1.4-0.2c-0.5,0-0.6,0.8-1.2,0.5
						c-0.5,0.8-1.4,0.5-2,0.8c-1.1,0.8-2.1,0.6-3,1.4c-1.1-0.5-1.5,0.9-2.4,0.8c0,0.6-0.3,0-0.5,0.1c-0.6,0.3-1.2,0.6-1.8,0.8
						c-0.2,0.5-0.8,0.6-1.2,0.8c-1.5,0.3-2.9,1.5-4.3,1.8c-0.2,0.8-1.2,0.5-1.7,0.8c-0.5-0.1-0.6,0.9-1.1,0.3
						c-0.8,0.6-1.5,0.6-2.1,1.4c-1.1-0.9-1.7,1.4-2.7,0.5c-0.8,0.5-0.8-1.1-1.5-0.3c0,0-0.3,0-0.2-0.2c-0.8-0.3-0.5-0.9-0.1-1.4
						c0.8-0.3,0.5-1.2,0.9-1.7c0.5-0.5,0.8-0.9,1.2-1.5c0.9-0.3,1.1-1.5,2-2.1c1.4-1.7,2.6-3.9,4.4-5.3c0-0.5,0.5-0.8,0.8-1.4
						c0.3,0.1,0.6-0.2,0.6-0.5c1.1-0.9,2-2.1,3.2-3.2c-0.1-0.3,0.4-0.3,0.2-0.7c0.2-0.2,0.4-0.4,0.6-0.6c0.1,0,0.1-0.1,0.2-0.1
						c0,0,0,0,0,0c0.4-0.3,0.7-0.7,1.1-1c-0.1,0.2-0.2,0.5-0.3,0.7c0.1-0.1,0.1-0.2,0.1-0.3c1-0.8,2-1.9,3.1-2.9
						c-0.1-0.3,0.4-0.3,0.2-0.7c0.3-0.3,0.6-0.5,1-0.8c0.2-0.7,1.2-0.4,1.1-1.4c0.2-0.2,0.4-0.3,0.5-0.5c0.1,0,0.2,0,0.3,0.1
						c0.1-0.8,0.9-0.4,1.1-1.1c0.1,0.2,0.3,0.2,0.4,0c0.2-1.2,1.4-2,2.4-2.6c0-0.1,0-0.2,0-0.3c0.5-0.4,0.9-0.8,1.4-1.3
						c0.1,0,0.1-0.1,0.1-0.1c0.4-0.3,0.8-0.7,1.2-1c0.2,0,0.5-0.1,0.7-0.1c0.1-0.7,1.1-0.3,0.9-1.3c0.9-0.7,1.2-1.5,2.2-1.9
						c-0.1-0.5,0.6-0.2,0.7-0.5c0.5-0.9,1.5-1.2,2.2-1.9c0.3-0.1,0.2-1.3,0.9-0.5C80,96,81,96,81.1,95.1c0.7-0.2,1.1-1.3,1.7-0.6
						c0.6-0.2,1-1,1.1-1.6c-0.2-0.5,0.9-0.7,0.7-1.3c0.7,0.1,0.8-0.8,1.2-1.1c0.4,0.3,0.4-0.4,0.7-0.7c0.6-0.4,0.8-1.6,1.8-1.6
						c-0.1-0.9,1.1-1.4,0.6-2.5c0.7-0.5-0.1-1.1,0-1.8c-0.2-0.8-0.6-1.6-0.9-2.4c-0.9,0.2-1.1-1.3-2.1-1c-0.5-0.4-1-1.3-1.6-1.4
						c-1.1-0.4-2.2-0.4-3.1-1.5c-0.3,0.3-0.6,0.1-0.9,0.1c0-0.2-0.1-0.5-0.3-0.6c0.2-0.9,0.1-2.1,0-3c-0.2-0.7,0.2-1.6-0.1-2.4
						c0.6-0.5,0.3-1.1,0.1-1.8c0-0.1,0-0.2,0-0.4c0.2-0.1,0.4,0,0.1-0.2c0.2-0.6,0.6-1,0.6-1.8c0.1-0.5,0-1.2,0.2-1.7
						c-6.7,2.5,0.6-2.7,0.5-4.5c0.5-0.5,0.5-1.3,1.2-1.6c-0.3-0.3-0.3-0.9-0.3-1.2c0.8,0-0.1-0.7,0.3-1.1c-0.1-0.6-0.5-0.7-1.1-0.9
						c0-0.3,0.1-0.3,0.1-0.6c-0.1,0-0.5-0.4-0.9-0.2c-0.4-0.7-1.3-0.4-1.9-0.5c-0.5,0.1-1,0.1-1.5,0c-1-0.7-2.1-1-3.3-0.5
						c-2.8,1.4-5.8,2.8-8.1,6c-1.4,3.4-2,7-3.6,10.2c-0.7,5-4.4,9.5-4.1,14.4c2.7-2.3,3-6.5,5-10.2c2.9-0.4,0.7,4.7,2.2,5.6
						c0.1,0.6,0.4,1.5-0.1,1.7c-0.1,1.1,0,2.4,0.5,2.8c0.1,5.7,5.6,5,6.9,8.7c-1.2,5-4.5,7.9-7.4,10.4c-2.6,2.3-5.3,4.9-7.6,7.8
						c0,0,0-0.1,0-0.1c-0.4,0.5-1,0.9-1.3,1.4c-0.3,0.6-0.9,0.9-0.9,1.5c-0.2,0.1-0.3,0.2-0.4,0.3c-0.1,0-0.1,0-0.2,0.1
						c-0.3,0.4-0.6,0.8-0.9,1.2c-0.1,0.1-0.2,0.2-0.4,0.3c-1.5-0.1-0.2,1.7-1.7,1.4c0.3,0.9-0.9,0.6-0.9,1.5c0.2,1-1.5,0.6-1.1,1.5
						c-0.1,0.3-0.5,0.6-0.8,0.5c0.2,0.6-0.9,0.6-0.8,1.2c-1.1,0.5-1.5,1.5-2.4,2c-1.1,1.7-3.2,2.7-4.4,4.4c-0.6,0.8-1.5,0.9-2,1.8
						c-0.2,0.8-1.1,0.5-1.1,1.2c-0.5,0.1-0.9,0.8-1.4,1.2c-0.1,0.5-0.9,0-1.1,0.8c-0.6,0.3-0.9,1.4-1.5,1.8
						c-0.8-0.2-0.8,0.9-1.5,1.1c-0.5,0-0.5,0.6-0.9,0.8c-0.9,0.3-1.2,1.1-2.1,1.4c-0.5,0.1-0.8,0.9-1.4,0.9
						c-0.3,0.8-0.9,0.9-1.5,1.4c-0.5,0.1-0.9,0.4-1.1,1.1c-1.1-0.3-1.1,1.1-2,0.6c-0.2,0.9-1.2,0.9-1.7,1.5
						c-0.8,0.1-1.7-0.2-2.3,0.3c-0.8,0.3-1.4,0.9-2,0.8l-0.3,0.5c-0.3,0-0.5,0.5-0.9,0.3c-0.2,0.6-1.2,0.3-0.9,1.2
						c-0.3,0.3-0.8,0.8-1.4,0.8c0.6,0.5-0.3,0.9,0,1.4c-0.8,0.9,0.3,1.7-0.2,2.6c0.2,0.5-0.3,0.9,0.2,1.2c-0.3,1,0.5,2.1,0.8,3.3
						c-0.3,0.9,0.8,1.2,1.2,2c-0.2,0.6,0.9,1.2,0.6,2c0.2,0.5,0.8,0,0.9,0.6c1.1,1.2,2,2.6,3.6,3l-0.3,0.8c-0.8,0.5-1.7,0.5-2.3,0.9
						c-1.1-0.2-2.1,1.2-3.3,1.1c-0.3,0.3-1.1-0.2-1.2,0.4c-1.1-0.6-1.7,0.6-2.7,0.8c-1.1-0.9-1.8,0.5-3.2,0
						c-0.5-0.6-1.4-0.6-1.5-1.5c-0.3-0.1-0.6,0.2-0.8,0.3c-0.2,0.9-1.5,0.4-1.5,1.4c-0.3-0.2-0.5-0.5-0.5-0.8
						c-0.3,0.4-0.5-0.2-0.8-0.2c-0.1,0.2,0,0.6,0,0.9c-0.9,0.6,0.2,2,0,2.9c0.5,0.1,0,0.5,0,0.8c0.5,0.1,0.8,0.6,1.2,0.5
						c0.6,1.2,1.2-0.5,2,0.2c0.8-0.9,1.4,0.9,2-0.5c1.1,0.3,1.2-1.1,2.1-1.1c0.8-1.1,2-0.5,3-0.6l0.2-0.1c1.2-0.1,2.7-0.1,4-0.5
						c0.6,0.5,1.4-0.3,2.1-0.2c0.5-0.1,0.3,0.5,0.6,0.5c0.5-0.8,1.1,0.1,1.7-0.3c0.5-0.2,0.8,0.6,1.1,0.2c0.6,0.9,1.1-0.8,1.8,0.2
						c0.5-0.5,1.7-0.2,2.4-0.8c1.2,0.6,2.1-0.6,3.3-0.6c0.2-0.5,0.9,0,1.1-0.6c0.3-0.3,0.9,0.2,1.1-0.2c1.1,0.9,1.2-1.4,2.6-0.6
						c0.5-0.8,1.5,0.5,1.8-0.8c0.8,0.3,1.7-0.1,2.7,0c0.3-0.6,0.9-0.3,1.4-0.3c0.6-0.9,1.8,0.2,2.4-0.6c0.9,0.3,1.7,0.8,2.4,0.2
						c0.8,0.8,1.7,0,2.3,0.8c0.6-1.1,1.5,0.5,2.1-0.4l0.3,0.1c0,0,0.2,0,0.2-0.1c0.8,1.1,1.4-0.9,2.1,0c0.6-0.5,1.2,0.3,1.8,0.4
						c0.8-1.1,1.7,0.2,2.3-0.3h2.4c0.3,0,0.6,0.5,0.8,0.2l0.2,0.1c0.5,0.6,0.9,0,1.2-0.3c-0.2,0.6,0.6,0.6,0.9,0.6
						c0.3,0.4,1.1,0.4,1.5,0.6c1.1-0.5,0.6,1.4,1.4,0.8c0.5,0,0.9-0.2,1.2,0.2c0.2-0.3,0.5-0.2,0.8-0.3c0.5,0.5,1.2,0.3,1.4,0.9
						l0.5-0.8c0.6-0.2,0.2,0.6,0.6,0.6c0.6,0.3,1.5,0.2,1.7-0.3c0.9,0.5,1.7,0.6,2.1,1.5c0.5-0.5,1.4-0.5,1.8-0.5
						c-0.2,0.5,0,0.8,0.2,0.9c0.2,0.2,0.5,0.2,0.5,0c0.5,0.2,0,0.5,0.3,0.8c0.6,0,0.9,0.8,1.7,0.6c1.2,0.8,2.7,1.5,4.1,0.5
						c0,0.6,0.5,0.5,0.8,0.5c0.5,0.8,1.4,0.6,2,0.8c0.6-0.3,1.4,0.2,2-0.4l0.2,0.3c0,0.9,1.1,0.1,1.4,0.6c0.5-0.3,0.8,0.6,1.2,0.3
						c0.8,0.6,1.5,0.3,2.3,0.3c0.1,0.9,1.1,0.4,1.4,1.1c0.6-0.4,1.1,0.8,1.5,0.2c0.8,0.1,1.4-0.2,2-0.2c0.3-0.9,1.2-0.4,1.5-1.2
						l0.3,0.1c0.5,0,1.8,0.4,1.8-0.8c-1.1-0.6,0.5-1.1,0.6-1.7c0.3,0,0.8,0.1,0.9,0.4c0.5-0.4,1.1-0.9,1.4-1.5
						c0.3-0.3,0-0.9,0.2-1.4c-0.8-0.9,0.2-2-0.6-2.9c-1.2,0,0-1.1-0.5-1.5c-0.6-0.6,0.3-0.8,0-1.4
						C103.7,163.4,104.9,163.4,104.9,162.3z M44.9,157.7c-0.6-0.1-0.8,0.9-1.2,0.3c-0.9,0.9-2.3,0.6-2.9,1.5
						c-0.8-0.2-1.1,0.8-1.8,0.3c-0.8,0.9-2.1,0.6-3.2,1.1c-1.1,0.2-1.8,0.8-2.9,0.5c-0.8-0.1-0.6,1.1-1.5,0.6
						c-1.2-0.5,0.5-1.5-0.3-2.4c0.5-0.8-0.5-1.2-0.3-1.8c-0.5-0.6,0.5-1.2-0.5-1.5c-0.1-0.1-0.1-0.3,0-0.6c0.2,0,0.3-0.3,0.3-0.3
						c-0.2-0.3-0.3-0.8-0.3-1.1c0.5-0.5-0.3-0.9-0.5-1.4c0-0.9,0.6-2.6-0.8-2.7c-0.2-0.6-0.8-0.3-1.1,0c-0.5,0.5,0,0.7-0.2,1.2
						c0,1.1,0,2.1-0.6,2.9c0,0.6,0.2,0.6,0,1.1c-0.5,0-0.8-0.6-1.2-0.8c-0.2-1-0.9-0.3-1.4-1h-0.5c0.2-0.8-0.6-1.2-0.8-1.8l-0.6-0.2
						c0.2-1.2,1.5-1.4,1.7-2.7c0.8,0.8,0.8-0.6,1.4-0.5c1.1-0.8,2.6-1.4,3.6-1.5c0.5-0.2,0.3-0.6,0.8-0.8c0.9,0.3,1.5-0.9,2.3-0.9
						c0-0.6,0.8-0.6,1.1-1.1l0.5,0.2c0-0.5,0.3-0.6,0.6-0.9c0.2,0.6,1.4,0.9,0.5,1.7c0,0.4,0.8,1.4,0.2,2c-0.2,0.8,0.3,1.8,0.9,2.3
						c0.2,1.1-0.5,2.9,1.2,3c0.5,0,0.5-0.5,1.1-0.5c0,0.3,0.2,0.5,0,0.6c0.6,0.8,1.5,0.8,2.4,1.1c0.3-0.2,0.2-0.3,0.3-0.5
						c0,0.3,0.3,0.3,0.6,0.3l0.2-0.5c-0.2,0.6,0.3,0.8,0.6,0.8c0.3,0.4,0.2,1.2,0.6,1.5c-0.3,0.1-0.2,0.5,0.2,0.5l0.6,0.2
						C44.2,156.5,46,157.1,44.9,157.7z M49.2,137.2h0.5c-0.2,0.3-0.3,0-0.6,0.1L49.2,137.2z M49,138.4v0.2h-0.2v-0.2H49z M49,139.5
						v0.1h-0.2v-0.1H49z M48.9,137.5l-0.3,0.5l-0.3-0.2C47.9,137.4,48.6,137.5,48.9,137.5z M49.5,148.4c0.3,0.3-0.3,0.6,0,0.9
						c0.5,1.1-1.1,1.5-0.9,2.3c0.3,0.5-0.3,0.5-0.3,0.8c-0.5-0.3-1.8,0.9-1.5-0.5c-0.3,0.2-0.6,0.6-0.9,0.2v-0.9
						c0,0.3,0.6,0.5,0.8,0.5c0.3-0.5,0.8-1.1,1.4-0.9c-0.2-0.3-0.2-0.6-0.2-0.9c0.3,0,0.8,0,0.8-0.5c0.1-0.1,0-0.3-0.2-0.3h-0.1
						c0.3-0.9-0.9-2.3,0.1-3c-0.5-1.2,0.3-2-0.1-2.9c-0.5-0.5,0.1-0.9-0.3-1.2c0,0,0.1-0.1,0.1-0.3l0.2,0.3c0.8-0.1,0.3-1.1,0.6-1.5
						c0.1,0,0.2,0,0.2,0c0-0.1,0.1-0.2,0.1-0.3c0,0.1,0,0.3-0.1,0.3c-0.4,1.3,0.4,2.5-0.1,3.7c0.5,0.5-0.6,1.2,0.2,1.5
						c-0.2,0.3,0.2,0.5,0.3,0.5C49,147,50.2,147.8,49.5,148.4z M49.9,137.2v0.3l-0.2-0.3H49.9z M79.4,135.7c0,0.8-0.1,1.8-0.9,2.3
						c0.2,0.4-0.1,0.6-0.5,0.8c-0.2,0.3,0,0.9-0.6,1.1c0,0.3,0,0.6-0.3,0.6c-0.2,1.1-1.2,1.4-1.4,2.4c-0.9,1.5-2.6,2.1-3.3,3.8
						c-0.8,0.8-2.3,0.5-2,2c-0.8,0.1-1.4,0.8-1.7,1.5c-0.8-0.5-0.9,0.8-1.7,0.8c-0.6,0.1-0.5,1.4-1.4,1.2c0.2,0,0,0.1,0.2,0.1
						c-0.8,0-0.9,0.5-1.5,0.3c-0.2,0.1-0.2,0.3-0.2,0.3c-0.3-0.6-0.9,0.1-1.2,0l-0.1,0.3c-0.2,0-0.5-0.3-0.6-0.1
						c-0.6,0.9-2-0.3-2.3,0.8c-0.6,0.6-1.2-0.1-2,0.3c-0.2,0.5-1.1,0.1-1.5,0.1c-0.8-0.9-1.5,0.2-2.4,0.2c-0.5,0-0.6-0.8-1.2-0.5
						c-0.8-0.8-1.4,0.8-1.8-0.5c-0.5,0.2-0.6-0.3-1.1-0.2v-0.4l0.5,0.1c0.6-0.8,1.4-1.5,2.3-2c0.6,0.9,1.5-0.1,2.1-0.1
						c0.1,0,0.1,0,0.1-0.1c0,0.1,0.2,0.2,0.2,0.2c0.5-0.1,0.8-0.7,1.2-0.4c0.8-0.2,1.2-1.1,1.8-0.6l1.5-1.5
						c-0.5-0.6,0.6-0.8-0.2-1.4c-0.1-0.6-0.8-1.4-0.9-2.1c0.5-1.2-1.1-1.7-0.5-2.7c-0.9-0.3-0.9-1.2-1.7-1.5c0-0.8-0.9-1.1-0.9-1.8
						c-0.8-0.5-1.2-1.5-2.3-1.8c-0.5,0.1-0.5-0.5-0.9-0.6H51c0.5-0.6,1.4-1.4,2.4-1.2c0-0.8,0.9-0.2,1.2-0.9
						c0.5-0.3,1.1-0.3,1.5-0.8c1.1-0.2,2.1-0.9,3.3-1.2c0.8-0.1,1.4-0.8,2.3-0.6c0.3-0.3,0.6-0.9,0.9-0.8c0.3,0.1,0.6,0,0.6-0.3
						c0.6-0.4,1.7-0.4,2.3-0.6c0.6-0.9,1.7-0.3,2.4-1.1c0.5,0,1.1,0.3,1.4-0.1c0.5,0.1,0.9-0.3,1.4-0.3c0.8-0.1,1.5,0.1,2.1-0.3
						c0.6,0.2,1.5-0.1,2.3,0c0.6,0.5,1.7,0.2,2.1,0c0,0.3,0.3,0.5,0.5,0.8c0.5-0.3,0.9-0.1,1.4,0c1.2,0.9,0.9,2.4,1.2,3.5
						C80,133.8,80.5,135,79.4,135.7z"/>
				</g>
			</g>
		</g>
	</g>
	<g>
		<g>
			<g>
				<g>
					<path class="st1" d="M204,86.2c0.7-0.1,0-0.9,0.4-1.3c-0.2-0.3,0-1-0.6-0.9c-0.1-0.3,0.1-0.3,0.3-0.4c0-0.4-0.3-0.4-0.4-0.7
						c0-1-0.7-1.5-1.1-2.1c0-0.9-1.1-1.6-0.7-2.5c-0.3-1-1.2-1.7-1.4-2.6c-0.5-0.7-0.6-1.4-1-2.2c0-0.7-0.8-0.4-1-0.9
						c-0.5,0-0.4-0.8-0.7-0.6c-0.3-0.3-0.3-0.7-0.3-0.9c-0.7-0.4-0.8-1.3-1.6-1.4c-0.1-0.1-0.1-0.1-0.2-0.2
						c-0.1-0.2-0.2-0.4-0.4-0.4c-0.9-0.8-2-1.5-3.1-1.9c0,0,0,0,0,0c0,0-0.1,0-0.1,0c-0.2-0.1-0.3-0.1-0.5-0.1c0-0.1,0-0.1,0-0.2
						c-0.3-0.2-0.6-0.5-0.9-0.6c-0.7-0.4-1.5,0-2.1-0.4c0-0.7-1.1-0.3-1.1-0.9c-1,0-1.8-0.3-2.8-0.1c-0.3-0.3-0.7-0.5-0.9-0.9
						c-0.5-0.2-1,0.3-1.7,0.5c-0.4-0.1-1-1-1.3-0.3l-0.2-0.2c-0.1,0.1-0.3,0.1-0.4,0.1c-0.2-0.1-0.3-0.1-0.5-0.2
						c-0.3-0.2-0.7-0.4-1-0.3c-2-0.3-3.7-0.8-5.6-0.3c-2.3-0.6-5-0.6-6.8,0.9c-3.8,0-7.3,1.5-11.2,1.5c-0.9,0-2.4,0-2.9-0.6
						c-2.6-1.2-5.9-1.2-8.2,0.6c-3.5,0.6-2.1,4.7-5,6.2c-3.5,0.3-6.8,2-10.3,2.6c-1.8-0.6-2.6,1.2-4.4,0.6c-0.3,0-0.5,0-0.6,0.1
						c0-0.1-0.1-0.2-0.1-0.3c0,0,0,0,0,0c0.1,0.1,0.1,0.2,0.1,0.3c-0.2,0.2,0.2,0.6,0,1c0.1,0.1,0.2,0.2,0.3,0.2
						c-0.2,0.5,0.5,0.8,0.9,1.2c0.4,0.1,0,0.4,0.2,0.6c1.1,0.8,1.7,2.3,2.9,2.9c0.3,0.5,0.2,1.1,0.8,1.4c-0.3,0.8,1,1,1.1,1.7
						c0.6,0.2,0.5,0.8,1.2,1.1c0.8,0.4,0.3,1.4,1.3,1.7c0.3,0.5,1,1,1.6,1.2c0,0.1,0,0.2,0.1,0.3c-0.4,3-1.6,5.7-1.6,8.8
						c1.8,1.5-0.9,3.2,0.9,4.4c0.9,2.9-2.3,3.5-3.5,5c-0.4-0.3-0.8-0.6-1.2-0.8c0-0.2-0.1-0.3-0.1-0.4c-0.6-0.2-0.5-0.9-0.5-1.1
						c-1.1-0.1-0.3-0.9-1-1.3c-0.2-1.2-1.3-2.2-2.5-3c0.2-0.3-0.7-0.6-0.5-0.9c0.2-0.2-0.3-0.9-0.6-0.8c-0.3-0.8-1-1.7-1.7-2
						c-0.5-1.1-1.6-0.7-2.2-1.7c-0.3-0.8-1.1-0.7-1.4-1.5c-0.8-0.2-1.2-1.7-2.1-1.4c-0.3-0.8-1.1-0.7-1.7-1.1
						c-1-1.4-2.8-2.3-3.8-3.7c-0.3-0.2-0.6,0.2-0.7-0.3c-0.5-0.6-1-1.4-1.6-1.2c-0.2-0.3-0.4-0.3-0.6-0.4c-0.2-0.2-0.4-0.4-0.7-0.6
						c-0.5,2.4,0,4.5,0.6,6.6c-0.1,0.4-0.2,0.8-0.2,1.2c0.1,0.5,0,0.8,0.3,1.2c-0.1,0.4,0,0.8-0.4,1.2c0.3,1,0.2,1.7,0.2,2.8
						c-0.1,0.3-0.3-0.2-0.4-0.1c0.1,0.2,0,0.6,0.4,0.5c-0.2,0.2-0.2,0.5-0.1,0.7c0.1,0.2,0.2,0.2,0.3,0.3c0.2,0.2,0.5,0.6,0.4,1
						c-0.5,1,0.9,1.4,1.1,2.3c-1.1,0.3-0.6,1.6-1.2,2.3l0.2-0.1l0.2,0.5c1.3,0.6-0.4,1.9,0.6,2.5c-0.3,0.8,0.5,1.3,0.6,1.9
						c-0.3,0.9,0.7,1.6,0.3,2.6c0.6,1,1.1,2.3,1.7,3.4c0.5,0.5,0.7,1.3,1,1.9c0.3,0.3,0.1,1.2,0.7,1.1c0.6,1.3,1.4,2.5,2.1,3.6
						c-0.3,0.4,0.2,0.6,0.4,0.9c0.3,0.7,0.7,0.3,1,0.8c-0.1,0.3,0.3,0.4,0.2,0.8c0.4,0.5,0.7,1.1,1.2,1.6c0,0.6,0.7,0.4,0.7,1
						c0.5,0.6,1.2,1.2,1.5,1.9c0.7-0.1,0.9,0.8,1.3,1.1l0.4-0.6c-0.1,0.4,0.2,0.6,0.4,1c0.6-0.1,0.5,0.8,1,1
						c0.2-0.1,0.5,0.4,0.5,0.1c0.6-0.1,0.6,0.9,0.9,0.9c0.1-0.2,0.1-0.3,0.1-0.5c0.4,0.4,0.8,0.7,1.1,1l0.3,0.7
						c0.3,0,0.5,0.5,0.8,0.2c0.1-0.1,0.2-0.1,0.2-0.1c0.2,0.1,0.3,0.2,0.5,0.3c0.2,0.2,0.3,0.3,0.6,0.4c0.4,0.6,1,0.4,1.5,0.5
						c0,0,0,0,0.1,0c0.2,0.1,0.3,0.1,0.5,0.3c0.1,0,0.2,0,0.3,0c1.4,0.4,2.8,0.6,4.4,0.8c0.6-0.6,1.5-1.2,2.3-1.2
						c0.3-0.3,0.6-0.7,0.9-1c0.9-0.2,1.5-0.9,2-1.8c0.3,0.2,0.4-0.5,0.7-0.3c0.2,0.1,0.7-0.1,0.6-0.4c0.6-0.2,1.3-0.7,1.5-1.2
						c0.8-0.3,0.4-1.2,1-1.6c1.4,0.8,2.5,1.9,4.1,2.5c1.2,0.3,0.9,2.1,2.3,1.8c2.3,2.1,4.4,2.9,6.5,4.7c0.6,0.9,1.8,0.9,2.3,0.3
						c0.3,0.6,0.3,1.5,1.2,1.8c1.2,1.5,2.9,1.5,4.1,2.6c1.9,0.9,3.7,0.6,5.6,0.3c0,0.3-0.2,0.6-0.4,0.8c0.2,0.3,0.6,0.3,0.8,0.2
						c0.3,0.5,1.1,0.5,1.6,0.7c0.8,0.4,1.3,0,2,0c0.3-0.6,1.2-0.1,1.3-0.9c-0.1-0.3,0-0.5,0.2-0.7c0.6,0.1,0.8-0.4,1.4-0.1
						c0.5,0.4,1.4,0.1,1.8,0.3c0.2,0,0.4-0.1,0.4-0.4c1.1-0.1,1.2-1.2,2.2-1.2l-0.2-0.3c0.4-0.4,0.8,0.4,1.2,0.4
						c0.5,0,0.9-0.2,1.1-0.4c-0.3-0.2-0.6,0-0.7-0.3c0.4,0,0.6-0.2,0.9-0.3c0,0,0,0,0.1,0c0.6,0.2,0.9-0.1,1.3-0.4
						c0.4-0.1,0.7,0.5,0.9,0c-0.1-0.1-0.2-0.2-0.3-0.3l0,0c0.1-0.9,1.1-0.6,0.9-1.7c0.2,0.1,0.3,0.1,0.3,0.3l0.5-0.3
						c-0.1-0.6-0.6-0.2-0.9-0.2c-0.1-0.3-0.1-0.6,0-0.8c0,0,0.1,0,0.1-0.1c0.1-0.1,0.3-0.2,0.4-0.3c0,0,0,0-0.1,0
						c0.3-0.2,0.4-0.6,0.9-0.5c0.6,0.3,1.3-0.4,1.9-0.2c0.2-0.1,0.4-0.3,0.3-0.7c1-0.6,0.8-2.2,1.8-2.7l-0.3-0.3
						c0.3-0.7,0.8,0.3,1.3,0.1c0.5-0.2,0.8-0.6,1-0.9c-0.3-0.2-0.6,0.2-0.7-0.2c0.6-0.3,0.7-1,1.1-1.5c0.2-0.1,0.4-0.4,0.7-0.1
						c0.3-0.8,0.9,0.4,1-0.6c-0.2-0.3-0.5-0.4-0.8-0.4c0.2-0.8-0.7-0.2-0.8-0.7c0.3-0.2,1-0.2,0.9-0.8c-0.3-0.8,0.4-0.7,0.4-1.4
						c0.3,0.2,0.6,0,0.7,0.5l0.4-0.7c-0.4-1.3-0.9,1-1.3-0.3c0-0.4,0-0.7,0.2-0.9c0-0.5,0.6-0.8,0.7-1.2c0.2,0.2,0.2,0.4,0.3,0.6
						c0.5,0.2,0.3-0.4,0.6-0.5c-0.6-0.9,0.6,0.1,0.7-0.7c-0.2-0.5,0.4-1.2-0.1-1.6c-0.2-0.3-0.1-0.6,0.1-0.7l0.2,0.3
						c0.7-0.1,0.2-0.9,0.5-1.4c0,0,0-0.2-0.1-0.3c-0.2,0.1-0.2,0.3-0.2,0.5c-0.1,0.1-0.2,0.2-0.3,0.2c0-0.1,0-0.2,0-0.3
						c0.2-0.5,0.4-0.9,0.5-1.4c0,0,0.1-0.1,0.1-0.1l0.2,0.4c0.4,0.2,0.3-0.6,0.2-0.6c0.4-0.4,0.1-1.2,0.5-1.5c0-0.2,0-0.5-0.2-0.6
						c0.1-0.2,0.1-0.4,0.2-0.6l0,0c0.3-0.4,0.3-1,0.7-1.5c0-0.1,0-0.5-0.1-0.5c0,0,0,0-0.1,0.1c0.1-0.4,0.3-0.8,0.4-1.1
						c0.6-1.8,0.3-4.1,1.2-5.6c0.2-1.8,0.4-3.6,0.5-5.5c0-0.1,0-0.1,0-0.2c0-0.4,0-0.7,0-1.1c0.3-0.1,0.7-0.3,0.8-0.6
						c-0.1-0.5,0.1-1.1-0.2-1.3l0.3-0.2c-0.2,0.1-0.2-0.2-0.3-0.3c-0.2,0-0.4,0.1-0.6,0.2c0-0.5,0-1,0-1.4c0.5-0.7,1.4-1.1,1.5-2
						c0.1-0.6-0.4-0.2-0.6-0.5c0.4-0.6,0.7-1.4,1.1-1.9c-0.4-0.7,0.2-0.9,0-1.6c-0.7-0.5,0.5-0.8-0.2-1.3
						C205.4,87.5,204,86.9,204,86.2z M136.2,89.7c0.5,0.5,1.1,0.9,1.7,0.9c0.4,0.6,1.1-0.2,1.1,0.8c0.2,0,0.8-0.1,0.9,0.4
						c0.6,0.3,1.5-0.3,1.6,0.6c0.3-0.1,0.5-0.1,0.8,0.1c0.2-0.2,0.4-0.4,0.5-0.6c0,0,0,0,0,0c0.4,0,0.8,0,1.2-0.1
						c0.6-1.8,2.6-0.3,3.5-1.8c0.8-2.4,2.6-4.9,4.5-6.8c0,0.3,0.1,0.5,0.2,0.6c0.8,0.9,0.1,2.2,0.9,3.1c-0.2,0.2,0.2,0.5-0.3,0.6
						c-0.1,0.2,0.1,0.4,0.1,0.5c-0.1,0-0.1,0.1-0.2,0.1c0,0.1,0,0.3,0.1,0.3c0.2,0,0.3,0,0.4,0.2c0.2,0.5-0.3,0.8-0.4,1
						c-0.3,0.5,0.3,0.6,0.4,0.6c0.5,0.2,0.1,0.6,0.2,1.1c0,0.1,0,0.1,0,0.2c0,0,0,0-0.1,0c-0.1,0.1-0.5,0.2-0.4,0.5
						c0.1,0,0.2,0,0.3,0.1c0,0.1,0,0.2-0.1,0.3c-0.4,0.4-0.6,1-0.5,1.4c0.1,0.1,0.1,0.2,0.2,0.3c0,0.3,0,0.6,0,0.9c0,0-0.1,0-0.1,0
						l0.1,0.3c0,0.6-0.4,0.9-0.6,1.3c-0.2,0.1-0.4,0.2-0.7,0.2c-2.4,0.6-4.1,0.3-6.2,0.9c-1.8,0.3-3.8,1.2-5.9,1.2
						c-0.9,0-1.8,0.6-2.6,0.9c-1.5-2.9,0.6-6.2-0.6-9.1C136.1,90.2,136.2,90,136.2,89.7z M136.7,123.6c-0.6,0.3-2.1,1.2-2.3-0.3
						c-0.9-0.6-0.6-2.1-1.8-2.3c0-3.5-4.4-7.9,0-10.8c0.9-0.3,1.2,0.6,1.8,0.9c0,2.6,1.5,5.3,2.6,8.2
						C137.6,120.4,138.8,122.7,136.7,123.6z M140.8,118.3c-2.3-2.3-2.6-6.2-3.5-9.4c0.6-1.7-1.3-3.4,0.4-4.6c0.2,0,0.5,0,0.8,0.2
						c0.4-0.2,0.8,0.2,1.1-0.4c0.4,0,1.2,0.3,1.4-0.3c0,0,0.1,0,0.1,0c0.1,0.1,0.2,0.4,0.2,0.5c0.6-0.3,1.2,0.6,1.8,0.1
						c0.9,0.1,1.6-0.1,2.5,0.1c0,0.1,0,0.3,0.1,0.4c0.3-0.4,0.8-0.1,1-0.3c0.2,0.1,0.3,0.2,0.5,0.3l0,0.1c0,0,0.1,0,0.1-0.1
						c0.6,0.4,1.2,0.9,1.8,1.3c-0.3,2.6-3.2,4.7-3.2,7.3C144,115.1,143.2,117.7,140.8,118.3z M185.2,91.7c0.1,0.9-0.1,1.3-0.4,2
						l0.3,0.3c-0.1,0.2-0.1,0.6-0.1,1c-0.2,0.1-0.3,0.3-0.5,0.4c0.3,0.3-0.1,1.6,0.1,2.1c0,0,0,0.1,0,0.1c0,0.1-0.1,0.3-0.2,0.4
						c0,0.5,0.1,1.2,0.1,1.7c0,0.1,0,0.3,0,0.4c0,0.2,0,0.4,0,0.6c-0.3,0.2-0.6,0.4-0.4,0.9c-0.4,0.4-0.2,0.7-0.1,1
						c0,0-0.1,0.1-0.1,0c0,0.1-0.1,0.3,0,0.3c0.1,0,0.2,0.1,0.2,0.1c0,0.1,0,0.3-0.1,0.5c0,0,0,0.1,0.1,0.1
						c-0.1,0.1-0.1,0.2-0.2,0.3c-0.1,0.1-0.3,0.2-0.4,0.4c-0.4,0.5,0.1,0.7,0.2,0.7c0.5,0.3-0.1,0.8-0.1,1.4c0,0,0.2-0.1,0.1,0
						c0,0.1-0.1,0-0.3,0.1c-0.2,0.1-0.5,0.2-0.5,0.5c0.2,0.1,0.3,0.1,0.4,0.3c-0.6,0.3-1.1,1.1-1.1,1.8c0.3,0.2-0.2,0.9,0,1.3
						c-0.2,0.1-0.2,0.3-0.4,0.2l0,0.3c-0.2,0.9-1.1,1.1-1,1.8l0.3,0.2c-0.3,0.1-0.1,0.4,0,0.7c-0.1,0.4-0.4,0.9-0.7,1.1
						c-0.6-0.3-0.3,0.6-0.6,0.9c-0.3-0.1-0.2,0.6-0.6,0.6c0,0.3,0.3,0.6,0.6,0.7c0,0,0,0.2-0.2,0.1c0,0.3-0.3,0.7-0.7,0.6l0-0.1
						c0-0.1-0.1,0-0.3,0.1l0.3,0.3c-0.2,0.1-0.3,0.6-0.5,0.5c-0.2,0.1-0.4,0.5-0.3,0.7c0.1,0,0.2,0.1,0.3-0.1
						c-0.2,0.3,0,0.8-0.3,0.9c-0.1,0-0.3,0.1-0.3-0.1c0,0-0.2-0.1-0.3,0.2c-0.2,0.3,0,0.5,0,0.8c-0.2,0.3-0.3-0.3-0.5,0
						c0.1,0.7-0.9,0.9-0.5,1.5c0.1-0.3,0.4-0.2,0.5-0.2l-0.1,0.8c-0.3,0.6-0.6,0.9-1.3,1.1l0.5,0.3l-0.4,0.4
						c-0.4-0.1-0.6,0.6-1.1,0.6c0.1,0.2,0.1,0.4,0.2,0.4c-0.5,1-1.2,1.4-1.8,2.2c-0.7,0.1-0.5,1.3-1.2,1.6c0.1,0.2,0.3,0.4,0.1,0.7
						c-0.5-0.5-0.9,0.5-1.2,0.9c-0.5-0.2-0.6,0.5-1,0.6c-0.1,0.6-0.5,0.8-0.8,1.1c-1.9,0.4-3.6,1-5.5,0.3c-3.5,0.6-5.9-2.3-9.1-2.6
						c-2.6-1.5-5.3-3.2-7.9-4.7c-0.1,0-0.1-0.1-0.2-0.1c0-0.1,0-0.1,0-0.2c0.6-0.2,0.5-0.8,0.7-1.3c1-0.6,1.5-1.8,2.3-2.6
						c0.4-0.2,0.8-0.3,1.1-0.8c0.2-0.2,0.4,0,0.6-0.3c0-0.1-0.1-0.3,0-0.4c0.4,0.3,0.6-0.3,0.8-0.4c-0.1-0.5,0.7-0.7,0.3-1.1
						c0.4-0.5,1.6-0.4,1.2-1.3c0.7,0,0-0.8,0.7-0.8c0.4-0.4,0.1-0.8,0.7-1.2c0-0.6,0.2-1.3,0.2-1.9c0.3-0.1,0.4,0.4,0.6-0.1
						c0.4-0.7-0.1-1.5-0.1-2.3c0-0.1,0.2-0.2,0.1-0.3c-0.4,0-0.1-0.5,0-0.7c0.1-0.2,0.2-0.5,0.4-0.3c-0.1,0.3,0.1,0.5,0.3,0.7
						c0.1-0.1,0.2-0.2,0.3-0.1l-0.2-0.3c0.3,0,0.4-0.5,0.7-0.8c0.1-0.4-0.3-0.8-0.5-1.2c0.2,0,0.5,0,0.7,0l0,0.3
						c0.4,0.4,1.1-0.1,1.8,0.4l0.2,0.2c0-0.1,0.1-0.1,0.1-0.1c0.2,0.1,0.4,0.2,0.6,0.3c0.2,0.2,0.5,0.3,0.5,0.5
						c0.4,0.3,1.3,0.5,1.8,0.3c0.1,0.2,0,0.3-0.1,0.5c0.2,0.2,0.5,0,0.6-0.1c0.2,0,0.1-0.2,0.2-0.1c0.1,0.1,0,0.1,0,0.1
						c0.4,0.4,1.1,0.3,1,0.8c0,0.1-0.3,0.6,0.3,0.6c0.3,0,0.7-0.3,1.1,0.2c0.1,0.2,0,0.3-0.1,0.5c0,0.1,0.1,0.2,0.2,0.2
						c0-0.1,0.2,0,0.2-0.1c0.1,0.1,0.1,0.3,0.4,0.3c0.3-0.3,0.4,0.2,0.7,0.1c0.3,1.2,1.9,1.3,2.3,2.5c0.1,0.4,0.8,0.8,1.1,1.2
						c0.9,0.1,1.8,0,2.5-0.3c0,0,0.1,0,0.1,0c5-1.2,4.1-7.3,6.5-11.1c-1.2-0.3-0.3-1.5-0.9-2.1c-0.1-0.1-0.2-0.2-0.3-0.3
						c0.1-0.1,0.1-0.2,0.2-0.3c0.1-0.2,0.2-0.4,0.2-0.7c-0.2-0.1-0.3-0.3-0.4-0.6c-0.6,0.4-0.6-0.6-1-0.9c-0.4,0.2-0.5-0.4-0.6-0.5
						c-0.6,0.5-0.4-0.5-1-0.5c-0.5-0.7-1.3-1-2.2-1c0-0.3-0.6-0.1-0.5-0.4c0-0.2-0.4-0.5-0.5-0.3c-0.4-0.4-1-0.7-1.5-0.7
						c-0.6-0.5-1.1,0.3-1.7-0.1c-0.4-0.4-0.8,0-1.2-0.4c-0.5,0.3-1.2-0.6-1.6,0c-0.4-0.4-0.8,0-1.2,0.1c-0.9-0.6-2.2-0.3-3.2-0.8
						c-0.2,0-0.3,0.4-0.5,0.2c0.1-0.1,0.4-0.2,0.4-0.4c0.2,0.1,0.4-0.2,0.5-0.4c-0.1-0.4,0.4-0.8,0.4-1.3c0.1,0,0.5-0.5,0.2-0.5
						l-0.3,0.2c0-0.6,0-1,0.4-1.6c0.1,0,0.1,0.2,0.1,0.3c-0.1,0.1-0.2,0.2-0.1,0.4c0.1,0,0.2-0.2,0.2-0.2c0-0.4,0.7-0.8,0.3-1.2
						l-0.3,0.1c0-0.1,0-0.4,0.3-0.6c0.5-0.1,0.4-0.8,0.8-1.1c0.3-0.7-1-0.4-0.2-0.9c-0.2-0.2,0.3-0.5-0.1-0.6
						c0.2-0.4,0.3-0.8,0.5-1.2c0.1,0.1,0.2,0.1,0.4-0.1l0-0.7c-0.1,0.1-0.2,0.1-0.3,0.1c0.1-0.4,0.3-0.7,0.4-1.1
						c0.1-0.4,0.2-0.9,0.3-1.3c0.2,0.1,0.4,0.1,0.7,0c0.4-0.7-0.6-0.2-0.4-0.9c0,0,0,0,0,0c0.6-2.7,1.1-5.6-0.5-8.1
						c-0.9-0.4-1.1-1.2-1.3-1.9c0.3-0.5,0.1-0.7,0-1.1c1.3-2,4.3-1.8,6.3-2.9c0.5,0,0.9,0.1,1.4,0.1c0,0,0,0,0,0.1c0,0,0,0,0,0
						c0,0,0.1-0.1,0.1-0.1c0.1,0,0.2,0,0.3,0c0,0,0,0,0,0c-0.1,0.1-0.2,0.2-0.2,0.3c0.1,0.1,0.2,0.2,0.3,0.4c1.4-0.1,3-0.1,4.3,0.1
						c0.4,0.3,0.9,0.5,1.2,0.6c0.3,0.5,0.7,0.2,0.8,0.8c0.7-0.5,0.8,0.3,1.2,0.6c0.5,0.4,0.5,1.4,1.1,1.5c0.2,0.5,0.4,1.1,0.8,1
						c-0.2,0.8,0.6,1.1,0.7,1.7c0.4,1.2,1.4,1.7,1.4,3.3c-0.2,0.8,0.9,1.4,0.6,2.4c0.2,0.1,0.3,0.3,0.2,0.6
						c-0.3,0.3,0.1,0.9,0.1,1.3c0.4,0.3-0.3,0.8,0.3,1.1c0,0,0,0,0,0c-0.2,0.5-0.1,0.9,0,1.4c0,1.1,0.1,2.2,0.2,3.3
						c-0.3-0.1-0.2,0.5-0.4,0.7C185.1,90.8,185.6,91.3,185.2,91.7z M188,136.6c0.2,0.1,0.3,0.1,0.4,0
						C188.3,136.6,188.1,136.6,188,136.6C188,136.6,188,136.6,188,136.6z M178.9,100.4c0,0.2,0,0.4,0,0.6
						C178.9,100.9,178.9,100.7,178.9,100.4C178.9,100.5,178.9,100.4,178.9,100.4z M135.3,136.4C135.3,136.4,135.3,136.4,135.3,136.4
						c-0.2-0.1-0.4-0.2-0.6-0.3C134.9,136.2,135.1,136.3,135.3,136.4z M106.9,84.8c-0.1-0.1-0.3-0.1-0.4-0.2c0,0,0,0,0,0
						C106.6,84.7,106.8,84.7,106.9,84.8C106.9,84.8,106.9,84.8,106.9,84.8z"/>
				</g>
			</g>
		</g>
	</g>
	<g>
		<g>
			<g>
				<g>
					<path class="st1" d="M402,126.8c1.3,0.4,0.4-1.2,1.7-0.8c2.1-2.8,5-3.7,7.6-5.7c0-0.8,0.4-2,1.3-1.6v-0.4
						c2.5-2.8,5.9-4.9,8-7.3c0-1.2,2.1-1.6,2.1-2.8c1.3-2,2.5-3.2,3.8-4.9c0-1.6,0.8-3.2,1.3-4.5c2.5-4.5,4.6-9.7,1.3-14.6
						c-2.1-1.2-4.2-4.9-7.6-4.1c-1.3-0.4-2.9,0.8-3.8-0.8c-2.1-1.2-2.5-2.8-2.5-4.9c-0.4-2.8,1.3-5.7,0-8.1c2.1-2.4-1.3-6.1,0.8-8.5
						c-0.8-3.7,0.8-6.9,1.3-10.1c-1.7-0.8,0.8-3.7-2.1-3.2c-2.1-2.4-5.5-0.4-8-1.6c-2.9-1.6-6.3,0.4-8.8,1.6
						c-2.1-0.4-2.1,2.4-4.6,1.6c-2.5,1.2-6.3,1.2-9.2,2.8c-2.5-1.6-3.4,1.6-5.9,0.8c-0.8,1.6-3.8,0-3.8,1.6l2.1,2.4
						c0,2,4.6,1.6,3.8,4.9c2.5,2.4,5.9,4.9,10.1,4.5c1.3-1.2,4.2-0.8,5.5-1.6c2.9-0.8,6.7-2.4,9.2-4.5c1.3-0.4,2.9-1.6,3.8,0.4
						l0.8,8.1l0.4,0.4c0,0.8-0.4,1.2-0.8,1.2c0,0.8,0,1.6,0.8,1.6c-0.8,2-1.3,4.1-0.8,5.7c0.8,6.5-6.3,5.3-8.8,8.5
						c-3.4-1.2-2.5,3.2-5.9,2.4c-4.2,3.2-8.8,6.1-12.2,10.1c-0.4,2-3.4,1.2-3.4,3.2c-2.9,0.8-2.9,4.1-5,5.3c-1.7,3.2-4.6,7.3-5,11.4
						c0.8,2,0.8,5.7,3.8,6.1c1.3,1.6,3.8,1.6,5.5,2.8c0.4,2-2.5,2.8-3.4,4.5c-3.8,0.4-5.9,4.1-8.4,6.5l0.4,10.6c0,2-0.4,3.7,0,5.7
						c2.1,1.6,4.6,3.7,7.6,3.7c1.7-1.6,4.2,0,6.3-1.2c8.4-1.2,17.2-1.2,26-1.2c2.9-1.6,6.3,1.6,9.2-0.8c2.5,1.2,4.6-1.6,6.3-2.8
						c-0.8-2.8,2.5-0.8,3.4-2.8c2.1-1.2,1.7-4.5,2.5-6.1c0-4.5,0.4-8.1,1.3-12.2c-0.8-0.8,1.3-1.6,0-2.4c-0.8,0-1.3,0.8-2.1,0.8
						c0,0.8-1.3,2.4-2.1,2c-1.3,1.6-2.5,2.8-2.9,4.9c-2.9,1.6-5.9,1.6-9.2,1.2c-3.8,0-8.4,1.6-12.6,0.4c-2.1-2.8-5.5,0.4-8-1.6
						c0-0.4-0.8-0.8,0-1.2C396.1,130.8,399.4,128.8,402,126.8z M385.2,111c-1.7-0.4-0.8-2.8-0.4-4.1c2.5-8.9,11.8-13.4,17.6-18.7
						c1.7-1.2,6.3-1.2,4.6,2c-0.8,2-0.4,4.5-1.3,6.9c-1.7,5.3-7.6,8.1-10.5,12.6C392.3,112.2,388.9,111.4,385.2,111z"/>
					<path class="st1" d="M477.6,108.9c-3.8-3.7-10.5-1.6-15.1-1.6c-2.5-0.4-5.5-1.2-8.4-1.2c-1.3,0-2.5,1.2-3.4,0
						c-2.9-0.4-4.2,1.2-6.3,1.6c-1.7,2-3.4,3.2-5,4.9c-0.4,2-3.8,2.4-3.8,4.5c2.1,0.4,3.4-0.4,5.5-1.2c5.5-1.6,10.5,0,15.5,1.2
						c1.3,0.8,2.5,1.6,2.1,2.8c-1.7,1.2-3.4,3.7-5,4.1c2.1,0.4,2.9,2.4,5.5,2.8c2.5,2.4,6.3,2,9.7,2c1.3-0.8,3.4-2.4,2.9-4.1
						c3.4-1.6,2.5-5.7,5-6.9c1.3-2.4,2.9-2.8,3.4-5.3C480.1,110.6,477.1,111,477.6,108.9z"/>
				</g>
			</g>
		</g>
	</g>
	<g>
		<g>
			<g>
				<g>
					<path class="st1" d="M267.1,52.4c0.3-1.3-0.5-2.5-1.3-3.8c0,0,0,0-0.1-0.1c0.1,0,0.2,0.1,0.3,0.1c0-0.2,0-0.3-0.2-0.5
						c-0.1-0.6,0.2-1.2-0.5-1.6c-1.6,0.4-2.5-1.5-4-0.3c-0.4-0.1-0.2-0.4-0.4-0.5l-0.2-0.1c-0.5-0.6-1.3,0.1-2,0.1
						c-0.7,0.1-0.6,0.6-1.3,0.8c-0.2,0,0.1-0.3-0.2-0.3c-0.2,0.1-0.2,0.4-0.4,0.3c-0.6-0.3-1.3-0.2-2-0.1c-0.1,0.2-0.4,0.2-0.7,0.3
						c-0.2,0.4-0.6,0-0.6,0.5c-0.8,0.2-0.8,0.9-1.7,0.9c-0.4,0.6-1.2,0.7-1.7,1.1c-0.1,0.7-1,0.3-1.4,0.9c-0.6,0.2-0.7,1-1.4,0.9
						c0.1,0.6-0.8,0.3-0.9,0.7c-0.9,0.2-0.8,1-1.6,1.3c-0.7-0.1-0.9,0.7-1.6,1.1c-0.1,0.2,0.2,0.6-0.2,0.7l0.3,0.2c0,0,0,0,0,0
						c-1.6,1-3.1,2-4.7,2.9c-0.8,0.5-1.3,1.3-1.8,1.5c4.1,1,8.5-1,12.4-1.8c0.3,0.3,0.8,0.8,0.5,1.3c-0.8,1.5,0.3,3.5-0.5,5.1
						c0,2.5-0.3,5.8-0.5,8.6c-0.3,3,0.8,6.6-2.1,9.1c-1.8,1-3.9,0-5.2-0.8c-2.3,0.1-3.5-0.5-4.2-1.5c0.1-0.4,0.2-0.8,0.5-1.2
						c0.3-0.7-0.6-0.9-0.5-1.5c0.6-1.2-1-2-0.8-3.1c0,0-0.1-0.1-0.1-0.1c-0.1-2.1-0.6-4-2.9-5c-0.8-1.5-2.6-0.8-3.9-0.8
						c-0.1,0-0.1,0.1-0.2,0.1c-0.3-0.2-0.6-0.3-0.9-0.4c0.3,0.5-0.4,0.9-0.3,1.2c-0.2,0.2-0.5,0.4-0.7,0.6c-0.2-0.1-0.2,0.1-0.3,0.3
						c-0.2,0.2-0.3,0.3-0.5,0.5c0,0-0.1,0-0.1,0c0,0,0.1,0.1,0.1,0.1c-1.1,1.1-2.1,2.2-3.6,2.9c-0.8,2.2,1.2,2.8,2.4,3.8
						c0.1,0.2,0.1,0.4,0.2,0.6c0.3,0,0.4,0.4,0.6,0.6c0.1,0.8,0.6,1.5,0.8,2.3c0,0-0.1,0.1-0.1,0.1c0.1,0.2,0.1,0.5,0.1,0.7
						c0,0.2-0.1,0.4-0.3,0.7c0.4,0.6,0.3,1.3,0.2,2c-0.1,0.6-0.2,1.1,0.1,1.7c0.1,0.5-0.3,1.3-0.1,1.8c-0.1,0.8-0.1,1.5-0.1,2.3
						c-0.1,0.2-0.2,0.4,0,0.7c0.1,1.4-0.3,2.7-0.2,3.9c-0.3,0.6,0.3,1.4-0.2,2c0.5,0.5-0.3,0.9,0,1.4c0.1,0.3,0.1,0.8-0.1,0.9
						c0.3,0.6-0.3,1.3,0,2c-0.6,0.5,0.1,1.3-0.7,1.6l0.1,0.1c0.1,0.6,0.1,1.4,0,2.1c0,0.8-0.2,1.5-0.1,2.4c-0.6,0.8,0.1,1.7-0.1,2.6
						c0.3,0.3-0.3,0.7,0,0.9c-0.6,0.3-0.2,1-0.3,1.5c0.1,0.1,0.3,0.3,0.3,0.6c-1,0.2,0,1-0.5,1.5c0,0.7,0.7,1.9,0,2.4l0.6,0.6
						c0,0.5-0.2,0.6-0.7,0.8c-0.2,0.2-0.1,0.8,0,1.2c0.9,0.5-1,1,0.2,1.5c-0.2,0.7,0.6,1.4-0.1,1.9c-0.2-0.2,0-0.5-0.1-0.7
						c-0.3,0.5,0,1.2,0.1,1.7c1.2,0.5-0.8,0.8-0.2,1.6c0.1,0.6,0,0.8,0.1,1.3c-0.1,0.5,0.1,0.9,0.2,1.3c-0.7,0.6,0.8,1.9-0.3,2.4
						c0.3,0.5-0.2,1.2,0.3,1.5c-0.6,0.6,0.5,1.2,0,1.7l0.8,0.1c0.2,0.3-0.1,0.7-0.3,1c0,0,0-0.1,0-0.2c-0.1,0-0.5,0-0.5,0.1
						c0.6,0.3-0.2,0.8,0.2,1.3c0.2,0.2,0.1-0.2,0.3-0.2l0.1,0.3c-0.3,0.2-0.1,0.7-0.6,0.8c0.2,0.3,0,1,0.3,1.3l-0.1,0.1
						c-0.2,0.3,0,0.7,0.2,0.7l0.4-0.6c-0.3,1.1-0.8,2.1-1.2,3c-0.3,1,0,2-0.8,2.5c0.5,2.3,0.8,4.8,3.6,5.6c3.3,0,4.4-4,6.2-6.3
						c4.4-4,3.9-2.2,4.1-8c0.4-0.7,0.6-1.4,0.8-2.2c0.3-0.3,0.5-0.7,0.2-1.2c0-0.2,0-0.4,0-0.6c0.1-0.6,0.2-1.2,0.4-1.7
						c0.1,0,0.2-0.1,0.4-0.1c0.3-0.9,0.2-1.9,0.2-2.8c0.1-0.3,0.1-0.7,0.2-1c0.1-0.2,0.2-0.5,0.3-0.7c0.9-1.5,1.3-3.1,1.4-4.8
						c0.2-0.6,0.3-1.2,0.4-1.8c0.2-0.2,0.4-0.4,0.5-0.8c-0.1-0.1-0.2-0.2-0.3-0.2c0-0.4,0.1-0.7,0.1-1.1c0.1-0.3,0.4-0.7,0.6-0.9
						c-0.1-0.8,0.1-1-0.3-1.8c-0.1-0.8,0.8-0.6,0.9-1.3c0.2-0.8-0.4-1.6,0.2-2.6c-0.5-0.4,0.5-0.9,0-1.5c0.4-0.7,0.1-1.7,0.8-2.4
						c-0.2-0.7,0.7-1.7-0.2-2.2l-0.5,2.1c0.3,0.8-0.9,1-0.7,2c-1.9,2.2-2,5.2-3,7.6c-0.6,0-0.5,0.6-0.5,0.9c-0.9-0.2-0.5,1.1-1,1.4
						c-0.2,0.6,0,1.5-1,1.4c-0.3,0.2-0.4,0.5-0.4,0.8c0,0,0,0-0.1-0.1c0.3-0.5-0.3-1.2,0.3-1.6c-0.7-0.6-0.1-1.5,0-2.1
						c0.1-1,0.3-2.1-0.5-2.8c0.1-0.3,0.2,0.2,0.4-0.1c-0.1-0.5-0.4-0.9-0.3-1.5l0.2,0.2c0.1-0.1,0.1-0.4,0.1-0.6
						c-0.1-0.2-0.2,0-0.4,0l-0.2-1.3c0.1-0.4,0.5-0.3,0.7-0.3c0.1-0.5-0.7-0.2-0.8-0.7c-0.2-0.4-0.1-0.8,0-1
						c-0.1-0.3-0.2-0.5-0.1-0.8c-0.5-0.5,0.5-0.2,0.2-0.8c0-0.2-0.3,0-0.5-0.1c-0.2-0.9,0.2-1.7,0.3-2.4l-0.3-0.1
						c0-0.2,0.2-0.5-0.2-0.6c0,0,0,0,0,0c0-0.1,0-0.3,0-0.4c0,0,0.1-0.1,0.1-0.1c0-0.2,0-0.4,0-0.6c0.2-1.3,0.5-2.6,1-3.8
						c0,0,0,0-0.1-0.1c-0.3-0.8-0.2-1.6,0-2.6c-0.5-0.6,0.2-1.4-0.2-2.1c0.1-0.2,0.3-0.3,0-0.6c0.2-0.8-0.2-1.5-0.2-2.2
						c0.3-0.9-0.3-1.7,0-2.6c-0.8-0.6,0.2-1.2-0.2-1.5c-0.1-0.2-0.2-0.6,0-0.7c-0.1-0.3,0-0.8-0.3-1.2c0,0,0-0.1,0-0.1
						c0-0.1,0.1-0.1,0.2-0.1c0.1-0.2,0-0.5-0.2-0.6c-0.1-0.1-0.1-0.2-0.1-0.3c0,0,0,0,0,0c0,0,0,0,0,0c-0.1-0.4,0-0.7,0.1-1
						c0.1-0.1,0.2-0.3,0.4-0.4c0.8-0.5,1.3,0.3,2.3,0.3c1.8,2,3.9,3.8,6.4,5.1c0.5,0.8,0.8,1.8,1.8,1.8c2.3,1.5,3.6,4,5.1,6.3
						c0.5,0.2,1,0.4,1.6,0.5c1.2,1.3,2.5,2.3,3.6,0.7c0-0.8-0.1-1.6,0.2-2.4c0.2-0.3,0.5-0.2,0.8-0.7c-0.3-1.4,0.1-3.5-0.1-4.9
						c-0.5,0.2-0.7,1-0.9,2.1c-0.2-1.4,0.4-2.7,0.9-3.5c-0.3-0.9-0.9-1.2-0.8-2.3c-0.2-1.4,0.6-2.1,1-2.9c-0.5,0.5-1-0.6-1-1.5
						c0.2-1.6,0-3.3,0.6-4.3c-0.1-0.6,0.1-1.1-0.3-0.9c0.2-0.3,0.3-0.2,0.5-0.2l-0.1-1.4c0.2-0.5,0.5,0.3,0.6-0.5
						c-0.2-0.6,0-1.6-0.2-1.9c-1.5,0.1-0.2-3.3-1.4-3.7c0.4-1.1,0.4-2.1,0.5-3.2l-0.4-0.6l-0.3,0.5c-0.1-0.3,0.2-0.5,0.3-1.1
						c-0.2,0-0.5-0.1-0.6-0.4c0-0.3,0-0.6,0.1-0.9c1.3-1,1.3-2.8,2.3-4c1.5-0.5,1.8-2.5,3.3-2.8C263.8,53.5,265.8,53.5,267.1,52.4z
						 M243.7,108.4l0.1,0.1l-0.1,0.1l-0.2-0.1L243.7,108.4z M237.2,121.2c0.1-0.4,0.5-0.7,0.7-1.1c0,0.2,0.1,0.4,0.1,0.6
						c-0.3,0.2-0.7,0.6-1,0.9C237,121.4,237.1,121.3,237.2,121.2z M334.3,124.8C334.1,124.8,334.2,124.9,334.3,124.8L334.3,124.8z
						 M350.6,71.1c0.2-0.8-1.1-0.9-1.9-1.3c0.2-0.5-0.3-0.8-0.7-1.1c-0.2,0.1-0.3,0.1-0.4,0.1c-0.3-0.4-0.6-0.8-0.9-1.2
						c-0.6,0-1.2,0-1.7-0.1c-0.6-0.3-1.4-0.3-1.6-0.9c0,0.1-0.4,0.2-0.6,0.4l0-0.6c-0.4,0.4-1,0-1.5,0.5c-1-0.4-1.6-0.5-2.8-0.7
						c-0.7,0.6-1.8,0.3-2.4,0.9l-0.1-0.1c0-0.1,0.1-0.3,0.1-0.4l0.3-0.1c0.7-0.2-0.3-0.3-0.3-0.6c0,0-0.1,0.1-0.1,0.1
						c-0.2-0.9-0.1-1.8,0.1-2.8c-0.2-0.4-0.1-0.9-0.1-1.4c0,0,0,0,0,0c0,0,0,0,0,0c0-0.3,0-0.6-0.1-0.8c0.1-0.4,0.3-0.8,0.2-1.4
						c0-0.2,0-0.4,0.1-0.5c-0.2-0.4-0.4-0.8-0.5-1.2c0-0.2,0-0.3,0-0.5c0.3-1.1-0.3-2.1,0-3.1c0,0-0.1-0.1-0.1-0.1
						c0.1-0.6,0.1-1.2,0-1.8c0-0.1-0.1-0.3-0.1-0.4c0-0.1,0-0.2,0-0.3c0,0,0-0.1,0-0.1c-0.1-0.2-0.1-0.5-0.1-0.8c0,0,0,0,0-0.1
						c0,0,0,0,0,0c0-0.2-0.1-0.3-0.1-0.5c0-0.1,0-0.2,0.1-0.3l0,0c0,0,0,0,0-0.1c0.2-0.5,0.6-1.1,0-1.5c0.2-1.2,0.2-2.5,0.3-3.8
						c0.1-0.5,0.2-1.1,0.4-1.6c0.3-0.7-0.3-1-0.4-1.5c0-0.1,0-0.3,0-0.4c0.2-0.7-0.1-1.3-0.4-2c0.1-0.9,0.4-1.8-0.9-2.4
						c0-0.1,0-0.1,0-0.2c0,0,0,0,0-0.1c0-0.1,0-0.1-0.1-0.1c0-0.2-0.1-0.5-0.2-0.6c0-0.2,0.1-0.4,0.1-0.6c-0.3-0.3,0.1-0.8-0.4-1
						c0.2-0.5,0.6-0.8,1-1.2c0.1-0.3,0.2-0.5,0.2-0.8c-0.3-0.3,0-0.8-0.4-1.1l-0.7-0.6l0.1-0.2c-0.4-0.4-1.2-0.4-1.3-1.2
						c-0.3-0.7-0.8-0.2-1.3-0.4c-0.5,0.1-0.8,0.5-1.4,0.4c-0.5,0.3-0.2,1.7-1.1,1c-0.1,0.2-0.3,0.4-0.4,0.5
						c-0.2-0.2-0.5-0.3-0.7-0.4c0.2,0.5-0.2,0.8-0.2,1.2c-0.3,0.3-0.5,0.6-0.6,1c-0.1-0.1-0.2,0-0.2,0.2c-0.1,0.1-0.1,0.2-0.2,0.3
						c0.1,0.2,0,0.3-0.1,0.5c-0.1,0-0.1,0-0.2-0.1c0,0.1,0.1,0.1,0.2,0.2c-0.4,0.4-0.5,0.8-1.2,1.1c0.1,0.3-0.5,0.3-0.2,0.7
						c-0.1,1.3-1,2.4-1.1,3.7c0,0.7-0.8,0.4-0.6,1.1c-0.3,0.3-0.2,1-0.6,0.9c-0.1,0.2-0.1,0.7-0.5,0.6c0,0.1,0,0.2-0.1,0.3l0,0.3
						c0,0.1-0.1,0.1-0.1,0c0,0.1,0,0.2-0.1,0.3c0,0.1,0,0.1-0.1,0.2l-0.3,1.5c-0.1,0.6-0.3,1.3-0.1,1.9c0.2,0.8,0.8,1.3,1.3,1.9
						c0.5,0.7,0.7,1.7,0.7,2.6c0.1,0,0.2,0.1,0.2,0.3c0.2,0.6,0.9,0.7,0.9,1.3c0.3,0.2,0.5,0.5,0.8,0.7c-0.2,1.9-0.3,3.9,0.2,5.6
						c-0.9,2.4,0.6,4.8-0.3,7.6c-0.6,0.7-0.8,1.5-0.9,2.2c-0.4,0-0.8,0.1-1.2,0.2c-1,0.5-2.5,0.3-3.1,1.2l-0.1-0.1
						c-1.5,0.1-2.8,0.5-4.1,0.9c-0.4,0.1-0.2,0.6-0.5,1c-0.3,0.1-0.3-0.3-0.6-0.3c0-1-0.9,0.2-1.3-0.4c-0.7-0.1-0.9,0.9-1.9,0.7
						c0.1,0.1,0,0.4,0.1,0.4c-0.3,0.2-0.7-0.1-1.2-0.3c-0.5,0.6-1.5,0.5-2.1,0.7l-0.1-0.1c-0.9,0.6-2.2,0.4-2.8,1.2
						c-0.1,0-0.3,0-0.4,0c-0.1-0.2-0.1-0.5-0.3-0.7c0.7-0.4-0.3-1.3,0.4-1.9c-0.3-0.6,0.1-2.5-1-2.9c-0.5-0.5-0.7-1.4-0.4-1.9
						c-1.4-1-2-3.1-4.1-3c-0.9-2.5-3.4-1.8-4.4-3.8l-0.7,0.6l-0.2-0.2c-0.5,0.4-0.9,0.4-1.3,0.2c0-0.2,0-0.4,0.1-0.6
						c0.3,0.3,0.7,0.2,1,0.5c0.4-0.3,0.9-0.5,1.1-1c-0.4,0.3-0.4-0.1-0.7-0.4l-0.2,0.3c-0.3-0.5-0.6,0.4-0.9,0.3l0-0.3
						c-0.4,0.2-0.6,0.6-0.8,0.8l0,0c-0.1-0.1-0.1-0.1-0.2-0.2c0.4-0.6,0.1-1.4,1-1.6c0.5-0.1,1.4-0.5,1.7,0.2c0.3-0.8,1.6,0,1.5-1.2
						c0.3,0.1,0.4,0,0.5-0.2c0.1-0.3,0.2-0.6,0-0.9c0.5-0.2-0.1-0.7,0-1.3c0.2-0.3,0.4-0.5,0.3-0.8c0.1-0.2,0.2-0.4,0.3-0.6
						c0.2,0.1,0.4,0.4,0.6,0.3c0.1-0.6,0.5-0.1,0.7-0.5l-0.2-0.4c0.1-0.2,0.4,0,0.5,0.1c0.6-0.4,0.4-0.9,0.6-1.5
						c0.4,0,0.6,0.5,1,0.5c0-0.3,0-0.4,0.3-0.6c0.1-0.4-0.4-0.4-0.3-0.8l0.4,0.1c0.4,0,0.3-0.6,0.3-0.9c0.3-0.5,0.5,0.2,0.8,0.2
						l0.4-0.3c-0.2-1.1,0.7-1.2,0.7-2.1l-0.5-0.2l0.2-0.3c0.1-0.3,0-0.4-0.3-0.5l0.5-0.2c0-0.4-0.7-0.4-0.6-0.8
						c0.2-0.2,0.1,0.1,0.4,0.1c0.4-0.6-0.1-1-0.7-1.2c-0.1-0.8-0.4-1.5-0.9-2.2c-2.4-0.8-4.8-3.9-7.2-3.8c-0.4-0.3-0.8-0.5-1.4-0.4
						c-0.7-0.5-1.4,0.2-2.2,0.3c-0.5,0.3-0.5-0.7-1.1-0.6c-0.1,0.3,0,0.9-0.3,0.9c-0.6,0.2,0,0.4-0.2,0.9c-0.4-0.1-0.8-0.6-1.1-0.7
						c-0.8,0.1-1.5,0.3-2,1c-0.2,0.6-1.3,1.5-0.2,1.9c0.5,0.7-0.3,1.2-0.2,1.8c-0.1,0.3-0.6,0.7-0.5,1.1L286,43
						c0.7,0.4,0.8,1.2,0.7,1.8c0.5,0.1,0.3,0.8,0.9,0.9c0.1,0.6,0,1.2-0.1,1.6c-0.7,0.5-1.3-0.3-2-0.3l0.1-0.6
						c-0.3,0-0.5,0.1-0.7,0.4c0,0.4,0.6,0.9,1,1.2c0.3-0.2,0.6-0.2,1-0.2c-0.2,0.1-0.4,0.2-0.5,0.5c-0.6,0.3-0.6,1.5-1.4,1.4
						c0.1,0.2,0,0.4-0.1,0.5c0,0,0,0,0-0.1l-0.1,0.1c-0.3,0.1-0.6,0.2-0.7,0.5c-0.4,0.2-0.6,0.4-0.8,0.8c-0.2-0.2-0.4,0.2-0.4,0.3
						l0.2,0.1c-0.1,0.2-0.3,0.5-0.6,0.6c-0.6-0.1-0.8,0.5-1.2,1.1c0-0.1-0.1-0.1-0.1-0.2c0,0.1,0.1,0.1,0.1,0.2
						c-0.1,0.2-0.2,0.3-0.4,0.4c-0.1,0.3,0.3,0.9-0.2,1l0.2,0.1c0,0,0,0.1,0,0.1c-0.3,0.5-0.7,1.1-1,1.6c-0.2,0.1-0.3,0.3-0.4,0.5
						c0,0-0.2,0.2-0.2,0.1c-0.1,0.6-0.8,0.5-1,0.6c-0.2,0.4,0.4,0.5,0,0.8c-0.6,0-0.6,0.7-1.1,0.9c0.5,1-0.8,0.6-0.9,1.1
						c-0.2,0.1-0.2-0.2-0.3-0.3c-0.1,0.2,0.3,0.6,0.1,0.9c-0.1-0.1-0.4-0.2-0.6-0.3c-0.2,0.3-0.5,0.6-0.7,0.9
						c-0.8,0.8-1.4,2.2-2.6,2.8c0.1,0.1,0.1,0.2,0.2,0.3c-0.4,0.6-0.8,1.2-1.3,1.8c0.2,0,0.3,0,0.5-0.1c0,0,0,0,0,0
						c0,2.1-0.3,4.8,1.9,6.2c3.7-1.4,7.1-5.2,9.6-8.3c1.6-0.7,3.1-0.7,4.7,0c1.2,0.7,1.2,1.7,1.5,3.1c2.2,0.3,1.9,2.8,2.8,4.1
						c-0.4,1.6,0,3.8-0.5,5.6c-0.3,0-0.7,0-1,0l-0.1,0.3c-0.2,0-0.6,0-0.6,0.4c-0.1,0.3-0.4,0-0.7,0.1c-0.5-0.1-0.7,0.3-1.1,0.4
						c-0.2-0.1-0.4-0.1-0.7-0.1c-1.4,0.7-2.9,1.3-4.3,2c-0.8,0.4-1.7,0.7-2.5,1c-0.6-0.1-1.1-0.1-1.6,0.3c0,0.1-0.1,0.1-0.1,0.2
						c-0.4,0.1-0.8,0.1-1.2,0.1c-0.4,0.1-0.9,0-1.2,0.3c-0.3,0-0.6,0-0.7-0.3c-0.1,0.2-0.4,0.3-0.7,0.4c-0.1-0.3-0.5-0.3-0.3-0.5
						c-0.3,0.1-0.6,0.2-0.6,0.5c-0.5-0.3-0.9-0.1-1.4-0.2c-0.5,0.4-1,0-1.5,0.3c-0.1,0.1-0.3,0.1-0.3,0c-0.6,0.6-1.3,1.1-2.2,1.3
						c-0.7,0.1-1.5,0.1-2.1,0.5c-0.5,0.3-0.8,0.8-1.1,1.3l-0.7,1.2c0,0.1-0.1,0.2-0.1,0.2c0,0.1-0.1,0.2-0.1,0.2c0,0,0.1,0,0,0.1
						l-0.2,0.1c-0.1,0.1-0.1,0.2-0.2,0.3c0,0,0,0.1,0.1,0.1c-0.7,0.9-0.9,2.4-1.1,3.6c0.3,1.7,1.2,3.1,2.8,4.5
						c0.6,0.1,1.1,0.3,1.5,0.6c0.1,0.5,0.3,0.9,0.9,0.9c-0.6,1.8,1.7,1.7,1.5,3.4c0.4,0.4,0.8,0.6,1.3,0.8c0.4,0.7,0.9,1.3,1.5,1.8
						c0,0,0,0.1,0,0.1l0.2,0.1l-0.2,1c2.1,0,2.8,2.7,5.2,2.4c0.9,2,2.9,1.6,4.4,2.4c0.3-0.5,1-0.8,1.7-0.6c0.8,0.9,2.1-0.5,2.8-0.5
						c0.2-1,1.3-0.4,1.3-1.3c1.2,0,2.2-1,3-1.9c1.1-0.6,1.5-2.1,2.5-3.1l0.4,0.1c0.1-0.5,0-0.9,0.3-1.2l0.3,0.4
						c-0.1-0.5,0.1-1,0.2-1.4c0.6-0.8,1.1-1.7,1.5-2.5c0.6-0.6,0.6-1.9,1.5-2.2c-0.7-1.1,0.4-2.2,0.7-3.4c0.9-0.5,1.2-1.6,1.1-2.7
						c-0.6-0.9,1-1.1,0.5-1.9c0.2-0.2,0.5-0.3,0.8-0.2c-0.2-1,0.6-1.5,0.9-2.3c0.7,0,1.6,0.3,2.3-0.1c0.7-0.1,1.6-0.3,2.3-0.2
						c0.6,0,1.5-0.6,2.2-0.6l0,0.1c0.6,0.1,1.2-0.1,1.6-0.3c1,0.4,1.9-0.6,2.9,0c0.3-0.5,0.7,0,1.2-0.1c0.9-0.5,2.5-0.2,2.7-1.4
						c0.1,0.3,0.7,0.1,0.7,0.5c0.3,0,0.4-0.2,0.6-0.4l0.1,0.1c0.7-0.4,2.5,0.4,3.1-0.5l0.6,0.5c0.2-0.4,0.7-0.1,0.9-0.5
						c0.4,0.1,1.5-0.1,1.6,0.4l0.3-0.2c0.2-0.1,0.4-0.2,0.6-0.2c0,0.3,0,0.6,0,0.8c0.1,0.1,0.3,0.4,0.3,0.7c-0.9,0.3,0,1.3-0.4,1.8
						c0,0.8,0.6,2.2,0,2.9l0.5,0.7c0,0.6-0.2,0.7-0.6,1c-0.2,0.3-0.1,1,0,1.4c0.8,0.6-0.9,1.3,0.2,1.8c-0.2,0.8,0.5,1.7-0.1,2.2
						c-0.2-0.3,0-0.6-0.1-0.8c-0.3,0.6,0,1.4,0.1,2.1c0.2,0.1,0.3,0.2,0.3,0.4c0,0,0,0.1,0,0.1c-0.1,0.4-0.9,0.8-0.5,1.5
						c0.1,0.7,0,1,0.1,1.5c-0.1,0.3,0,0.6,0,0.8c-0.2,1.4-0.4,2.7-0.7,4c-1.9,3.3-1.4,6.9,0,10.3c-0.1,0.6-0.1,1.2-0.1,1.7
						c-1.2,0.2-2.3,0.5-3.5,0.7c0-0.2,0-0.3,0-0.5c0.1-0.7,0.3-1.4,0.2-2c-0.2-0.5-0.5-1-0.8-1.5c-0.1-0.1-0.1-0.1-0.2-0.2l-0.9-1
						c-0.1,0-0.1-0.1-0.1-0.2c-0.1-0.1-0.1-0.1-0.2-0.2c0,0-0.1,0.1-0.1,0l-0.1-0.2c-0.1-0.1-0.1-0.1-0.2-0.2
						c-0.3,0.3-0.5-0.1-0.6-0.2c-0.3,0.4-0.5-0.3-0.9-0.4c-0.1-0.7-0.6,0-0.9-0.5c-0.6-1-1.8-1.4-2.5-2.4c0.1-0.4-0.4-0.1-0.4-0.4
						c-0.6,0.1-0.9-0.1-1.4-0.3c-0.1-0.1-0.3-0.2-0.3-0.3c-0.2,0-0.3-0.2-0.5,0c-0.8-1-1.9-0.5-2.7-0.9c-0.4,1.1-0.8-0.2-1.3-0.2
						c-0.5,0.4-0.9,0.3-1.3,0.4c-0.3,0.4-0.9,0.3-0.9,1c0.3,0.7-0.4,1.1-0.5,1.6l0.2,0.1l-0.2,0.9c-0.1,0.5,0.5,0.7,0.1,1.3
						c0.6,0.4,1.3,0.4,1.9,0.8c-0.3,0.5,0.4,0.6,0.1,1.1c0.2,0.3,0.2,0.7,0.2,1.1c0,0,0,0,0,0.1c-0.1,0.4-0.1,0.8,0,1.1
						c0.1-0.1,0.1-0.2,0.2-0.2c-0.1,0.5,0.1,1.1,0,1.6c0.2,0.5-0.2,1,0.1,1.2c-0.3,0.9,0.6,1.7-0.1,2.6c0.3,0.1,0.1,0.5-0.1,0.7
						c-0.2,0.4,0.3,0.7,0.5,0.6l-0.1,0.2c-0.1,0-0.1,0-0.2,0.1c-0.1-0.1-0.2-0.1-0.3,0c0,0,0,0,0,0.1c-0.3,0.1-0.7,0.2-1,0.3
						c-4.6-1.3-9.4-1.8-14-1.6c-0.2,0.3-0.3,0.7-0.7,0.8l-0.7-0.7c-0.1,0-0.2,0-0.3,0c-0.1,0.4,0.3,0.6,0,1
						c-0.2,0.4-0.7,0.7-1.3,0.7c0.1,0.2,0.3,0.5,0,0.5c-0.8-0.2-1,0.9-1.8,0.7c-0.1,0.6-1,1.1-0.8,1.8c0,0-0.1,0.1-0.1,0.1
						c-0.4,0.2-0.5,0.5-0.6,0.9c-0.1,0.3-0.2,0.6-0.2,0.9c0,0.1-0.1,0.1-0.1,0.2c0,0.7-0.8,1.3-0.8,2c-0.5,0.3-0.2,1.2-1,1.4
						c0.4,1-0.3,1.9,0.2,2.9c-0.3,0.7-0.3,1.7,0.2,2.3c-0.1,0.5,0.5,0.2,0.9,0.5c0.7,0.2,0.3,0.7,0.8,1c0.2,0.1,0.4,0.3,0.6,0.4
						c0.5,1.4,2.1,1.8,3.4,2.3c0.2,0,0.4,0,0.6,0c0.3,0.3,0.6,0.6,1,0.3c0.8-0.5,1.1,0.8,1.7,0.8c0.4-0.5,0.9-0.3,1.1-0.8
						c0.2-0.2,0.4-0.4,0.6-0.5c0.5-0.1,0.9-0.2,1.3-0.4c1,0.8,2.1-0.6,3.1-0.6c1.2,1.1,2.6-0.8,3.7,0.8c0.3,0.4,0.2,1-0.2,1.3
						c-1.6,0.4-2.3,2.5-3.8,2.9c-1.9,2.3-4.2,4.4-6.3,6.3c-1.7,0.6-3,2.3-4.7,2.9c-0.5,0.4-0.5,1.1-1.2,1.3c-1.9-0.8-1.2,2.1-3,2.5
						c-1.9-0.4-2.6,1.7-4.2,1.9v1.7c-0.5,1.3-0.3,2.7-0.2,3.8c0,1.7,0.2,3.8,1.2,5.3c1.4,0.2,1.2,2.9,3,1.7c1,1.3,2.4,0.8,3.8,0.8
						c2.4-2.1,6.1-1.3,8.9-2.1c1-0.2,2.3,0,3.1-1c2.3,0.4,3.8-1.3,6.3-1.1c1.2-0.4,2.3,0.6,3.5-0.2c1.6,0,3-0.4,4.5-0.2
						c3-0.2,6.4-0.4,9.6-0.2c0.5-0.6,1.4-0.4,1.9,0c1.4-0.6,2.8,1,4,0c1.6,0.2,3.3-0.2,5,0c0.2-0.2,0.4-0.3,0.6-0.5
						c0.2,0.1,0.4,0.2,0.7,0.1c0.2-0.7,0.5,0.5,0.8,0.5c0.6-0.2,1.5-0.1,2,0.7c0.2,0.1,0.8,0.2,0.8-0.4l0.1,0.1
						c0.1,0.4,0.3,0.3,0.5,0.2c0.2-0.7,0.8,0.6,1-0.2c0.5-0.2,0.8-0.8,1.3-0.8c0.1-0.3,0.4-0.3,0.3-0.8c1-0.2,0-1.3,0.4-2.1
						c0.2-0.2,0.2,0.3,0.5,0.1c0-0.7,1.2-0.7,0.8-1.8c0.1,0.1,0.2,0.1,0.4,0c0.1-0.4-0.2-0.6-0.4-1c0.6-0.6-0.3-1.4,0.3-1.9
						c0.1-0.4-0.2-0.7-0.3-0.8l0.1,0c0.1-0.7-0.3-1.1-0.1-1.7c-0.3-0.8,0.4-1.3,0.3-2.1c-0.2-0.6-0.8-0.1-1-0.8
						c-0.1,0-0.3-0.1-0.4,0.2l-0.1-0.3c-0.3-0.1-0.4,0.2-0.6,0.3l-0.1-0.1c0,0-0.1-0.1,0-0.3l-0.1,0c-0.7,0.2-1-1.1-1.6-1.2
						c-0.8,0.5-0.6-1.3-1.1-1.5l-0.2,0.3c-0.5-0.8-1,0.7-1.2-0.6c-0.2-0.4-0.4,0-0.6,0.1c0-0.1-0.1-0.1-0.1-0.3
						c-0.1,0-0.4-0.3-0.4,0.2c0-0.9-0.5-0.1-0.6-0.8c-0.4-0.3-1-0.2-1.6-0.7c-0.3,0.2-0.5,0.5-0.6,0.8l-0.1-0.1
						c-0.4,0-0.6,0.2-0.8,0.5c-0.3-1.3-1.2-1.3-1.7-1.9c-0.7,1.4-1.6,0.9-2.6,0.5c-0.2,0.2-0.5,0.3-0.5,0.6
						c-0.2-0.1-0.5-0.1-0.7-0.4c-0.3,0.3-0.2,0.6-0.3,0.9l-0.4-0.3c-0.4,0.2-0.8,0.4-0.9,1.1c-0.5,0.2-0.7,0.9-1.2,0.7
						c-0.2-0.1-0.4,0-0.4,0.3c-0.2-0.6-0.6-0.2-0.9-0.5l-0.2,0.5c-0.1,0-0.1-0.3-0.2-0.1c0.2,0.7-0.5,0.6-0.6,1.1
						c-0.5-0.2-0.5-1.1-1-0.6c-0.3-0.3-0.6,0.2-0.8,0.4c-0.2-0.1-0.3-0.2-0.5-0.2c0.1-0.1,0.2-0.3,0.3-0.5c0-0.3,0.2-0.7-0.1-0.9
						c0.4-0.6-0.4-1.7,0.5-2.1c-1-0.9-0.1-2,0.2-2.8c0.1-1.4,0.5-2.8-0.5-3.8c0.2-0.4,0.3,0.3,0.6-0.1c-0.1-0.6-0.4-1.2-0.3-2.1
						l0.3,0.3c0.2-0.2,0.2-0.6,0.2-0.8c-0.2-0.2-0.2,0-0.5,0l-0.2-1.7c0.2-0.6,0.7-0.4,1-0.3c0-0.2,0-0.3-0.2-0.4
						c0.9-0.5,1.4-1.3,1.8-2.3c1.4-0.8,2.4-2.7,4-3.2c1-1.3,2.6-2.1,3.3-4c1.5-1.2,0.7-2.6,0.5-4.1c0,0,0,0.1,0.1,0.1
						c0.1-0.1,0.3-0.3,0.5-0.6c0.7,0.3,0.9,1.1,1.3,0.8c-0.2-0.5,0.5-0.3,0.6-0.6c0.3-0.2,0.7-0.2,0.7,0.1c0.1,0.3,0,0.4,0,0.4
						c0.1,0,0.2,0,0.3,0c0.3-0.3,0.6,0.1,0.7-0.3c0.1-0.1,0-0.5,0.4-0.6c0.3,0,0.2,0.4,0.2,0.5c0.5-0.2,1.2-0.7,1.6-0.8l1.1,1.2
						c0.3,0,0.5-0.5,0.2-0.8l-0.2-0.1c0.4-0.3,0-1.1,0.3-1.5c-0.6-0.1-0.3-0.6-0.8-0.8l0.1-0.4c0.3,0,0.2,0.5,0.4,0.2
						c0.5-0.6-0.5-1,0.1-1.5c0-0.1-0.4-0.1-0.6-0.1c0,0.1-0.1,0.1,0,0.2c-0.2-0.3-0.7-0.7-0.5-1.1l1-0.2c-0.6-0.6,0.6-1.4-0.2-2
						c0.7-0.5-0.1-1.2,0.3-1.7c-1.5-0.5,0.2-2.1-0.7-2.7c0.1-0.4,0.3-1,0.1-1.5c0.1-0.5-0.1-0.8,0-1.4c0.6-1-1.8-1.1-0.4-1.8
						c0.1-0.7,0.4-1.5,0-2c-0.1,0.3,0.2,0.5-0.1,0.8c-0.9-0.4,0-1.3-0.3-2.1c1.5-0.7-0.9-1.1,0.1-1.7c0.1-0.4,0.2-1.1-0.1-1.3
						c-0.6-0.2-0.9-0.3-0.9-0.8l0.6-0.7c-0.2-0.1-0.3-0.3-0.4-0.4c0,0,0,0,0,0c0,0,0,0,0,0c-0.2-0.7,0.2-1.7,0.1-2.3c0,0,0,0,0,0
						c0.1,0,0.2,0,0.3,0.1c0.1-0.4-0.2-0.5-0.4-0.6c0.1-0.5,0.3-1-0.5-1.1c0-0.3,0.2-0.6,0.4-0.7c-0.2-0.5,0.1-1.3-0.5-1.6
						c0,0.1,0,0.1-0.1,0.2c-0.4-0.6,0.7-0.3,0.3-1.2c0-0.3-0.4-0.1-0.6-0.2c-0.2-1.3,0.4-2.4,0.5-3.5l-0.4-0.2
						c0.1-0.3,0.2-0.8-0.3-1c0,0,0,0,0,0c0-0.1,0-0.2,0-0.3c0-0.2,0.2-0.5,0.1-0.7c0.3-0.6-0.2-1.1-0.1-1.7c0.1-0.3,0.3-0.6,0.4-0.9
						c-0.1-0.9-0.3-1.7-0.4-2.6l0.4,0.3c0.3-0.1,0.6-0.2,0.7-0.6l0.4,0.3l0.1-0.1c0.6-0.1,1.3-0.2,1.5-0.8c0.3,0.3,0.1,0.5,0.4,0.8
						c0.3-0.2,0.9-0.5,1-0.9c0.6,1,1.5-1,1.9,0.4c0.4-0.2,0.2-0.9,0.8-1c0.7-0.2,0.6,0.6,1.2,0.7c0,0.3-0.3,0.2-0.4,0.4
						c0,0.1,0,0.3,0.1,0.3c0.2-0.2,0.6-0.4,0.7-0.7l0.7,0.8c0.4,0,0.9-0.5,1.2,0c0.2-0.2-0.3-0.3-0.1-0.4l0.1,0
						c0.4-0.1,0.5-0.6,0.5-0.9c0.3-0.2,0.9,0.3,1.2,0.4c0.2-0.2,0.4-0.4,0.7-0.4c-0.4-0.4,0.2-0.9,0.3-1.1l0.4,0.3l0.9-0.9l-0.6-0.5
						c0.3-0.1,0.6-0.2,0.9,0c0.4-0.1,0.6-0.4,0.6-0.7c0.2-0.5-0.6-0.3-0.4-0.6c-0.1-0.3,0.1-0.2,0.3-0.4c-0.1-0.4,0-1.1-0.7-1.1
						c0.4-0.4,0.6-1,1.1-1.4C351.6,72.2,351.2,71.6,350.6,71.1z M285.4,96.1c-0.3,0.7-0.3,1-0.9,1.4c-1.6-1.4-2.5,1-4-0.7
						c-4-3.1,2.5-4.5,3.4-7.3c1.2-1,3.1-1.7,5-1l0.6,0.7C288.1,91.6,287.8,94.7,285.4,96.1z M325.6,81.5
						C325.6,81.4,325.6,81.4,325.6,81.5C325.6,81.4,325.6,81.4,325.6,81.5C325.6,81.4,325.6,81.5,325.6,81.5z M309.4,157.3
						c-1,0-2.1,1.1-3.1,0.4c-1.2,1-3,0.2-4,1.5c-1.2-0.2-2.4,0.2-3.7,0c-0.9-0.6-1.2-1.5-0.9-2.7c1.2-0.6,3-1.1,3.5-3
						c1.9,0,2.1-3,4-2.9c1.6-0.6,2.1-2.3,3.5-3.2c0.7,0,1.2,0.4,1.4,1c0.5,1.3,0.5,3,0,4.4C310.1,154.4,310.6,156,309.4,157.3z"/>
				</g>
			</g>
		</g>
	</g>
</g>
</svg>
