<?xml version="1.0" encoding="utf-8"?>
<!-- Generator: Adobe Illustrator 22.0.1, SVG Export Plug-In . SVG Version: 6.00 Build 0)  -->
<svg version="1.1" id="圖層_1" xmlns="http://www.w3.org/2000/svg" xmlns:xlink="http://www.w3.org/1999/xlink" x="0px" y="0px"
	 viewBox="0 0 19.9 36.7" style="enable-background:new 0 0 19.9 36.7;" xml:space="preserve">
<style type="text/css">
	.st0{opacity:0.2;}
	.st1{fill:#FFFFFF;}
</style>
<g>
	<g class="st0">
		<path d="M5.8,18.8L17.9,34c0.4,0.5,0.2,1.2-0.4,1.4l0,0c-0.4,0.1-0.7,0-1-0.3l-13-16.3c-0.3-0.3-0.3-0.8,0-1.1l13-16.1
			c0.2-0.3,0.7-0.4,1-0.3l0,0c0.5,0.2,0.7,0.9,0.4,1.4L5.8,17.6C5.6,18,5.6,18.4,5.8,18.8z"/>
	</g>
	<g>
		<path class="st1" d="M4.3,18.8L16.4,34c0.4,0.5,0.2,1.2-0.4,1.4l0,0c-0.4,0.1-0.7,0-1-0.3L2,18.8c-0.3-0.3-0.3-0.8,0-1.1L15,1.6
			c0.2-0.3,0.7-0.4,1-0.3l0,0c0.5,0.2,0.7,0.9,0.4,1.4L4.3,17.6C4.1,18,4.1,18.4,4.3,18.8z"/>
	</g>
</g>
</svg>
