<?xml version="1.0" encoding="utf-8"?>
<!-- Generator: Adobe Illustrator 22.0.1, SVG Export Plug-In . SVG Version: 6.00 Build 0)  -->
<svg version="1.1" id="圖層_1" xmlns="http://www.w3.org/2000/svg" xmlns:xlink="http://www.w3.org/1999/xlink" x="0px" y="0px"
	 viewBox="0 0 19.9 36.7" style="enable-background:new 0 0 19.9 36.7;" xml:space="preserve">
<style type="text/css">
	.st0{opacity:0.2;}
	.st1{fill:#FFFFFF;}
</style>
<g>
	<g class="st0">
		<path d="M14.1,17.9L2,2.7C1.6,2.2,1.8,1.5,2.4,1.3l0,0c0.4-0.1,0.7,0,1,0.3l13,16.3c0.3,0.3,0.3,0.8,0,1.1l-13,16.1
			c-0.2,0.3-0.7,0.4-1,0.3l0,0C1.9,35.2,1.7,34.5,2,34l12.1-14.9C14.3,18.7,14.3,18.3,14.1,17.9z"/>
	</g>
	<g>
		<path class="st1" d="M15.6,17.9L3.5,2.7C3.1,2.2,3.3,1.5,3.9,1.3l0,0c0.4-0.1,0.7,0,1,0.3l13,16.3c0.3,0.3,0.3,0.8,0,1.1l-13,16.1
			c-0.2,0.3-0.7,0.4-1,0.3l0,0c-0.5-0.2-0.7-0.9-0.4-1.4l12.1-14.9C15.8,18.7,15.8,18.3,15.6,17.9z"/>
	</g>
</g>
</svg>
