<?xml version="1.0" encoding="utf-8"?>
<!-- Generator: Adobe Illustrator 22.0.1, SVG Export Plug-In . SVG Version: 6.00 Build 0)  -->
<svg version="1.1" id="圖層_1" xmlns="http://www.w3.org/2000/svg" xmlns:xlink="http://www.w3.org/1999/xlink" x="0px" y="0px"
	 viewBox="0 0 482.7 187" style="enable-background:new 0 0 482.7 187;" xml:space="preserve">
<style type="text/css">
	.st0{fill:#DEBD98;}
</style>
<g>
	<g>
		<path class="st0" d="M127,172.5c0,0.4,0,0.8-0.1,1.1c-0.1,0.3-0.2,0.5-0.3,0.7c-0.2,0.3-0.4,0.5-0.8,0.7c-0.4,0.2-0.8,0.4-1.4,0.6
			l-0.3-0.7c0.3-0.1,0.4-0.2,0.6-0.3c0.1-0.1,0.2-0.2,0.3-0.3c0.1-0.1,0.1-0.3,0.1-0.4c0-0.2,0-0.4,0-0.7v-6.7c0-0.2,0-0.4,0-0.5
			c0-0.1,0-0.2-0.1-0.3c0-0.1-0.1-0.1-0.2-0.2c-0.1,0-0.2-0.1-0.4-0.1v-0.4h3.2v0.4c-0.2,0-0.3,0.1-0.4,0.1
			c-0.1,0.1-0.1,0.1-0.2,0.2c0,0.1-0.1,0.2-0.1,0.3c0,0.1,0,0.3,0,0.5V172.5z"/>
		<path class="st0" d="M135.8,170.6h-2.6l-0.2,0.6c-0.1,0.2-0.1,0.3-0.1,0.5c0,0.1,0,0.3,0,0.5c0,0.4,0.2,0.6,0.6,0.6v0.4h-2.6v-0.4
			c0.2,0,0.3-0.1,0.4-0.2c0.1-0.1,0.2-0.2,0.3-0.4c0.1-0.1,0.2-0.4,0.3-0.7l2.6-6.8h1.6l2,6.9c0.1,0.3,0.2,0.5,0.2,0.7
			c0.1,0.1,0.1,0.2,0.2,0.3c0.1,0.1,0.2,0.1,0.4,0.2v0.4h-3.4v-0.4c0.2,0,0.4-0.1,0.5-0.2c0.1-0.1,0.2-0.2,0.2-0.4
			c0-0.1,0-0.3,0-0.4c0-0.2-0.1-0.3-0.1-0.6L135.8,170.6z M133.5,169.9h2.2l-1-3.4L133.5,169.9z"/>
		<path class="st0" d="M146,164.8c0.7,0,1.3,0.1,1.7,0.2c0.5,0.1,0.9,0.3,1.2,0.5c0.4,0.2,0.6,0.5,0.9,0.8c0.2,0.3,0.4,0.7,0.5,1.1
			c0.1,0.4,0.2,0.9,0.2,1.4c0,0.6-0.1,1.2-0.2,1.7c-0.1,0.5-0.4,0.9-0.7,1.3c-0.3,0.3-0.6,0.6-1,0.8c-0.4,0.2-0.8,0.4-1.3,0.4
			c-0.4,0.1-1,0.1-1.6,0.1h-2.8v-0.4c0.2,0,0.3-0.1,0.4-0.1c0.1-0.1,0.2-0.1,0.2-0.2c0-0.1,0.1-0.2,0.1-0.3c0-0.1,0-0.3,0-0.5v-5.3
			c0-0.2,0-0.4,0-0.5c0-0.1,0-0.2-0.1-0.3c0-0.1-0.1-0.1-0.2-0.2c-0.1,0-0.2-0.1-0.4-0.1v-0.4H146z M145.3,172.4c0.1,0,0.3,0,0.6,0
			c0.5,0,0.8-0.1,1.1-0.2c0.2-0.1,0.4-0.2,0.6-0.4c0.3-0.3,0.5-0.6,0.6-1.1c0.2-0.5,0.2-1.1,0.2-1.8c0-0.8-0.1-1.4-0.3-1.9
			c-0.2-0.5-0.5-0.9-0.9-1.1c-0.4-0.2-0.8-0.4-1.4-0.4c-0.3,0-0.4,0-0.5,0V172.4z"/>
		<path class="st0" d="M160.8,164.8v2H160c-0.1-0.4-0.2-0.7-0.3-0.8c-0.1-0.1-0.2-0.2-0.3-0.3c-0.1-0.1-0.4-0.1-0.7-0.1h-1.3v2.9
			h0.8c0.2,0,0.3,0,0.4-0.1c0.1-0.1,0.2-0.1,0.3-0.3c0.1-0.1,0.1-0.3,0.2-0.6h0.7v2.5H159c-0.1-0.2-0.1-0.4-0.2-0.5
			c-0.1-0.1-0.2-0.2-0.2-0.3c-0.1-0.1-0.2-0.1-0.4-0.1h-0.8v3.3h1.3c0.1,0,0.3,0,0.4,0c0.1,0,0.2-0.1,0.3-0.1
			c0.1-0.1,0.2-0.1,0.2-0.2c0.1-0.1,0.1-0.2,0.2-0.3c0.1-0.1,0.1-0.2,0.2-0.4c0.1-0.1,0.1-0.4,0.2-0.6h0.8l-0.1,2.2h-6v-0.4
			c0.1,0,0.3-0.1,0.4-0.1c0.1-0.1,0.1-0.1,0.2-0.2c0-0.1,0.1-0.2,0.1-0.3c0-0.1,0-0.3,0-0.5v-5.3c0-0.2,0-0.4,0-0.5
			c0-0.1,0-0.2-0.1-0.3c0-0.1-0.1-0.1-0.2-0.2c-0.1,0-0.2-0.1-0.4-0.1v-0.4H160.8z"/>
		<path class="st0" d="M174.2,173.2H171v-0.4c0.2,0,0.3-0.1,0.4-0.1c0.1-0.1,0.2-0.1,0.2-0.2c0-0.1,0.1-0.2,0.1-0.3
			c0-0.1,0-0.3,0-0.5v-5.3c0-0.2,0-0.4,0-0.5c0-0.1,0-0.2-0.1-0.3c0-0.1-0.1-0.1-0.2-0.2c-0.1,0-0.2-0.1-0.4-0.1v-0.4h3.6
			c0.5,0,0.9,0,1.2,0.1c0.3,0.1,0.6,0.2,0.9,0.3c0.2,0.1,0.4,0.3,0.5,0.4c0.1,0.2,0.3,0.4,0.3,0.6c0.1,0.2,0.1,0.5,0.1,0.8
			c0,0.4-0.1,0.7-0.2,1c-0.1,0.3-0.3,0.5-0.6,0.7c-0.2,0.2-0.6,0.4-1,0.5v0.1c0.3,0.1,0.6,0.3,0.8,0.5c0.2,0.2,0.4,0.5,0.5,0.8
			l0.4,0.8c0.2,0.4,0.3,0.6,0.5,0.8c0.2,0.2,0.4,0.3,0.6,0.3v0.4h-2.4c-0.2-0.3-0.5-0.8-0.8-1.5l-0.5-1c-0.1-0.3-0.3-0.5-0.4-0.7
			c-0.1-0.1-0.2-0.2-0.3-0.3c-0.1,0-0.3-0.1-0.5-0.1h-0.4v2c0,0.3,0,0.5,0,0.6c0,0.1,0.1,0.2,0.2,0.3c0.1,0.1,0.2,0.1,0.5,0.2V173.2
			z M173.6,165.6v3.4h0.6c0.3,0,0.6,0,0.8-0.1c0.2-0.1,0.4-0.2,0.5-0.4c0.1-0.1,0.2-0.3,0.3-0.5c0-0.2,0.1-0.5,0.1-0.7
			c0-0.6-0.1-1-0.4-1.2c-0.3-0.3-0.7-0.4-1.2-0.4C173.9,165.5,173.7,165.5,173.6,165.6z"/>
		<path class="st0" d="M188.5,164.8v2h-0.8c-0.1-0.4-0.3-0.7-0.3-0.8c-0.1-0.1-0.2-0.2-0.3-0.3c-0.1-0.1-0.4-0.1-0.7-0.1H185v2.9
			h0.8c0.2,0,0.3,0,0.4-0.1c0.1-0.1,0.2-0.1,0.3-0.3c0.1-0.1,0.1-0.3,0.2-0.6h0.7v2.5h-0.7c-0.1-0.2-0.1-0.4-0.2-0.5
			c-0.1-0.1-0.2-0.2-0.2-0.3c-0.1-0.1-0.2-0.1-0.4-0.1H185v3.3h1.3c0.1,0,0.3,0,0.4,0c0.1,0,0.2-0.1,0.3-0.1
			c0.1-0.1,0.2-0.1,0.2-0.2c0.1-0.1,0.1-0.2,0.2-0.3c0.1-0.1,0.1-0.2,0.2-0.4c0.1-0.1,0.1-0.4,0.2-0.6h0.8l-0.1,2.2h-6v-0.4
			c0.1,0,0.3-0.1,0.4-0.1c0.1-0.1,0.2-0.1,0.2-0.2c0-0.1,0.1-0.2,0.1-0.3c0-0.1,0-0.3,0-0.5v-5.3c0-0.2,0-0.4,0-0.5
			c0-0.1,0-0.2-0.1-0.3c0-0.1-0.1-0.1-0.2-0.2c-0.1,0-0.2-0.1-0.4-0.1v-0.4H188.5z"/>
		<path class="st0" d="M193.6,171.1c0.1,0.5,0.3,0.8,0.5,1.1c0.2,0.2,0.6,0.4,1,0.4c0.2,0,0.5,0,0.6-0.1s0.3-0.2,0.5-0.4
			c0.1-0.2,0.2-0.4,0.2-0.7c0-0.3,0-0.5-0.1-0.7c-0.1-0.2-0.2-0.4-0.4-0.5c-0.2-0.2-0.5-0.3-0.9-0.5c-0.3-0.2-0.6-0.3-0.9-0.5
			c-0.3-0.2-0.5-0.4-0.7-0.6c-0.2-0.2-0.3-0.4-0.4-0.7c-0.1-0.3-0.2-0.5-0.2-0.8c0-0.5,0.1-0.9,0.4-1.3c0.2-0.3,0.6-0.6,1.1-0.8
			c0.5-0.2,1-0.3,1.6-0.3c0.4,0,0.7,0,1,0.1c0.3,0,0.7,0.1,1.1,0.2v1.8h-0.8c-0.1-0.3-0.2-0.6-0.3-0.8c-0.1-0.2-0.3-0.3-0.4-0.4
			c-0.2-0.1-0.4-0.1-0.7-0.1c-0.2,0-0.4,0-0.6,0.1c-0.2,0.1-0.3,0.2-0.4,0.4c-0.1,0.2-0.2,0.4-0.2,0.6c0,0.2,0,0.4,0.1,0.6
			c0.1,0.2,0.3,0.3,0.5,0.5c0.2,0.2,0.5,0.4,0.9,0.6c0.5,0.3,0.9,0.5,1.2,0.8c0.3,0.2,0.5,0.5,0.6,0.8c0.1,0.3,0.2,0.6,0.2,1
			c0,0.5-0.1,0.9-0.3,1.3c-0.2,0.4-0.6,0.7-1,0.9c-0.4,0.2-1,0.3-1.5,0.3c-0.4,0-0.9,0-1.3-0.1c-0.4,0-0.9-0.1-1.3-0.2v-1.9H193.6z"
			/>
		<path class="st0" d="M205,171.6c0,0.1,0,0.3,0,0.4c0,0.1,0,0.2,0.1,0.3c0,0.1,0.1,0.1,0.1,0.2c0,0,0.1,0.1,0.2,0.1
			c0.1,0,0.2,0.1,0.3,0.1v0.4h-3.2v-0.4c0.2,0,0.3-0.1,0.4-0.1c0.1-0.1,0.2-0.1,0.2-0.2c0-0.1,0.1-0.2,0.1-0.3c0-0.1,0-0.3,0-0.5
			v-5.3c0-0.2,0-0.4,0-0.5c0-0.1,0-0.2-0.1-0.3c0-0.1-0.1-0.2-0.2-0.2c-0.1-0.1-0.2-0.1-0.4-0.1v-0.4h3.2v0.4
			c-0.2,0-0.3,0.1-0.4,0.1c-0.1,0-0.1,0.1-0.2,0.2c0,0.1-0.1,0.2-0.1,0.3c0,0.1,0,0.3,0,0.5V171.6z"/>
		<path class="st0" d="M213.1,164.8c0.7,0,1.3,0.1,1.7,0.2c0.5,0.1,0.9,0.3,1.2,0.5c0.4,0.2,0.6,0.5,0.9,0.8
			c0.2,0.3,0.4,0.7,0.5,1.1c0.1,0.4,0.2,0.9,0.2,1.4c0,0.6-0.1,1.2-0.2,1.7c-0.1,0.5-0.4,0.9-0.7,1.3c-0.3,0.3-0.6,0.6-1,0.8
			c-0.4,0.2-0.8,0.4-1.3,0.4c-0.4,0.1-1,0.1-1.6,0.1h-2.8v-0.4c0.1,0,0.3-0.1,0.4-0.1c0.1-0.1,0.1-0.1,0.2-0.2
			c0-0.1,0.1-0.2,0.1-0.3c0-0.1,0-0.3,0-0.5v-5.3c0-0.2,0-0.4,0-0.5c0-0.1,0-0.2-0.1-0.3c0-0.1-0.1-0.1-0.2-0.2
			c-0.1,0-0.2-0.1-0.4-0.1v-0.4H213.1z M212.5,172.4c0.1,0,0.3,0,0.6,0c0.4,0,0.8-0.1,1.1-0.2c0.2-0.1,0.4-0.2,0.6-0.4
			c0.3-0.3,0.5-0.6,0.6-1.1c0.1-0.5,0.2-1.1,0.2-1.8c0-0.8-0.1-1.4-0.3-1.9c-0.2-0.5-0.5-0.9-0.9-1.1c-0.4-0.2-0.8-0.4-1.4-0.4
			c-0.3,0-0.4,0-0.5,0V172.4z"/>
		<path class="st0" d="M228,164.8v2h-0.8c-0.1-0.4-0.3-0.7-0.3-0.8c-0.1-0.1-0.2-0.2-0.3-0.3c-0.1-0.1-0.4-0.1-0.7-0.1h-1.3v2.9h0.8
			c0.2,0,0.3,0,0.4-0.1c0.1-0.1,0.2-0.1,0.3-0.3c0.1-0.1,0.1-0.3,0.2-0.6h0.7v2.5h-0.7c-0.1-0.2-0.1-0.4-0.2-0.5
			c-0.1-0.1-0.2-0.2-0.3-0.3c-0.1-0.1-0.2-0.1-0.4-0.1h-0.8v3.3h1.3c0.1,0,0.3,0,0.4,0c0.1,0,0.2-0.1,0.3-0.1
			c0.1-0.1,0.2-0.1,0.2-0.2c0.1-0.1,0.1-0.2,0.2-0.3c0.1-0.1,0.1-0.2,0.2-0.4c0.1-0.1,0.1-0.4,0.2-0.6h0.8l-0.1,2.2h-6v-0.4
			c0.2,0,0.3-0.1,0.4-0.1c0.1-0.1,0.2-0.1,0.2-0.2c0-0.1,0.1-0.2,0.1-0.3c0-0.1,0-0.3,0-0.5v-5.3c0-0.2,0-0.4,0-0.5
			c0-0.1,0-0.2-0.1-0.3c0-0.1-0.1-0.1-0.2-0.2c-0.1,0-0.2-0.1-0.4-0.1v-0.4H228z"/>
		<path class="st0" d="M239.7,164.8v0.4c-0.2,0.1-0.3,0.1-0.3,0.1c-0.1,0-0.1,0.1-0.2,0.1c0,0.1-0.1,0.1-0.1,0.3c0,0.1,0,0.3,0,0.6
			v6.8h-1.6l-2.8-4.8c-0.4-0.6-0.6-1.1-0.8-1.5h0c0,0.9,0.1,1.8,0.1,2.8v2c0,0.3,0,0.5,0,0.6c0,0.1,0.1,0.2,0.2,0.3
			c0.1,0.1,0.2,0.1,0.4,0.2v0.4h-2.3v-0.4c0.2,0,0.3-0.1,0.4-0.1c0.1-0.1,0.2-0.1,0.2-0.2c0-0.1,0.1-0.2,0.1-0.3c0-0.1,0-0.3,0-0.5
			v-5.3c0-0.3,0-0.5,0-0.6c0-0.1-0.1-0.2-0.2-0.3c-0.1-0.1-0.2-0.1-0.5-0.2v-0.4h2.5l2.2,3.8c0.1,0.2,0.3,0.6,0.5,1
			c0.2,0.4,0.4,0.8,0.6,1.2h0.1c-0.1-1-0.1-2-0.1-3.2v-1.1c0-0.3,0-0.5,0-0.6c0-0.1-0.1-0.2-0.1-0.3c0-0.1-0.1-0.1-0.2-0.1
			c-0.1,0-0.2-0.1-0.4-0.1v-0.4H239.7z"/>
		<path class="st0" d="M250,165v1.8h-0.8c-0.1-0.5-0.3-0.8-0.5-1c-0.2-0.2-0.5-0.3-0.8-0.3c-0.6,0-1.1,0.3-1.5,0.9
			c-0.3,0.6-0.5,1.5-0.5,2.8c0,1.1,0.2,2,0.5,2.6c0.3,0.6,0.7,0.9,1.3,0.9c0.3,0,0.5-0.1,0.7-0.2c0.2-0.1,0.3-0.2,0.5-0.4
			c0.1-0.2,0.2-0.5,0.3-0.8h0.8v1.9c-0.5,0.1-0.9,0.2-1.2,0.2c-0.4,0-0.8,0.1-1.2,0.1c-0.8,0-1.5-0.2-2.1-0.5
			c-0.5-0.3-0.9-0.8-1.2-1.4c-0.3-0.6-0.4-1.4-0.4-2.3c0-0.9,0.1-1.7,0.5-2.3c0.3-0.7,0.7-1.2,1.3-1.5c0.6-0.3,1.3-0.5,2.1-0.5
			c0.4,0,0.8,0,1.1,0.1C249.3,164.8,249.6,164.9,250,165z"/>
		<path class="st0" d="M260.3,164.8v2h-0.8c-0.1-0.4-0.2-0.7-0.3-0.8c-0.1-0.1-0.2-0.2-0.3-0.3c-0.1-0.1-0.4-0.1-0.7-0.1h-1.3v2.9
			h0.8c0.2,0,0.3,0,0.4-0.1c0.1-0.1,0.2-0.1,0.3-0.3c0.1-0.1,0.1-0.3,0.2-0.6h0.7v2.5h-0.7c-0.1-0.2-0.1-0.4-0.2-0.5
			c-0.1-0.1-0.1-0.2-0.2-0.3c-0.1-0.1-0.2-0.1-0.4-0.1h-0.8v3.3h1.3c0.1,0,0.3,0,0.4,0c0.1,0,0.2-0.1,0.3-0.1
			c0.1-0.1,0.2-0.1,0.2-0.2c0.1-0.1,0.1-0.2,0.2-0.3c0.1-0.1,0.1-0.2,0.2-0.4c0.1-0.1,0.1-0.4,0.2-0.6h0.8l-0.1,2.2h-6v-0.4
			c0.1,0,0.3-0.1,0.4-0.1c0.1-0.1,0.2-0.1,0.2-0.2c0-0.1,0.1-0.2,0.1-0.3c0-0.1,0-0.3,0-0.5v-5.3c0-0.2,0-0.4,0-0.5
			c0-0.1,0-0.2-0.1-0.3c0-0.1-0.1-0.1-0.2-0.2c-0.1,0-0.2-0.1-0.4-0.1v-0.4H260.3z"/>
	</g>
	<g>
		<g>
			<g>
				<g>
					<path class="st0" d="M49.3,49.2c-0.3,0.3-0.8,0.4-0.6,0.9c-0.8-0.1-0.5,1-1.3,1c-0.2,0.5,0.5,0.8,0.3,1.2
						c-0.5,0.2-0.6,0.5-1.1,0.5c-0.3,0.3,0.3,0.8-0.3,0.8L46,54.3c0.5,0.9-0.5,1.2-0.2,1.9c-1.1,0.8,1,1.3-0.2,2.1
						c0.8,0.6-0.5,0.5,0,1c1.1,0.3,0.3,1.8,1.6,2.2c0.3-0.4,0.8,0,1.1-0.1c0.5-0.6,1.9,0.8,2.1-0.6h0.2c0.3,0,0.5,0.5,0.6,0.2
						c0.2-0.3,0.5-1.1,0-1.2c0.6-0.3,1.5-0.9,2.3-0.7c0.3-0.3,0.3-1,0.2-1.5h0.5c0.5-0.4,1.5-1,1-1.8c0.8-1.2,1.1-2.4,2.1-3.6
						c0.3-0.6,0.8-1.3,1.5-1.6c0.3-1.1,1.8-1.1,2.4-1.8c0.6-0.1,0.6-0.3,1.1-0.7c-0.2-0.7,0.6-0.6,1-1.2c0-1.3,1.5,0.5,1.8-1
						l0.2,0.1c1-0.1,1.8-0.4,2.9-0.4c0.8,0,1.5,0.1,2.1-0.2c0.3,0.2,0.6-0.7,1.1-0.3c0,0.5,0.5,0.8,0.6,1.1c0.2-0.3,0.5-0.5,0.8-0.5
						c0-0.5,0.6-0.6,0.5-1.2c1,0.6,2.3,0.6,3.1,1.3c1.3-0.1,2.4,0.4,3.9,0.3c1-0.6,2.1,0.7,2.7-0.2c0.8,0.2,1.3-0.6,2.1-0.6
						c0.5,0.5,1.1-0.3,1.6-0.5c0.5-0.7-0.6-1.5,0-2.2c1-0.1,0.5-0.9,1-1.4c0-0.4-0.3-0.7-0.5-1c1.1-0.9-0.6-1.3-0.3-2.2
						c-0.3-0.3-0.6-0.8-1.1-0.6c-0.8-0.7-2.1-0.9-3.1-0.7c-0.3-0.2-0.6-0.3-0.8-0.2c-0.2,0.2-0.3-0.1-0.5-0.1
						c-0.8,0.7-2.3,0-3.2,0.7c-0.5,0.3-1,0.3-1.5,0.2c-0.3-1.1-0.8,0.6-1.3-0.3c-0.5,0.8-0.8-0.2-1.6,0.1c-0.5,1.1-1.8,0.2-2.4,0.9
						c0,0.4-0.3,0.3-0.6,0.3c-0.2,0.1-0.6,0.1-0.6,0.6c-0.5-0.5-1.1,0-1.6-0.2c-1,0.3-0.3-0.9-1-1c0-0.5,0.3-0.8,0.8-1
						c0.2-0.3-0.2-0.3-0.3-0.5c-0.2-0.3,0.3-0.4,0.3-0.7c0.3,0.3,0.2,0.7,0.6,0.9l0.2-0.2L68.7,36c0-0.9,1-0.1,1.3-0.9
						c0-1.1,1.5-1.5,1.5-2.5c0.6-0.6,1-1.8,1.3-2.5l-0.3,0.1c-0.6-0.6,0.5-0.9,0.5-1.6c0-0.3,0.5-0.6,0.6-0.3c0.2-0.6,1.3-0.6,1-1.4
						c0.8-0.6,0.3-1.9,1.3-2.5c-0.8-0.7,1-0.6,0.3-1.5c0.8-0.6-0.6-1.8,1-2.1c0.2-0.3,0.2-0.9-0.5-1c0.8-0.3,0.5-1,0.8-1.5
						c0-0.3,0.5-1-0.3-1.2c0.2-0.4,0.6-0.7,0.2-1.2c0.5-0.8,0.3-1.5,0-2.3c-0.6-0.3-0.6-1-0.8-1.5c-0.6-0.2-0.5-1-1.1-1.2
						c0.2-0.1,0.3-0.5,0.2-0.6H75c-0.3-0.4-1.1-0.3-1.5-0.9c-0.2-0.9-1.6,0-1.6-1.2c-0.2-0.1-0.3,0-0.5,0.2
						c-0.3-0.5-1.1-0.2-1.3-0.7c-0.6,0.3-1.1-0.6-1.6,0.1c-0.5-0.5-1-0.1-1.5-0.5c0,0.1,0,0.1,0,0.3h-1c-1.6-1-3.1,0.7-4.7,0.6
						c-0.3,0.4-0.6,0.3-1.1,0.3L60.1,9c0.2,0,0.3-0.1,0.3-0.3c0.5,0,1.1,0,1.5,0.3c0.5-0.3,1.1-0.1,1.5-0.1c0.3,0.9,1.1,0.1,1.6,0.9
						c0.6,0.7,0.6,1.8,0.6,2.7c-0.3,1.5-1.5,3.4-0.5,4.6c0,0.3-0.2,0.7-0.6,0.6l0.3,0.3c0.2,0,0,0.1,0,0.3c-1.5,0.6,0.3,2.1-0.8,2.8
						c-0.3,0.4,0,1-0.2,1.3c-1.1,0.5-1.5,1.3-1.5,2.2c-0.3,0.3-0.3,0.9-1,0.9c0.5,0.5-0.5,0.5-0.2,1c-1.1,0.4-0.3,1.7-1.5,2.2
						c-0.5,0.3,0.3,0.9-0.6,0.9c0.3,0.7-0.8,1.3-1,1.9c0.3,0.3,0.2,0.9,0,1.3c-0.3,0.8-1,1.4-0.8,2.2c-1,0-0.2,1-0.6,1.3
						c-0.3,0.3,0.2,1.5-0.8,1.2c-0.2,0.9-1.9,1.2-0.8,2.1c0.5,1.4-1.6,0.6-1.1,2c1.1,0.6-0.8,1.2-0.6,1.9c-1.1,0.5-1.1,1.8-1.5,2.5
						c-0.5,0.1-0.8,0.3-1.3,0.1C50.1,47.4,50.7,49.2,49.3,49.2z M57,8.9c-0.1,0-0.1,0-0.3,0V9h0.1C56.8,9,57,9,57,8.9z M57.6,8.7
						h-0.1v0.2h0.1V8.7z M5.9,52.2c0,0.8,0.8,0.3,1,0.8c1.1-0.2,1.5,1.3,2.6,0.9c0.8-0.1,1.8,0.3,2.6-0.3c0.3-0.5,0.7,0.3,1,0.2
						c0.6-0.5,1.6,0,2.3-0.3c0.8-0.3,1.6,0.6,2.1-0.5c0.3,0,0.7,0.1,1,0.1c0.7-0.5,1.5-0.6,2.4-0.9c0.3-0.8,1.3,0,1.5-0.9
						c0.5-0.1,0.8-0.4,1.5-0.3c0.5-0.7,1.5-0.7,2.3-0.9c0.7-0.5,1.5-1,2.3-0.9c0.3-0.5,1-0.6,0.8-1.2c1.3,0.3,1.3-1.5,2.6-1.2
						c0.2-0.7,1.1-0.3,1.5-1c0.8,0.1,0.8-0.5,1.3-0.8l0.7,0.6c0.7,0.1,1.1,1,1.8,0.3c0-0.7,0.8,0,1-0.6c0.8,0.2,1.8-0.1,2.3-0.9
						c0.7-0.3,1.1-1.2,1.8-0.8c0.2-0.3,0.3-0.9,0.5-1.3c1.5-0.6,2.1-1.9,3.6-2.5c1.5,0.7,1.3-1.5,2.6-1.4c0-0.6,1-0.9,0.8-1.7
						c0.7-0.4,0.5-1.5,0.3-2.1c-0.5-0.3-0.8-0.7-1.3-0.9l0.2-0.6c-1.1,0-1.8-0.6-2.6-1.3c-0.6,0.1-1.8-0.2-2.4-0.6
						c-1.6,0.2-2-1.5-2.8-2.4c-1,0,0-1-0.8-1.5c-0.6-0.2-0.6-1-1.1-1.3c0.2-0.9-1-0.6-1.1-1.2c-0.8,0.1-1.3-0.9-1.6-1.2
						c-1.6-0.2-1.6-1.3-2.9-2.1c-0.6,0.6-1.5,0-2,0.2c-0.8,0.8-1.5-1-2.6-0.6c-1.3-0.3-2.6,0-3.6-0.9l-0.3,0.6c-0.2,0-0.3,0-0.5-0.1
						c-0.5,0.6-1.1,0.6-1.8,1c-0.5-0.4-0.8,0.3-1.1,0.5c-0.3,0.7-0.3,1.6,0.3,2.2c0.6,0.9-1.1,1.4,0,2.1c-0.5,0.9,0.3,1.6,0.6,2.4
						c-0.5,0.6,0.8,1,0.3,1.8c0.5,0.2,0.2,0.6,0.7,0.6c0,0.5,0.8,0.5,0.5,0.9c0.3,0.5,0.3,0.9,0.8,1c0,0.5,1,0.9,0.5,1.5
						c0.3,0.5,0.5,1.5,0.5,2.1h0.5c0,0.3-0.2,0.3-0.2,0.6c0.5,0.3,0.5,0.8,0.8,1.3c-0.2,0.3,0.3,0.8-0.2,0.9
						c-0.2,0.5,0.2,0.5,0.5,0.6c-0.3,0.5,0.5,0.9,0,1.5c-0.8,0.6-1.8,1.4-2.6,1.5c-0.5,0.2-1,0.2-1.1,0.8c-1.6,0-2.1,1.5-3.6,1.9
						c-1-0.3-1,1.5-1.8,0.5c-0.3,0-0.2,0.6-0.5,0.5c-1.5,0.5-2.8,1-4.2,1.4c-0.5,0.9-1.8,0.3-2.3,1c-1.5,0.1-2.9,1.2-4.2,0.3
						c-0.8,0.8-1.6-1.2-2.6-0.1c0.2,0.6,0.2,1.2,0.7,1.6C4.8,51.6,5.4,52,5.9,52.2z M51.5,69.9c0.8,0,0.8-1,1.6-1
						c0.6-0.9,0.9-1.9,1.6-2.7l-1.9-1.3c0.2-0.5-0.5-0.3-0.8-0.3c-0.8-0.9-1.7-1.8-3-1.8c-0.5-0.7-1.4-0.6-2-1
						c-0.8,0.3-0.8-0.7-1.6-0.6c-0.8,0.8-1.6-0.6-2.5-0.3c-0.5-1-1.3,0-2-0.3c0-0.4-0.2-0.7-0.5-1c-0.8,0.3-1.4-0.6-2.4-0.3
						c-0.2,0.3,0.5,0.6,0.5,0.9c-0.8,0.9-0.5,2.4-1.6,3.3c0,0.8-0.9,1-1.1,1.7c0.3,0.9-0.3,0.9-0.8,1.2c-0.3,0.9-1.4,0.8-2,1.5
						c-1.4-0.4-1.1,1.5-2.5,0.9c-0.5,0.1-0.5,0.6-0.9,0.6c-0.3,0.9-1.4-0.1-1.6,0.7c-0.6,0.2-0.9,0.5-1.4,0.2
						c-0.2,0-0.3,0.1-0.3,0.3c-1.7,0-3,1-4.6,1c-0.8-0.6-1.6,0.7-2.4,0.1c-1.3,0.3-1.7-1.4-3-1.5c-0.5,0.7-0.9-0.2-1.4,0.6
						c-0.5-0.5-1.4-0.3-1.7-1c-1.3,0.5-1.3-0.8-2.5-0.5c-0.3,0.3-0.9,0-0.8,0.6c0.8,0.4,0.3,1.2,0.3,1.8c0.9,0.3,0.5,1,0.9,1.8
						c1.3,0,0.3,1.2,1.3,1.5c0,0.4,0.9,0.4,0.5,1c0.9,0,0.6,1,0.9,1.5c0.8,0.6,1.7,1.2,2.5,1.8c1.3-0.1,2,0.8,3.3,0.6
						c1.3-0.5,2.1,0,3.2-0.8c0.6,0,0.6-0.8,0.9-1.2c0.8-1,3-0.3,3.3-2.1c0.6,0,0.8-0.7,1.3-1c0.3,0,0.3-0.1,0.2-0.5
						c0.2-0.3,0.5,0,0.8-0.1c0.5-0.6,1.4-0.9,2-1.5c0.6-0.3,1.3-0.6,1.6-1.2c0.3,0,0.3-0.6,0.8-0.5c-0.2,0.9-0.6,1.4-1.1,1.9
						c-0.2,0.8-0.8,1.4-0.6,1.9c-1.4,1-1.7,3-2.7,4.2c-0.6,1.6-2.4,2.8-3,4.5c0.2,0.2,0,0.5-0.2,0.5c-0.3,0.4-0.9,0.7-1.1,1
						c-0.6,0.7-1.4,1.5-2.4,1.8c-0.2,0.8-0.9,1.3-0.9,1.8c0.2,1.4-1.4,0.2-1.1,1.4c0.3,0.4-0.5,1.2,0,1.6c0,0.9-0.5,1.5-0.8,2.4
						c0.5,0.4,0.9,1,0.5,1.6c0.6,0.6-0.2,1.5-0.6,2.1c0.2,0.4,0.6,0.4,0.9,0.4c0.3,0.2,0.5,0.5,0.3,0.9c-0.9,0.8,0.6,0.8,0.6,1.4
						c0.3,0.4,0.6,0.9,1.3,1.5c0.6-0.1,1.4,0,2,0c1.4-0.6,2.2,0.9,3.5,0.9c0.3,0.8-0.5,1-0.6,1.7c-0.8,0.1-0.3,1-1.1,1.3
						c0,0.9-0.6,1.4-1.1,2.1c-0.9,0-0.3,1.2-1.3,1.3c-0.5,0.7-0.9,2.1-2.4,1.8c-0.5-0.3-0.9-0.3-0.9-0.9c-0.3-0.3-0.3-0.6-0.8-0.7
						c-0.3,0,0-0.5,0-0.3c-0.3-0.9-0.6-1.6-1.4-2.2c0.8-0.9-0.2-1.9-0.2-2.8c0.8-0.4-0.5-0.7-0.3-1.3c-1.1-0.3,0.5-0.7,0.2-1.5
						c-0.2-0.3-0.5-0.6-0.8-0.7c-0.2-0.6-0.3-1-0.2-1.5c0.3-0.9-0.3-1.5-0.6-2.2c1.4-0.8-0.5-0.9-0.5-1.6l0.3-0.3
						c-0.9,0-0.5-0.9-1.1-1.4c0.9-0.5-0.6-0.9-0.2-1.3c-0.3-0.1-0.5-0.5-0.8-0.3c-0.3-1.2-1.7-0.6-2.5-1c-0.5,0.5-1.4,0.1-1.4,1
						c0,0.3-0.2-0.1-0.5,0c-0.8-0.1-1.1,0.9-1.4,1.5C9,93.6,8.1,94,8.5,94.5c-0.6,0.5,0.3,1.2-0.5,1.4c0,0.3-0.2,0.5,0.2,0.6
						c-0.3,0.5-0.3,1-0.9,1.5c0,0.4,0.2,0.4,0.5,0.6c-0.2,0.3,0.5,0.8,0.2,1c0.2,0.5-0.5,1.2,0.3,1.6c-0.2,0.5-0.2,0.9-0.3,1.2
						c0,0.4,0.5,0.6,0.8,0.9c-0.6,0.7,0.3,1,0.3,1.6c1.3,0,0,1.2,0.9,1.5c-0.9,0.5,0.3,1.2-0.5,1.8c0.8,0.6-0.2,1.4,0.6,1.9
						c0.3,0.5-0.3,0.3-0.5,0.5c1.1,1-0.3,1.9,0.6,3c0,0.6-0.8,0.6-0.8,0.9s0.2,0.6,0.6,0.8c0.5,0.9,0.3,1.9-0.3,2.8
						c0.5,0.6,0.3,1.5,0.5,2.1c-0.3,0.7,0.2,1.8-0.6,2.2c1.1,0.9-1.6,1.9,0.3,2.2c0.2,0.7-0.6,1.2-0.5,1.9c0.3,0.6,0.2,1.2,0.6,1.8
						c-0.6,0.4,0,1-0.3,1.5c1.4,0.5,0.2,1.8,1.1,2.5c1.1,0,0,1,0.6,1.4c0.3,0.3,0.3,0.7,0.9,0.4c0.5,0.6,1.3,0.5,1.3,0.9
						c0.6,0.3,1.1,0.9,1.6,0.4l0.5,0.6c1.1-0.5,2.5,0.5,3-0.6c1.1,0.3,1.9-0.4,2.8,0c1.4-0.6,3.1-0.7,4.6-0.9
						c0.3-0.9,0.8,0.3,1.3-0.5c1.1,0.5,2.2-0.4,3.3-0.1v-0.5c0.8,0.3,0.9-0.6,1.7-0.3c0-1.2,1.3,0.1,1.7-0.6
						c0.5-0.6,1.4-0.1,1.9-0.9c0.6,0,0.9-0.5,1.6-0.5c1.3-1.3,3.5-1.3,4.9-2.7c0.9,0.1,0.8-0.9,1.6-1.2c0.9,0.3,0.6-0.8,1.3-0.8
						c0.8-0.9,2.2-1.4,2.5-2.5c0.5-0.3,0.9-0.9,1.4-1.5c1.1-0.1-0.3-0.7,0.5-1.2c0.9,0,0.2-0.9,0.9-0.9c0.8-1.2,1.1-2.1,1.4-3.4
						c0.3-0.6-0.5-1.3,0.5-1.9c-0.9-0.6,0.2-0.9,0.3-1.5c-0.2-0.5-0.3-0.7,0.3-1.2c-0.6-0.3-0.2-1.2-0.9-1.3
						c0.5-0.8-0.5-1.9,0.5-2.4c-1.4-0.9,0.5-1.9-0.3-3c0.6-1-0.2-1.6-0.3-2.7c0.6-0.6-0.3-1.2,0-1.9c0.2,0,0.3,0,0.3,0
						c0.2-0.3-0.3-0.6-0.6-0.6c-0.3,0.6,0,1.5-0.6,1.9c-0.2,0.4,0.2,1,0.3,1.5c-0.9,1.4-0.6,2.7-0.9,4.2c-0.5,0.2,0.2,0.9-0.5,1
						c-0.2,2.1-1.3,3.9-1.7,6c-1.1,0.7-1.1,2.2-2.2,3.1c-0.3,0.1-0.6,0.8-1.1,0.3c0,0.3-0.2,0.5,0.2,0.6c-0.3,0.6-1.1,1-1.6,1.6
						c-0.5-0.1-0.5,0.6-0.8,0.9c-1.1,0.1-1.6,1.2-2.5,1.3c-0.3,0.2-0.6,0.5-0.3,0.8c-0.5-0.2-0.3,0.5-0.6,0.6
						c-0.2-0.1-0.5-0.4-0.8-0.1c-0.2,0.3-0.6,0-0.6,0c-0.9-0.1-0.8,0.8-1.4,1l-0.2-0.1c0-0.4-0.3,0-0.6,0c-0.3,1-1.7,0.3-2.2,1
						c-0.5-0.5-0.8,0.3-1.1-0.2c-0.6-0.1-1.1-0.1-1.6,0.5c-0.5-0.3-0.8-0.5-1.4-0.1c-0.8,0.8-1.9,0-3.2,0.3
						c-0.5-0.5-1.1-0.1-1.6-0.6l-0.2,0.2c-0.6-0.2-1.4-0.2-1.9-0.2c-0.3-0.1-0.8-0.1-0.8,0.2c-0.3-0.3-0.9-0.3-1.3-0.3
						c-0.5-0.4-1.3-0.3-1.7-0.6c-1.1,0.3-1.4-0.9-2.4-1.2c-0.3-0.3,0.2-1.2-0.3-1.4c0.5-0.6-0.3-1,0.3-1.6c0.9,0.3,0.5,1,0.6,1.6
						c0.3,0.8,1.6,1.2,2.4,1.4c0.5,0,0.6,0.3,0.9,0.6l0.3-0.3c0.6,0,1.4,0.2,1.9,0.8c0.9,0.7,0.9-0.4,1.7-0.6l0.2,0.3
						c0.6-0.3,1.6-0.1,2.5-0.5c0-1,1.7-0.3,1.6-1.5c0.6-0.3,0.2-0.7,0.6-1c0,0.2,0.2,0.3,0.5,0.2c0.2-0.3,0-1.1,0.6-1.2
						c0.2-0.3,0-0.4-0.3-0.6c0.2-0.1,0-0.3,0.2-0.5c0-0.9,0.9-1.2,1.4-1.8c0.3-0.6,0-1.2,0.5-1.8c0.8-0.6,0.5-1.2,1.3-1.8
						c0.8-0.5,1.4-1.2,1.6-2.1c0.2,0.1,0.2,0.5,0.5,0.5c0.2-0.9,1.3-1,1.6-1.8c0.8,0.2,0.3-0.9,0.8-1c0-0.3,0.2-0.4-0.2-0.7
						c0.2,0,0.3-0.2,0.5-0.2c0.9,0,1.4-0.7,1.7-1.2c-0.2-1.4,1.9-1.5,1.7-3c0.3-0.3,0.6-0.3,0.9-0.3c0.5-1,1.1-2.1,1.6-3
						c1.3-0.3,0.3-1.2,0.9-1.9c0.8-1,0-2.1,1.1-3.1c0.3-0.3-0.3-0.9,0.5-0.9c-0.5-1.2,0.2-2.1,0.3-3.1c0.2-0.3-0.5-0.5,0-0.8
						c-0.6,0,0-0.5,0-0.7c-1.1,0-0.2-1-1.1-1.5c0.2-1-0.8-1.6-1.3-2.4c-0.6-0.2-0.9-0.9-1.3-1.4c-1.1-2.1,1.7-3.1,1.6-4.9
						c0.2-1,1.3-1.7,1.7-2.6c-0.2-1.3,1.4-1.6,1.3-3c0.6-0.1,0.6-0.6,1.1-1c-0.3-0.6,0.5-0.5,0.3-1c0.2-0.3,0-0.7,0.5-0.7
						c-0.2-0.6,0.8-0.6,0.6-1.2C51.2,71.3,51,70.4,51.5,69.9z M9.8,105.1H9.6V105h0.2V105.1z M57,95.9c0,0-0.1,0-0.1,0
						C56.8,95.9,56.9,95.9,57,95.9z M50.8,99.9c-0.1,0,0,0.3,0,0.5V99.9z M106,164.9c-1.1-0.6,0.6-1.6-0.8-2.1
						c-1.1,0.1-2.3-0.8-3.2-1.4c-0.5-0.3-1.2-0.3-1.7-0.8c-0.9,0-1.1-0.7-1.8-0.9c-0.6,0.4-0.9-0.5-1.5-0.3
						c-1.2-0.8-1.8,0.9-2.6-0.7v0.3c-0.6,0.2-0.9-0.3-1.4-0.5c-0.9,0.8-1.7,0-2.7,0.8c-0.5-0.5-1.2,0.5-1.4-0.5
						c0.3-0.9-0.8-0.6-1.1-1.3c-0.6-0.3-1.1-0.9-1.8-0.9c-0.5,0-0.9-0.9-1.4-0.3c-0.8,0-1.7,0-2.3-0.5l0.5-0.4
						c0.3-0.5-0.5-0.1-0.2-0.6c0.3-0.3,0.3,0.1,0.6,0c0.1,0.1,0.1-0.2,0.1-0.2c0.5,0.2,0.5-0.6,1.1-0.6c0.3-0.2-0.2-0.5-0.3-0.8
						c0.1-0.1,0.3-0.1,0.6-0.1c0.9,0.7,0.9-0.6,1.5-0.9c0.3-1.2,1.5-1.5,2-2.5c0.2-0.8,0.9-0.9,1.4-1.2c0-0.5,0.6-0.8,0.2-1.1
						c0.3-0.6,1.1-1.2,1.1-1.9c0.6-0.3,0.3-1.2,0.9-1.4c0.2-0.3,0-0.5-0.1-0.7c1.1-0.6,0.8-1.8,1.5-2.4c0.2-0.3,0-0.4-0.2-0.6
						c0.2-0.3,0.5-0.5,0.8-0.5l-0.3-0.6c0.8-1.5-0.6-2.5-0.5-4c0.8-0.8-0.6-0.8-0.6-1.4l0.2-0.3c0-0.6-0.6-1.2-1.2-1.6
						c0.2-0.5-0.3-0.3-0.6-0.5c0-0.5,0.1-0.7,0.3-0.9c0-0.5-0.6-0.3-0.8-0.5c0.2-0.4,0-0.7-0.2-1c-0.5,0-0.6-0.4-1.2-0.4
						c-0.3-1-1.1-1.2-1.8-1.8c-1.1,0-2.1-1.9-2.9-0.6l-0.2-0.3c-0.6,0-1.5-0.3-2,0.1c0-0.1-0.3-0.1-0.5-0.1c-0.5,0.1-1.1,0.3-1.5,0
						c-0.6-0.3-0.9,0-1.4,0.3l-0.6-0.6c-0.8-0.3-0.1,0.9-0.6,1c-0.3,0-0.5-0.1-0.5-0.4c-0.6,0-1.1,0.1-1.5,0.4
						c-0.8-0.3-0.6,0.8-1.4,0.6c-0.2,0-0.2-0.6-0.3-0.5c0,0.9-1.2,0.5-1.5,1.2c-0.3-0.3-0.9-0.1-1.4-0.1c-0.5,0-0.6,0.8-1.2,0.5
						c-0.5,0.7-1.4,0.5-2,0.7c-1.1,0.8-2.1,0.6-3,1.4c-1.1-0.4-1.5,0.9-2.4,0.7c0,0.6-0.3,0-0.5,0.2c-0.6,0.3-1.2,0.6-1.8,0.7
						c-0.1,0.5-0.8,0.6-1.2,0.8c-1.5,0.3-2.9,1.5-4.2,1.8c-0.2,0.7-1.2,0.4-1.7,0.7c-0.5-0.1-0.6,0.9-1.1,0.3
						c-0.8,0.6-1.5,0.6-2.1,1.4c-1.1-0.9-1.7,1.3-2.7,0.4c-0.8,0.5-0.8-1-1.5-0.3c0,0-0.3,0-0.2-0.1c-0.8-0.3-0.5-0.9-0.2-1.4
						c0.8-0.3,0.5-1.2,0.9-1.6c0.5-0.5,0.7-0.9,1.2-1.5c0.9-0.3,1.1-1.5,2-2.1c1.4-1.6,2.6-3.9,4.4-5.2c0-0.5,0.5-0.8,0.8-1.4
						c0.3,0.1,0.6-0.2,0.6-0.5c1.1-0.9,2-2.1,3.2-3.1c-0.2-0.3,0.4-0.3,0.2-0.7c0.2-0.2,0.4-0.4,0.6-0.6c0.1,0,0.1-0.1,0.2-0.1
						c0,0,0,0,0,0c0.4-0.3,0.7-0.7,1.1-1c-0.1,0.2-0.2,0.5-0.3,0.7c0.1-0.1,0.1-0.2,0.1-0.3c1-0.8,1.9-1.9,3.1-2.9
						c-0.1-0.3,0.4-0.3,0.2-0.7c0.3-0.3,0.6-0.5,1-0.8c0.2-0.7,1.2-0.3,1.1-1.4c0.2-0.2,0.4-0.3,0.5-0.5c0.1,0,0.2,0,0.3,0.1
						c0.1-0.7,0.9-0.4,1.1-1.1c0.1,0.2,0.3,0.2,0.4,0c0.2-1.2,1.4-2,2.4-2.6c0-0.1,0-0.2,0-0.3c0.5-0.4,0.9-0.8,1.4-1.3
						c0.1,0,0.1-0.1,0.1-0.1c0.4-0.3,0.8-0.7,1.2-1c0.2,0,0.5-0.1,0.7-0.1c0.1-0.7,1.1-0.3,0.9-1.3c0.9-0.7,1.2-1.5,2.2-1.9
						c-0.1-0.5,0.6-0.2,0.7-0.5c0.5-0.9,1.5-1.2,2.2-1.9c0.3-0.1,0.2-1.3,0.9-0.5c0.3-0.7,1.3-0.8,1.4-1.7c0.7-0.2,1.1-1.2,1.7-0.6
						c0.6-0.2,1-0.9,1.1-1.5c-0.2-0.5,0.9-0.7,0.7-1.3c0.7,0.1,0.8-0.8,1.2-1.1c0.4,0.3,0.4-0.4,0.7-0.7c0.6-0.4,0.8-1.6,1.8-1.6
						c-0.1-0.9,1.1-1.4,0.6-2.5c0.7-0.5-0.1-1.1,0-1.8c-0.2-0.8-0.6-1.6-0.9-2.3c-0.8,0.2-1.1-1.3-2.1-1c-0.5-0.4-1-1.3-1.5-1.4
						c-1.1-0.4-2.2-0.4-3.1-1.5c-0.3,0.3-0.6,0.1-0.9,0.1c0-0.2-0.1-0.5-0.3-0.6c0.1-0.9,0.1-2.1,0-3c-0.2-0.7,0.2-1.5-0.1-2.4
						c0.6-0.5,0.3-1.1,0.1-1.7c0-0.1,0-0.2,0-0.4c0.2-0.1,0.4,0,0.1-0.2c0.2-0.6,0.6-1,0.6-1.8c0.1-0.5,0-1.2,0.2-1.7
						c-6.7,2.5,0.6-2.7,0.5-4.5c0.5-0.5,0.5-1.3,1.2-1.6c-0.3-0.3-0.3-0.9-0.3-1.2c0.8,0-0.1-0.7,0.3-1.1c-0.1-0.6-0.5-0.7-1.1-0.9
						c0-0.3,0.1-0.3,0.1-0.6c-0.1,0-0.5-0.4-0.9-0.2c-0.4-0.7-1.3-0.4-1.9-0.5c-0.5,0.1-1,0.1-1.5,0c-1-0.6-2.1-1-3.3-0.5
						c-2.7,1.3-5.7,2.8-8.1,6c-1.4,3.3-2,7-3.6,10.1c-0.7,5-4.4,9.5-4.1,14.4c2.7-2.3,3-6.5,5-10.2c2.8-0.4,0.7,4.7,2.2,5.6
						c0.1,0.6,0.4,1.5-0.1,1.7c-0.1,1.1,0,2.3,0.5,2.8c0.1,5.7,5.5,5,6.9,8.7c-1.2,4.9-4.5,7.9-7.4,10.3c-2.6,2.3-5.3,4.9-7.6,7.8
						c0,0,0-0.1,0-0.1c-0.4,0.5-1,0.9-1.3,1.4c-0.3,0.6-0.9,0.9-0.9,1.5c-0.1,0.1-0.3,0.2-0.4,0.3c-0.1,0-0.1,0.1-0.2,0.1
						c-0.3,0.4-0.6,0.8-0.9,1.2c-0.1,0.1-0.2,0.2-0.4,0.3c-1.5-0.2-0.1,1.7-1.7,1.4c0.3,0.9-0.9,0.6-0.9,1.5c0.2,1-1.5,0.6-1.1,1.5
						c-0.2,0.3-0.5,0.6-0.8,0.5c0.1,0.6-0.9,0.6-0.8,1.2c-1.1,0.5-1.5,1.5-2.4,2c-1.1,1.6-3.2,2.7-4.4,4.3c-0.6,0.7-1.5,0.9-2,1.8
						c-0.2,0.7-1.1,0.5-1.1,1.2c-0.5,0.1-0.9,0.7-1.4,1.2c-0.2,0.4-0.9,0-1.1,0.7c-0.6,0.3-0.9,1.3-1.5,1.8
						c-0.8-0.1-0.8,0.9-1.5,1.1c-0.5,0-0.5,0.6-0.9,0.7c-0.9,0.3-1.2,1-2.1,1.4c-0.5,0.1-0.8,0.9-1.4,0.9c-0.3,0.8-0.9,0.9-1.5,1.4
						c-0.5,0.1-0.9,0.5-1.1,1c-1.1-0.3-1.1,1.1-2,0.6c-0.2,0.9-1.2,0.9-1.7,1.5c-0.8,0.1-1.7-0.1-2.3,0.3c-0.8,0.3-1.4,0.9-2,0.7
						l-0.3,0.5c-0.3,0-0.5,0.4-0.9,0.3c-0.1,0.6-1.2,0.3-0.9,1.2c-0.3,0.3-0.8,0.7-1.4,0.7c0.6,0.5-0.3,0.9,0,1.4
						c-0.8,0.9,0.3,1.6-0.1,2.5c0.1,0.5-0.3,0.9,0.1,1.2c-0.3,1,0.5,2.1,0.8,3.3c-0.3,0.9,0.8,1.2,1.2,1.9c-0.1,0.6,0.9,1.2,0.6,1.9
						c0.2,0.5,0.8,0,0.9,0.6c1.1,1.2,2,2.5,3.6,3l-0.3,0.7c-0.8,0.5-1.7,0.5-2.3,0.9c-1.1-0.1-2.1,1.2-3.3,1
						c-0.3,0.3-1.1-0.1-1.2,0.4c-1.1-0.6-1.7,0.6-2.7,0.8c-1.1-0.9-1.8,0.4-3.2,0c-0.5-0.6-1.4-0.6-1.5-1.5
						c-0.3-0.2-0.6,0.1-0.8,0.3c-0.1,0.9-1.5,0.4-1.5,1.4c-0.3-0.1-0.5-0.5-0.5-0.7c-0.3,0.4-0.5-0.2-0.8-0.2c-0.2,0.2,0,0.6,0,0.9
						c-0.9,0.6,0.2,1.9,0,2.8c0.5,0.2,0,0.5,0,0.8c0.5,0.1,0.8,0.6,1.2,0.5c0.6,1.2,1.2-0.5,2,0.1c0.8-0.9,1.4,0.9,2-0.4
						c1.1,0.3,1.2-1,2.1-1c0.8-1,2-0.5,3-0.6l0.2-0.1c1.2-0.2,2.7-0.2,3.9-0.5c0.6,0.5,1.4-0.3,2.1-0.1c0.5-0.2,0.3,0.4,0.6,0.4
						c0.5-0.7,1.1,0.2,1.7-0.3c0.5-0.1,0.8,0.6,1.1,0.1c0.6,0.9,1.1-0.7,1.8,0.1c0.5-0.4,1.7-0.1,2.4-0.7c1.2,0.6,2.1-0.6,3.3-0.6
						c0.2-0.5,0.9,0,1.1-0.6c0.3-0.3,0.9,0.1,1.1-0.2c1.1,0.9,1.2-1.3,2.6-0.6c0.5-0.7,1.5,0.5,1.8-0.7c0.8,0.3,1.7-0.2,2.7,0
						c0.3-0.6,0.9-0.3,1.4-0.3c0.6-0.9,1.8,0.1,2.4-0.6c0.9,0.3,1.7,0.7,2.4,0.1c0.8,0.8,1.7,0,2.3,0.8c0.6-1,1.5,0.5,2.1-0.5
						l0.3,0.1c0,0,0.2,0,0.2-0.1c0.8,1,1.4-0.9,2.1,0c0.6-0.5,1.2,0.3,1.8,0.5c0.8-1,1.7,0.1,2.3-0.3h2.4c0.3,0,0.6,0.5,0.8,0.1
						l0.2,0.2c0.5,0.6,0.9,0,1.2-0.3c-0.2,0.6,0.6,0.6,0.9,0.6c0.3,0.4,1.1,0.4,1.5,0.6c1.1-0.5,0.6,1.3,1.4,0.7
						c0.5,0,0.9-0.1,1.2,0.2c0.2-0.3,0.5-0.2,0.8-0.3c0.5,0.4,1.2,0.3,1.4,0.9l0.5-0.7c0.6-0.1,0.2,0.6,0.6,0.6
						c0.6,0.3,1.5,0.1,1.7-0.3c0.9,0.5,1.7,0.6,2.1,1.5c0.4-0.4,1.4-0.4,1.8-0.4c-0.2,0.4,0,0.7,0.1,0.9c0.2,0.2,0.5,0.2,0.5,0
						c0.5,0.2,0,0.5,0.3,0.8c0.6,0,0.9,0.7,1.7,0.6c1.2,0.7,2.7,1.5,4.1,0.5c0,0.6,0.5,0.5,0.8,0.5c0.5,0.7,1.4,0.6,2,0.7
						c0.6-0.3,1.4,0.2,2-0.4L89,176c0,0.9,1.1,0.1,1.4,0.6c0.5-0.3,0.8,0.6,1.2,0.3c0.8,0.6,1.5,0.3,2.3,0.3c0.2,0.9,1.1,0.5,1.4,1
						c0.6-0.5,1.1,0.7,1.5,0.1c0.8,0.1,1.4-0.1,2-0.1c0.3-0.9,1.2-0.5,1.5-1.2l0.3,0.1c0.5,0,1.8,0.5,1.8-0.8
						c-1.1-0.6,0.5-1,0.6-1.6c0.3,0,0.8,0.1,0.9,0.4c0.5-0.4,1.1-0.9,1.4-1.5c0.3-0.3,0-0.9,0.2-1.3c-0.8-0.9,0.2-1.9-0.6-2.8
						c-1.2,0,0-1-0.5-1.5c-0.6-0.6,0.3-0.8,0-1.4C104.8,166,106,166,106,164.9z M46.2,160.3c-0.6-0.1-0.8,0.9-1.2,0.3
						c-0.9,0.9-2.3,0.6-2.9,1.5c-0.8-0.1-1.1,0.8-1.8,0.3c-0.8,0.9-2.1,0.6-3.2,1c-1.1,0.2-1.8,0.8-2.9,0.5
						c-0.8-0.1-0.6,1.1-1.5,0.6c-1.2-0.5,0.5-1.5-0.3-2.4c0.5-0.7-0.5-1.2-0.3-1.8c-0.5-0.6,0.5-1.2-0.5-1.5c-0.2-0.2-0.2-0.3,0-0.6
						c0.1,0,0.3-0.3,0.3-0.3c-0.2-0.3-0.3-0.8-0.3-1c0.5-0.5-0.3-0.9-0.5-1.3c0-0.9,0.6-2.5-0.8-2.7c-0.2-0.6-0.8-0.3-1.1,0
						c-0.5,0.5,0,0.8-0.1,1.2c0,1.1,0,2.1-0.6,2.8c0,0.6,0.1,0.6,0,1c-0.5,0-0.8-0.6-1.2-0.8c-0.2-1-0.9-0.3-1.4-1h-0.5
						c0.1-0.7-0.6-1.2-0.8-1.8l-0.6-0.1c0.2-1.2,1.5-1.4,1.7-2.7c0.8,0.7,0.8-0.6,1.4-0.5c1.1-0.7,2.6-1.3,3.6-1.5
						c0.5-0.1,0.3-0.6,0.8-0.7c0.9,0.3,1.5-0.9,2.3-0.9c0-0.6,0.8-0.6,1.1-1l0.5,0.1c0-0.5,0.3-0.6,0.6-0.9c0.2,0.6,1.4,0.9,0.5,1.6
						c0,0.5,0.8,1.4,0.1,2c-0.1,0.7,0.3,1.8,0.9,2.2c0.2,1-0.5,2.8,1.2,3c0.5,0,0.5-0.5,1.1-0.5c0,0.3,0.2,0.5,0,0.6
						c0.6,0.7,1.5,0.7,2.4,1c0.3-0.2,0.2-0.3,0.3-0.5c0,0.3,0.3,0.3,0.6,0.3l0.2-0.4c-0.2,0.6,0.3,0.7,0.6,0.7
						c0.3,0.5,0.2,1.2,0.6,1.5c-0.3,0.1-0.2,0.5,0.2,0.5l0.6,0.2C45.4,159.1,47.3,159.7,46.2,160.3z M50.4,139.9h0.5
						c-0.1,0.3-0.3,0-0.6,0.1L50.4,139.9z M50.3,141.1v0.1h-0.1v-0.1H50.3z M50.3,142.2v0.2h-0.1v-0.2H50.3z M50.1,140.2l-0.3,0.5
						l-0.3-0.2C49.2,140.1,49.8,140.2,50.1,140.2z M50.7,151c0.3,0.3-0.3,0.6,0,0.9c0.5,1-1.1,1.5-0.9,2.2c0.3,0.5-0.3,0.5-0.3,0.8
						c-0.5-0.3-1.8,0.9-1.5-0.5c-0.3,0.2-0.6,0.6-0.9,0.2v-0.9c0,0.3,0.6,0.5,0.8,0.5c0.3-0.5,0.8-1,1.4-0.9
						c-0.2-0.3-0.2-0.6-0.2-0.9c0.3,0,0.8,0,0.8-0.5c0.2-0.1,0-0.3-0.2-0.3h-0.1c0.3-0.9-0.9-2.2,0.1-3c-0.5-1.2,0.3-1.9-0.1-2.8
						c-0.5-0.5,0.1-0.9-0.3-1.2c0,0,0.2-0.2,0.2-0.3l0.2,0.3c0.8-0.2,0.3-1,0.6-1.5c0.1,0.1,0.2,0,0.2,0c0-0.1,0.1-0.2,0.1-0.3
						c0,0.1,0,0.3-0.1,0.3c-0.4,1.2,0.4,2.5-0.1,3.7c0.5,0.5-0.6,1.2,0.2,1.5c-0.2,0.3,0.2,0.5,0.3,0.5
						C50.3,149.7,51.5,150.4,50.7,151z M51.2,139.9v0.3l-0.2-0.3H51.2z M80.5,138.4c0,0.8-0.1,1.8-0.9,2.3c0.2,0.4-0.1,0.6-0.5,0.7
						c-0.2,0.3,0,0.9-0.6,1.1c0,0.3,0,0.6-0.3,0.6c-0.1,1.1-1.2,1.4-1.4,2.4c-0.9,1.5-2.6,2.1-3.3,3.7c-0.8,0.8-2.3,0.5-2,1.9
						c-0.8,0.1-1.4,0.8-1.7,1.5c-0.8-0.5-0.9,0.7-1.7,0.7c-0.6,0.2-0.5,1.4-1.4,1.2c0.2,0,0,0.1,0.2,0.1c-0.8,0-0.9,0.5-1.5,0.3
						c-0.2,0.1-0.2,0.3-0.2,0.3c-0.3-0.6-0.9,0.1-1.2,0l-0.2,0.3c-0.2,0-0.5-0.3-0.6-0.1c-0.6,0.9-2-0.3-2.3,0.7
						c-0.6,0.6-1.2-0.1-2,0.3c-0.1,0.4-1.1,0.1-1.5,0.1c-0.8-0.9-1.5,0.1-2.4,0.1c-0.5,0-0.6-0.7-1.2-0.5c-0.8-0.8-1.4,0.7-1.8-0.5
						c-0.5,0.2-0.6-0.3-1.1-0.1v-0.4l0.5,0.1c0.6-0.8,1.4-1.5,2.3-1.9c0.6,0.9,1.5-0.2,2.1-0.2c0.1,0,0.1,0,0.1-0.1
						c0,0.1,0.2,0.2,0.2,0.2c0.5-0.2,0.8-0.8,1.2-0.5c0.8-0.1,1.2-1,1.8-0.6l1.5-1.5c-0.5-0.6,0.6-0.7-0.1-1.3
						c-0.2-0.6-0.8-1.4-0.9-2.1c0.5-1.2-1.1-1.6-0.5-2.7c-0.9-0.3-0.9-1.2-1.7-1.5c0-0.7-0.9-1-0.9-1.8c-0.8-0.5-1.2-1.5-2.3-1.8
						c-0.5,0.1-0.5-0.5-0.9-0.6h-1.4c0.5-0.6,1.4-1.4,2.4-1.2c0-0.8,0.9-0.2,1.2-0.9c0.5-0.3,1.1-0.3,1.5-0.8
						c1.1-0.1,2.1-0.9,3.3-1.2c0.8-0.1,1.4-0.8,2.3-0.6c0.3-0.3,0.6-0.9,0.9-0.7c0.3,0.2,0.6,0,0.6-0.3c0.6-0.4,1.7-0.4,2.3-0.6
						c0.6-0.9,1.7-0.3,2.4-1.1c0.5,0,1.1,0.3,1.4-0.1c0.5,0.1,0.9-0.3,1.4-0.3c0.8-0.1,1.5,0.2,2.1-0.3c0.6,0.1,1.5-0.1,2.3,0
						c0.6,0.5,1.7,0.1,2.1,0c0,0.3,0.3,0.5,0.5,0.7c0.5-0.3,0.9-0.1,1.4,0c1.2,0.9,0.9,2.4,1.2,3.4
						C81.2,136.5,81.6,137.7,80.5,138.4z"/>
				</g>
			</g>
		</g>
	</g>
	<g>
		<g>
			<g>
				<g>
					<path class="st0" d="M204.7,89.1c0.7-0.1,0-0.9,0.4-1.3c-0.2-0.3,0-1-0.6-0.9c-0.1-0.3,0.1-0.3,0.3-0.5c0-0.4-0.3-0.4-0.4-0.7
						c0-1-0.7-1.5-1.1-2.1c0-0.8-1.1-1.6-0.7-2.5c-0.3-1-1.2-1.6-1.4-2.6c-0.5-0.7-0.6-1.4-1-2.2c0-0.7-0.8-0.4-1-0.9
						c-0.5,0-0.4-0.8-0.7-0.6c-0.3-0.3-0.3-0.7-0.3-0.9c-0.7-0.4-0.8-1.3-1.6-1.4c-0.1-0.1-0.1-0.1-0.2-0.2
						c-0.1-0.2-0.2-0.4-0.4-0.4c-0.9-0.8-2-1.5-3.1-1.9c0,0,0,0,0,0c0,0-0.1,0-0.1,0c-0.2-0.1-0.3-0.1-0.5-0.1c0-0.1,0-0.1,0-0.2
						c-0.3-0.2-0.6-0.5-0.9-0.6c-0.7-0.4-1.5,0-2.1-0.5c0-0.7-1-0.3-1.1-0.9c-1,0-1.8-0.3-2.8-0.1c-0.3-0.3-0.7-0.5-0.9-0.9
						c-0.5-0.2-1,0.3-1.7,0.5c-0.4-0.1-1-1-1.3-0.3l-0.2-0.1c-0.1,0.1-0.3,0.1-0.4,0.1c-0.2-0.1-0.3-0.1-0.5-0.2
						c-0.3-0.2-0.6-0.4-0.9-0.3c-1.9-0.3-3.6-0.8-5.6-0.3c-2.3-0.6-5-0.6-6.7,0.9c-3.8,0-7.3,1.5-11.1,1.5c-0.9,0-2.3,0-2.9-0.6
						c-2.6-1.2-5.9-1.2-8.2,0.6c-3.5,0.6-2,4.7-5,6.1c-3.5,0.3-6.7,2-10.2,2.6c-1.7-0.6-2.6,1.2-4.4,0.6c-0.3,0-0.5,0-0.6,0.1
						c0-0.1-0.1-0.2-0.1-0.3c0,0,0,0,0,0c0.1,0.1,0.1,0.2,0.1,0.3c-0.2,0.2,0.2,0.6,0,1c0.1,0.1,0.2,0.2,0.3,0.2
						c-0.2,0.5,0.5,0.8,0.9,1.2c0.4,0.1,0,0.4,0.2,0.6c1.1,0.7,1.7,2.3,2.9,2.9c0.3,0.5,0.2,1.1,0.8,1.4c-0.3,0.8,1,1,1.1,1.7
						c0.6,0.2,0.5,0.8,1.2,1c0.8,0.4,0.3,1.4,1.3,1.7c0.3,0.5,1,1,1.6,1.2c0,0.1,0,0.2,0.2,0.3c-0.4,3-1.6,5.7-1.6,8.8
						c1.8,1.5-0.9,3.2,0.9,4.4c0.9,2.9-2.3,3.5-3.5,5c-0.4-0.3-0.8-0.6-1.2-0.8c0-0.1-0.1-0.3-0.2-0.4c-0.6-0.2-0.5-0.9-0.5-1.1
						c-1.1-0.1-0.3-0.9-1-1.3c-0.3-1.2-1.3-2.2-2.5-3c0.2-0.3-0.7-0.6-0.5-0.9c0.1-0.2-0.3-0.8-0.6-0.8c-0.3-0.8-1-1.7-1.7-2
						c-0.5-1.1-1.6-0.7-2.2-1.7c-0.3-0.8-1.1-0.7-1.4-1.5c-0.8-0.2-1.2-1.7-2.1-1.4c-0.3-0.8-1.1-0.7-1.7-1.1
						c-1-1.4-2.8-2.3-3.8-3.7c-0.3-0.2-0.6,0.2-0.7-0.3c-0.5-0.6-1-1.4-1.6-1.2c-0.2-0.3-0.4-0.3-0.6-0.4c-0.2-0.2-0.4-0.4-0.7-0.6
						c-0.5,2.4,0,4.5,0.6,6.5c-0.1,0.4-0.2,0.8-0.2,1.2c0.1,0.5-0.1,0.8,0.3,1.2c-0.1,0.4,0,0.8-0.4,1.2c0.3,1,0.2,1.7,0.2,2.8
						c-0.1,0.3-0.3-0.2-0.4-0.1c0.1,0.2,0,0.6,0.4,0.5c-0.2,0.2-0.2,0.5-0.1,0.7c0.1,0.2,0.2,0.2,0.3,0.3c0.2,0.2,0.5,0.6,0.4,0.9
						c-0.5,1,0.9,1.4,1.1,2.3c-1.1,0.3-0.6,1.6-1.2,2.3l0.2-0.1l0.2,0.5c1.3,0.6-0.4,1.9,0.6,2.5c-0.3,0.8,0.5,1.3,0.6,1.9
						c-0.3,0.9,0.7,1.6,0.3,2.6c0.6,1,1.1,2.3,1.6,3.4c0.5,0.5,0.7,1.3,1,1.9c0.3,0.3,0.1,1.2,0.7,1.1c0.6,1.3,1.4,2.4,2.1,3.6
						c-0.3,0.4,0.2,0.6,0.4,1c0.3,0.7,0.7,0.3,1,0.8c-0.1,0.3,0.3,0.4,0.2,0.7c0.4,0.5,0.7,1.1,1.2,1.6c0,0.6,0.7,0.4,0.7,0.9
						c0.5,0.6,1.2,1.2,1.5,1.9c0.7-0.1,0.9,0.7,1.3,1.1l0.4-0.6c-0.1,0.4,0.2,0.6,0.4,1c0.6-0.1,0.5,0.7,1,1
						c0.2-0.1,0.5,0.4,0.5,0.1c0.6-0.1,0.6,0.9,0.9,0.9c0.1-0.1,0.1-0.3,0.1-0.5c0.4,0.4,0.8,0.7,1.1,1l0.3,0.7
						c0.3,0,0.5,0.5,0.8,0.2c0.1-0.1,0.2-0.1,0.2-0.1c0.2,0.1,0.3,0.2,0.5,0.3c0.2,0.2,0.3,0.3,0.6,0.3c0.4,0.6,1,0.4,1.5,0.5
						c0,0,0,0,0.1,0c0.2,0.1,0.3,0.1,0.5,0.3c0.1,0,0.2,0,0.3,0c1.4,0.4,2.8,0.6,4.3,0.8c0.6-0.6,1.5-1.2,2.3-1.2
						c0.3-0.3,0.6-0.6,0.8-1c0.9-0.2,1.5-0.9,2-1.8c0.3,0.2,0.4-0.5,0.7-0.3c0.2,0.1,0.7-0.1,0.6-0.4c0.6-0.2,1.3-0.7,1.5-1.2
						c0.8-0.3,0.4-1.2,1-1.6c1.4,0.8,2.5,1.9,4.1,2.5c1.2,0.3,0.9,2,2.3,1.7c2.3,2,4.4,2.9,6.4,4.7c0.6,0.9,1.8,0.9,2.3,0.3
						c0.3,0.6,0.3,1.5,1.2,1.8c1.2,1.5,2.9,1.5,4.1,2.6c1.9,0.9,3.7,0.6,5.5,0.3c0,0.3-0.2,0.6-0.4,0.8c0.2,0.3,0.6,0.3,0.8,0.2
						c0.3,0.5,1,0.5,1.5,0.6c0.8,0.4,1.3,0,2,0c0.3-0.6,1.2-0.1,1.2-0.9c-0.1-0.3,0-0.5,0.2-0.7c0.6,0.1,0.8-0.4,1.4-0.1
						c0.5,0.4,1.4,0.1,1.8,0.3c0.2,0,0.4-0.1,0.4-0.4c1.1-0.1,1.2-1.2,2.2-1.2l-0.2-0.3c0.4-0.4,0.8,0.4,1.2,0.4
						c0.5,0,0.9-0.2,1.1-0.4c-0.3-0.2-0.6,0-0.6-0.3c0.4,0,0.6-0.2,0.8-0.3c0,0,0,0,0.1,0c0.6,0.2,0.9-0.1,1.3-0.4
						c0.4-0.1,0.7,0.5,0.9,0c-0.1-0.1-0.2-0.2-0.3-0.3h0c0.1-0.9,1.1-0.6,0.9-1.7c0.2,0.1,0.3,0.1,0.3,0.3l0.5-0.3
						c-0.1-0.6-0.5-0.2-0.9-0.2c-0.1-0.3-0.1-0.6,0-0.8c0,0,0.1-0.1,0.1-0.1c0.1-0.1,0.3-0.2,0.4-0.3c0,0,0,0-0.1,0
						c0.3-0.3,0.4-0.6,0.9-0.5c0.6,0.3,1.3-0.4,1.9-0.2c0.2-0.1,0.3-0.3,0.3-0.7c1-0.6,0.7-2.2,1.8-2.6l-0.3-0.3
						c0.3-0.7,0.8,0.3,1.3,0.1c0.4-0.2,0.8-0.6,1-0.9c-0.3-0.2-0.6,0.2-0.7-0.2c0.6-0.3,0.7-1,1.1-1.5c0.2-0.1,0.4-0.4,0.7-0.1
						c0.3-0.8,0.9,0.4,1-0.6c-0.2-0.3-0.5-0.4-0.8-0.4c0.2-0.8-0.7-0.2-0.8-0.7c0.3-0.2,1-0.2,0.9-0.8c-0.2-0.8,0.4-0.7,0.4-1.4
						c0.3,0.2,0.6,0,0.7,0.5l0.4-0.7c-0.4-1.3-0.8,1-1.3-0.3c0-0.4,0-0.7,0.2-0.9c0-0.5,0.6-0.8,0.6-1.2c0.2,0.2,0.2,0.4,0.3,0.6
						c0.5,0.2,0.3-0.4,0.6-0.5c-0.6-0.9,0.6,0.1,0.7-0.7c-0.2-0.5,0.4-1.1-0.1-1.6c-0.2-0.3,0-0.6,0.1-0.7l0.2,0.3
						c0.7-0.1,0.2-0.9,0.5-1.4c0,0,0-0.2-0.1-0.3c-0.2,0.1-0.3,0.3-0.2,0.5c-0.1,0.1-0.2,0.2-0.3,0.2c0-0.1,0-0.2,0-0.3
						c0.2-0.5,0.4-0.9,0.5-1.4c0,0,0.1-0.1,0.1-0.1l0.2,0.4c0.4,0.2,0.3-0.6,0.2-0.6c0.4-0.4,0.1-1.2,0.5-1.5c0-0.2,0-0.5-0.2-0.6
						c0.1-0.2,0.1-0.4,0.2-0.6l0,0c0.3-0.4,0.3-1,0.7-1.5c0-0.1,0-0.5-0.1-0.5c0,0,0,0.1-0.1,0.1c0.1-0.4,0.2-0.8,0.4-1.1
						c0.6-1.8,0.3-4.1,1.2-5.6c0.2-1.8,0.4-3.6,0.5-5.4c0,0,0-0.1,0-0.2c0-0.3,0-0.7,0-1.1c0.3-0.1,0.7-0.3,0.8-0.6
						c-0.1-0.5,0.1-1.1-0.2-1.2l0.3-0.2c-0.2,0.1-0.2-0.1-0.3-0.3c-0.2,0-0.4,0.1-0.6,0.2c0-0.5,0-1,0-1.4c0.5-0.7,1.4-1.1,1.5-2
						c0.1-0.6-0.4-0.2-0.6-0.5c0.4-0.5,0.7-1.4,1-1.9c-0.4-0.7,0.2-0.9,0-1.6c-0.7-0.5,0.5-0.8-0.2-1.2
						C206.1,90.4,204.7,89.8,204.7,89.1z M137.2,92.6c0.5,0.5,1,0.8,1.7,0.9c0.4,0.6,1.1-0.2,1.1,0.8c0.2,0,0.8-0.1,0.9,0.4
						c0.5,0.3,1.5-0.3,1.6,0.5c0.3-0.1,0.5-0.1,0.8,0.1c0.2-0.2,0.4-0.4,0.5-0.6c0,0,0,0,0,0c0.4,0,0.8,0,1.2-0.1
						c0.6-1.7,2.6-0.3,3.5-1.7c0.8-2.4,2.6-4.8,4.5-6.8c0,0.3,0.1,0.5,0.2,0.6c0.8,0.9,0.1,2.2,0.9,3.1c-0.3,0.2,0.2,0.5-0.3,0.6
						c-0.1,0.2,0.1,0.4,0.1,0.5c-0.1,0-0.1,0.1-0.2,0.1c0,0.1,0,0.3,0.1,0.3c0.2,0,0.3,0,0.4,0.2c0.2,0.5-0.3,0.8-0.4,1
						c-0.3,0.5,0.3,0.5,0.4,0.6c0.5,0.2,0.1,0.6,0.2,1.1c0,0.1,0,0.1,0,0.2c0,0,0,0-0.1,0c-0.1,0.1-0.5,0.2-0.4,0.5
						c0.1,0,0.2,0,0.3,0.1c0,0.1,0,0.2-0.1,0.3c-0.4,0.4-0.6,1-0.5,1.4c0.1,0.1,0.1,0.2,0.2,0.3c0,0.3,0,0.6,0,0.9c0,0-0.1,0-0.1,0
						l0.1,0.3c0,0.6-0.4,0.9-0.6,1.2c-0.2,0.1-0.4,0.2-0.7,0.2c-2.3,0.6-4.1,0.3-6.1,0.9c-1.8,0.3-3.8,1.2-5.9,1.2
						c-0.9,0-1.8,0.6-2.6,0.9c-1.5-2.9,0.6-6.1-0.6-9.1C137.1,93.1,137.1,92.8,137.2,92.6z M137.6,126.3c-0.6,0.3-2,1.2-2.3-0.3
						c-0.9-0.6-0.6-2-1.8-2.3c0-3.5-4.4-7.9,0-10.8c0.9-0.3,1.2,0.6,1.8,0.9c0,2.6,1.5,5.3,2.6,8.2
						C138.5,123.1,139.7,125.5,137.6,126.3z M141.7,121.1c-2.3-2.3-2.6-6.1-3.5-9.3c0.6-1.7-1.3-3.4,0.4-4.6c0.2,0,0.5,0,0.8,0.2
						c0.4-0.2,0.8,0.2,1.1-0.3c0.4,0,1.2,0.3,1.4-0.3c0.1,0,0.1,0,0.2,0c0.1,0.1,0.2,0.4,0.2,0.5c0.6-0.3,1.2,0.6,1.8,0.1
						c0.9,0.1,1.6-0.1,2.5,0.1c0,0.1,0,0.3,0.1,0.4c0.3-0.4,0.8-0.1,1-0.3c0.2,0.1,0.3,0.2,0.5,0.3l0,0.1c0,0,0.1,0,0.1-0.1
						c0.6,0.4,1.2,0.9,1.8,1.3c-0.3,2.6-3.2,4.7-3.2,7.3C145,117.9,144.1,120.5,141.7,121.1z M186,94.6c0.1,0.9-0.1,1.3-0.4,2
						l0.3,0.4c-0.1,0.2-0.1,0.6-0.1,1c-0.2,0.1-0.3,0.3-0.5,0.4c0.3,0.3-0.1,1.6,0.1,2.1c0,0,0,0.1,0,0.1c0,0.1-0.1,0.3-0.2,0.4
						c0,0.5,0.1,1.2,0.1,1.7c0,0.1,0,0.3,0,0.4c0,0.2,0,0.4,0,0.6c-0.3,0.2-0.5,0.4-0.4,0.9c-0.4,0.4-0.2,0.7-0.1,1
						c0,0-0.1,0.1-0.1,0c0,0.1-0.1,0.3,0,0.3c0.1,0,0.2,0.1,0.2,0.1c0,0.1,0,0.3-0.1,0.5c0,0,0,0.1,0.1,0.1
						c-0.1,0.1-0.1,0.2-0.2,0.3c-0.1,0.1-0.3,0.2-0.4,0.4c-0.4,0.5,0.1,0.7,0.2,0.7c0.5,0.3-0.1,0.8-0.1,1.4c0,0,0.1-0.1,0.1,0
						c0,0.1-0.1,0-0.3,0.1c-0.2,0.1-0.5,0.2-0.5,0.5c0.2,0.1,0.3,0.1,0.4,0.3c-0.6,0.3-1.1,1.1-1.1,1.7c0.3,0.3-0.2,0.9,0.1,1.3
						c-0.2,0.1-0.2,0.3-0.4,0.2l0,0.3c-0.2,0.9-1.1,1.1-1,1.8l0.3,0.3c-0.3,0.1-0.1,0.4,0,0.7c-0.1,0.4-0.4,0.8-0.7,1.1
						c-0.6-0.4-0.3,0.6-0.7,0.9c-0.3-0.1-0.2,0.6-0.6,0.6c0,0.3,0.3,0.6,0.6,0.7c0,0,0,0.2-0.2,0.1c0,0.3-0.3,0.7-0.7,0.6l0-0.2
						c0-0.1-0.1,0-0.3,0.1l0.3,0.3c-0.2,0.1-0.3,0.6-0.5,0.5c-0.2,0.1-0.4,0.5-0.3,0.7c0.1,0,0.2,0.1,0.3-0.1
						c-0.2,0.3,0,0.8-0.3,0.9c-0.1,0-0.3,0.1-0.3-0.1c0,0-0.2-0.1-0.3,0.2c-0.2,0.3,0,0.5,0,0.8c-0.2,0.3-0.3-0.3-0.5,0
						c0.1,0.7-0.9,0.9-0.5,1.5c0.1-0.3,0.4-0.2,0.5-0.2l-0.1,0.8c-0.3,0.6-0.6,0.9-1.3,1.1l0.5,0.3l-0.4,0.4
						c-0.4-0.1-0.6,0.6-1.1,0.6c0.1,0.2,0.1,0.4,0.2,0.4c-0.5,1-1.2,1.4-1.7,2.2c-0.7,0.1-0.5,1.3-1.2,1.6c0.1,0.2,0.3,0.4,0.1,0.7
						c-0.5-0.5-0.9,0.5-1.2,0.9c-0.5-0.2-0.6,0.5-1,0.6c-0.1,0.6-0.5,0.8-0.8,1.1c-1.9,0.4-3.6,1-5.4,0.3c-3.5,0.6-5.8-2.3-9.1-2.6
						c-2.6-1.5-5.3-3.2-7.9-4.7c-0.1,0-0.1-0.1-0.2-0.1c0-0.1,0-0.1,0-0.2c0.6-0.2,0.5-0.8,0.7-1.3c1-0.6,1.5-1.8,2.2-2.6
						c0.4-0.2,0.8-0.3,1.1-0.8c0.2-0.2,0.4,0,0.6-0.3c0-0.1-0.2-0.3,0-0.4c0.4,0.3,0.6-0.3,0.8-0.4c-0.1-0.5,0.7-0.7,0.3-1.1
						c0.4-0.5,1.6-0.4,1.2-1.3c0.7,0,0-0.8,0.7-0.8c0.4-0.4,0.1-0.8,0.7-1.2c0-0.6,0.2-1.3,0.2-1.9c0.3-0.1,0.4,0.4,0.6-0.1
						c0.4-0.7-0.1-1.5-0.1-2.3c0-0.1,0.2-0.1,0.1-0.3c-0.4-0.1-0.1-0.5,0-0.7c0.1-0.2,0.2-0.5,0.4-0.3c-0.1,0.3,0.1,0.5,0.3,0.7
						c0.1-0.1,0.2-0.2,0.3-0.1l-0.1-0.3c0.3,0,0.4-0.5,0.7-0.8c0.1-0.4-0.3-0.8-0.5-1.2c0.2,0,0.5,0,0.7,0l0,0.3
						c0.4,0.4,1.1-0.1,1.8,0.4l0.2,0.2c0-0.1,0.1-0.1,0.1-0.1c0.2,0.1,0.4,0.2,0.6,0.3c0.2,0.2,0.5,0.3,0.5,0.5
						c0.4,0.3,1.3,0.5,1.8,0.3c0.1,0.2,0,0.3-0.1,0.5c0.2,0.2,0.5,0,0.6-0.1c0.2,0,0.1-0.2,0.2-0.1c0.1,0.1,0,0.1,0,0.1
						c0.4,0.4,1.1,0.3,1,0.8c0,0.1-0.3,0.6,0.3,0.6c0.3,0,0.7-0.3,1.1,0.2c0.1,0.2,0,0.3-0.1,0.5c0,0.1,0.1,0.2,0.2,0.2
						c0.1-0.1,0.2,0,0.2-0.1c0.1,0.1,0.1,0.3,0.4,0.3c0.3-0.3,0.4,0.2,0.7,0.1c0.4,1.2,1.9,1.3,2.3,2.5c0.1,0.4,0.8,0.8,1.1,1.2
						c0.9,0.1,1.8,0,2.5-0.3c0,0,0.1,0,0.1,0c5-1.2,4.1-7.3,6.4-11.1c-1.2-0.3-0.3-1.5-0.9-2c-0.1-0.1-0.2-0.2-0.3-0.3
						c0.1-0.1,0.1-0.2,0.2-0.3c0.1-0.2,0.2-0.5,0.2-0.7c-0.2-0.1-0.3-0.3-0.4-0.6c-0.6,0.4-0.6-0.6-1-0.9c-0.4,0.2-0.5-0.4-0.6-0.5
						c-0.6,0.5-0.4-0.5-0.9-0.5c-0.5-0.7-1.3-1-2.2-1c0-0.3-0.6-0.1-0.5-0.4c0-0.2-0.4-0.5-0.5-0.3c-0.4-0.4-1-0.7-1.5-0.7
						c-0.6-0.5-1.1,0.3-1.7-0.1c-0.4-0.4-0.8,0-1.2-0.4c-0.5,0.3-1.2-0.6-1.6,0c-0.4-0.4-0.8,0-1.2,0.1c-0.9-0.6-2.2-0.3-3.2-0.8
						c-0.2,0-0.3,0.4-0.5,0.2c0.1-0.1,0.4-0.2,0.4-0.4c0.2,0.1,0.4-0.2,0.5-0.4c-0.1-0.4,0.4-0.8,0.4-1.3c0.1,0,0.5-0.5,0.2-0.5
						l-0.3,0.2c0-0.6,0-1,0.4-1.6c0.1,0,0.1,0.2,0.1,0.3c-0.1,0.1-0.2,0.2-0.1,0.4c0.1,0,0.2-0.2,0.2-0.2c0-0.4,0.7-0.8,0.3-1.2
						l-0.3,0.1c0-0.1,0-0.4,0.3-0.6c0.5-0.1,0.4-0.8,0.8-1.1c0.3-0.6-1-0.4-0.2-0.8c-0.2-0.2,0.3-0.5-0.2-0.6
						c0.2-0.4,0.3-0.8,0.5-1.2c0.1,0.1,0.2,0.1,0.4-0.1l0-0.7c-0.1,0.1-0.2,0.1-0.3,0.1c0.1-0.4,0.3-0.7,0.4-1.1
						c0.1-0.4,0.2-0.9,0.3-1.3c0.2,0.1,0.4,0.1,0.7,0c0.4-0.7-0.6-0.2-0.4-0.9c0,0,0,0,0,0c0.6-2.7,1.1-5.5-0.5-8.1
						c-0.9-0.4-1.1-1.2-1.3-1.9c0.3-0.5,0.1-0.7,0-1c1.3-2,4.3-1.8,6.2-2.9c0.5,0,0.9,0.1,1.4,0.1c0,0,0,0,0,0.1c0,0,0,0,0,0
						c0,0,0.1,0,0.1-0.1c0.1,0,0.2,0,0.3,0c0,0,0,0,0,0c-0.1,0.1-0.2,0.2-0.2,0.3c0.1,0.1,0.2,0.2,0.3,0.4c1.4-0.1,3-0.1,4.3,0.1
						c0.4,0.3,0.9,0.5,1.2,0.6c0.3,0.5,0.7,0.2,0.8,0.8c0.7-0.5,0.8,0.3,1.2,0.6c0.5,0.4,0.5,1.3,1.1,1.5c0.2,0.5,0.4,1.1,0.8,1
						c-0.2,0.8,0.6,1.1,0.7,1.7c0.4,1.2,1.4,1.7,1.4,3.3c-0.2,0.8,0.9,1.4,0.6,2.4c0.2,0.1,0.3,0.4,0.2,0.6
						c-0.3,0.3,0.1,0.9,0.1,1.3c0.4,0.3-0.3,0.8,0.3,1.1c0,0,0,0,0,0c-0.2,0.5-0.1,0.9,0,1.4c0,1.1,0.1,2.2,0.2,3.3
						c-0.3-0.1-0.2,0.5-0.4,0.7C185.8,93.7,186.3,94.1,186,94.6z M188.8,139.3c0.2,0.1,0.3,0.1,0.4,0
						C189,139.3,188.9,139.3,188.8,139.3C188.8,139.3,188.8,139.3,188.8,139.3z M179.6,103.3c0,0.2,0,0.4,0,0.6
						C179.7,103.7,179.7,103.5,179.6,103.3C179.6,103.3,179.6,103.3,179.6,103.3z M136.2,139.1C136.3,139.1,136.3,139.1,136.2,139.1
						c-0.2-0.1-0.4-0.2-0.6-0.3C135.9,138.9,136.1,139,136.2,139.1z M107.9,87.7c-0.1-0.1-0.3-0.1-0.4-0.2c0,0,0,0,0,0
						C107.7,87.6,107.8,87.6,107.9,87.7C107.9,87.7,107.9,87.7,107.9,87.7z"/>
				</g>
			</g>
		</g>
	</g>
	<g>
		<g>
			<g>
				<g>
					<path class="st0" d="M401.9,129.5c1.3,0.4,0.4-1.2,1.7-0.8c2.1-2.8,5-3.6,7.5-5.7c0-0.8,0.4-2,1.3-1.6V121
						c2.5-2.8,5.9-4.8,8-7.3c0-1.2,2.1-1.6,2.1-2.8c1.3-2,2.5-3.2,3.8-4.8c0-1.6,0.8-3.2,1.3-4.4c2.5-4.5,4.6-9.7,1.3-14.6
						c-2.1-1.2-4.2-4.8-7.5-4c-1.3-0.4-2.9,0.8-3.8-0.8c-2.1-1.2-2.5-2.8-2.5-4.9c-0.4-2.8,1.3-5.7,0-8.1c2.1-2.4-1.3-6.1,0.8-8.5
						c-0.8-3.6,0.8-6.9,1.3-10.1c-1.7-0.8,0.8-3.6-2.1-3.2c-2.1-2.4-5.4-0.4-7.9-1.6c-2.9-1.6-6.3,0.4-8.8,1.6
						c-2.1-0.4-2.1,2.4-4.6,1.6c-2.5,1.2-6.3,1.2-9.2,2.8c-2.5-1.6-3.3,1.6-5.9,0.8c-0.8,1.6-3.8,0-3.8,1.6l2.1,2.4
						c0,2,4.6,1.6,3.8,4.9c2.5,2.4,5.9,4.9,10,4.5c1.3-1.2,4.2-0.8,5.4-1.6c2.9-0.8,6.7-2.4,9.2-4.4c1.3-0.4,2.9-1.6,3.8,0.4
						l0.8,8.1l0.4,0.4c0,0.8-0.4,1.2-0.8,1.2c0,0.8,0,1.6,0.8,1.6c-0.8,2-1.3,4-0.8,5.7c0.8,6.5-6.3,5.2-8.8,8.5
						c-3.3-1.2-2.5,3.2-5.9,2.4c-4.2,3.2-8.8,6.1-12.1,10.1c-0.4,2-3.3,1.2-3.3,3.2c-2.9,0.8-2.9,4-5,5.2c-1.7,3.2-4.6,7.3-5,11.3
						c0.8,2,0.8,5.7,3.8,6.1c1.3,1.6,3.8,1.6,5.4,2.8c0.4,2-2.5,2.8-3.3,4.5c-3.8,0.4-5.9,4-8.4,6.5l0.4,10.5c0,2-0.4,3.6,0,5.7
						c2.1,1.6,4.6,3.6,7.5,3.6c1.7-1.6,4.2,0,6.3-1.2c8.4-1.2,17.2-1.2,25.9-1.2c2.9-1.6,6.3,1.6,9.2-0.8c2.5,1.2,4.6-1.6,6.3-2.8
						c-0.8-2.8,2.5-0.8,3.3-2.8c2.1-1.2,1.7-4.5,2.5-6.1c0-4.5,0.4-8.1,1.3-12.1c-0.8-0.8,1.3-1.6,0-2.4c-0.8,0-1.3,0.8-2.1,0.8
						c0,0.8-1.3,2.4-2.1,2c-1.3,1.6-2.5,2.8-2.9,4.9c-2.9,1.6-5.9,1.6-9.2,1.2c-3.8,0-8.4,1.6-12.6,0.4c-2.1-2.8-5.4,0.4-8-1.6
						c0-0.4-0.8-0.8,0-1.2C396,133.6,399.4,131.5,401.9,129.5z M385.2,113.8c-1.7-0.4-0.8-2.8-0.4-4c2.5-8.9,11.7-13.3,17.6-18.6
						c1.7-1.2,6.3-1.2,4.6,2c-0.8,2-0.4,4.5-1.3,6.9c-1.7,5.3-7.5,8.1-10.5,12.5C392.3,115,388.9,114.2,385.2,113.8z"/>
					<path class="st0" d="M477.2,111.7c-3.8-3.6-10.5-1.6-15.1-1.6c-2.5-0.4-5.4-1.2-8.4-1.2c-1.3,0-2.5,1.2-3.3,0
						c-2.9-0.4-4.2,1.2-6.3,1.6c-1.7,2-3.3,3.2-5,4.8c-0.4,2-3.8,2.4-3.8,4.5c2.1,0.4,3.3-0.4,5.4-1.2c5.4-1.6,10.5,0,15.5,1.2
						c1.3,0.8,2.5,1.6,2.1,2.8c-1.7,1.2-3.3,3.6-5,4c2.1,0.4,2.9,2.4,5.4,2.8c2.5,2.4,6.3,2,9.6,2c1.3-0.8,3.4-2.4,2.9-4
						c3.3-1.6,2.5-5.7,5-6.9c1.3-2.4,2.9-2.8,3.4-5.3C479.7,113.3,476.8,113.8,477.2,111.7z"/>
				</g>
			</g>
		</g>
	</g>
	<g>
		<g>
			<g>
				<g>
					<path class="st0" d="M267.6,55.5c0.3-1.3-0.5-2.5-1.3-3.8c0,0,0,0-0.1-0.1c0.1,0,0.2,0.1,0.3,0.1c0-0.2,0-0.3-0.2-0.5
						c-0.1-0.6,0.2-1.2-0.5-1.6c-1.6,0.4-2.5-1.4-4-0.3c-0.4-0.1-0.2-0.3-0.4-0.5l-0.2-0.1c-0.5-0.6-1.3,0.1-1.9,0.1
						c-0.7,0.1-0.6,0.6-1.3,0.8c-0.2,0,0.1-0.3-0.1-0.3c-0.2,0.1-0.2,0.4-0.4,0.3c-0.6-0.3-1.3-0.2-2-0.1c-0.1,0.2-0.4,0.2-0.6,0.3
						c-0.2,0.4-0.6,0-0.6,0.5c-0.8,0.2-0.8,0.9-1.7,0.9c-0.4,0.6-1.2,0.7-1.7,1.1c-0.1,0.7-1,0.3-1.4,0.9c-0.6,0.2-0.7,1-1.4,0.9
						c0.1,0.6-0.8,0.3-0.9,0.7c-0.9,0.2-0.8,1-1.6,1.2c-0.7-0.1-0.9,0.7-1.6,1.1c-0.1,0.2,0.2,0.6-0.3,0.7L244,58c0,0,0,0,0,0
						c-1.6,1-3.1,2-4.7,2.9c-0.8,0.5-1.3,1.3-1.8,1.5c4.1,1,8.5-1,12.3-1.8c0.3,0.3,0.8,0.8,0.5,1.3c-0.8,1.5,0.3,3.5-0.5,5
						c0,2.5-0.3,5.8-0.5,8.6c-0.3,3,0.8,6.5-2.1,9.1c-1.8,1-3.8,0-5.1-0.8c-2.3,0.1-3.5-0.5-4.2-1.5c0.1-0.4,0.2-0.8,0.5-1.2
						c0.3-0.7-0.6-0.9-0.5-1.5c0.6-1.2-1-2-0.8-3.1c0,0-0.1-0.1-0.1-0.1c-0.1-2.1-0.6-4-2.8-4.9c-0.8-1.5-2.6-0.8-3.8-0.8
						c-0.1,0-0.1,0.1-0.2,0.1c-0.3-0.2-0.6-0.3-0.9-0.4c0.3,0.5-0.4,0.8-0.3,1.2c-0.2,0.2-0.5,0.4-0.7,0.6c-0.2-0.1-0.2,0.1-0.3,0.3
						c-0.2,0.2-0.3,0.3-0.5,0.5c0,0-0.1,0-0.1,0c0,0,0.1,0.1,0.1,0.1c-1.1,1.1-2.1,2.2-3.5,2.9c-0.8,2.1,1.2,2.8,2.4,3.8
						c0.1,0.2,0.1,0.4,0.2,0.6c0.3,0,0.4,0.4,0.6,0.6c0.1,0.8,0.6,1.5,0.8,2.3c0,0,0,0.1-0.1,0.1c0.1,0.2,0.1,0.5,0.1,0.7
						c0,0.2-0.1,0.5-0.3,0.7c0.4,0.6,0.3,1.3,0.2,2c-0.1,0.6-0.2,1.1,0.1,1.7c0.1,0.5-0.3,1.3-0.1,1.8c-0.1,0.8-0.1,1.5-0.1,2.3
						c-0.1,0.2-0.2,0.4,0,0.7c0.1,1.4-0.3,2.7-0.2,3.9c-0.3,0.6,0.3,1.4-0.2,2c0.5,0.5-0.3,0.9,0,1.4c0.1,0.3,0.1,0.8-0.1,0.9
						c0.3,0.6-0.3,1.3,0,2c-0.6,0.5,0.1,1.3-0.7,1.6l0.1,0.1c0.1,0.6,0.1,1.4,0,2.1c0,0.8-0.2,1.5-0.1,2.4c-0.6,0.8,0.1,1.7-0.1,2.5
						c0.3,0.3-0.3,0.7,0,0.9c-0.6,0.3-0.2,1-0.3,1.5c0.1,0.1,0.3,0.3,0.3,0.6c-1,0.2,0,1-0.5,1.5c0,0.7,0.7,1.8,0,2.4l0.6,0.6
						c0,0.5-0.2,0.6-0.7,0.8c-0.2,0.2-0.1,0.8,0,1.2c0.9,0.5-1,1,0.2,1.5c-0.2,0.7,0.6,1.4-0.1,1.8c-0.2-0.2,0-0.5-0.1-0.7
						c-0.3,0.5,0,1.2,0.1,1.7c1.1,0.5-0.8,0.8-0.2,1.6c0.1,0.6,0,0.8,0.1,1.3c-0.1,0.5,0.1,0.9,0.2,1.3c-0.7,0.6,0.8,1.8-0.3,2.4
						c0.3,0.5-0.2,1.2,0.3,1.5c-0.6,0.6,0.5,1.2,0,1.7l0.8,0.1c0.2,0.3-0.1,0.7-0.3,1c0-0.1,0-0.1,0-0.2c-0.1,0-0.5,0-0.5,0.1
						c0.6,0.3-0.2,0.8,0.2,1.3c0.2,0.2,0.1-0.2,0.3-0.2l0.1,0.3c-0.3,0.2-0.1,0.7-0.6,0.8c0.2,0.3,0,1,0.3,1.3l-0.1,0.1
						c-0.2,0.3,0,0.7,0.2,0.7l0.4-0.6c-0.3,1.1-0.8,2.1-1.2,3c-0.3,1,0,2-0.8,2.5c0.5,2.3,0.8,4.8,3.6,5.5c3.3,0,4.4-4,6.2-6.3
						c4.4-4,3.8-2.2,4.1-8c0.4-0.7,0.6-1.4,0.7-2.2c0.3-0.3,0.5-0.7,0.2-1.2c0-0.2,0-0.4,0-0.6c0.1-0.6,0.2-1.2,0.4-1.7
						c0.1,0,0.2-0.1,0.4-0.1c0.3-0.9,0.2-1.9,0.2-2.8c0.1-0.3,0.1-0.7,0.2-1c0.1-0.2,0.2-0.5,0.3-0.7c0.9-1.5,1.3-3.1,1.4-4.8
						c0.2-0.6,0.3-1.2,0.4-1.8c0.2-0.2,0.4-0.4,0.5-0.8c-0.1-0.1-0.2-0.2-0.3-0.2c0-0.4,0.1-0.7,0.1-1.1c0.1-0.3,0.4-0.7,0.6-0.9
						c-0.1-0.8,0.1-1-0.3-1.8c-0.1-0.8,0.8-0.6,0.9-1.3c0.2-0.8-0.4-1.6,0.2-2.6c-0.5-0.4,0.5-0.9,0-1.5c0.4-0.7,0.1-1.7,0.8-2.4
						c-0.2-0.7,0.7-1.7-0.2-2.2l-0.5,2.1c0.3,0.8-0.9,1-0.7,2c-1.9,2.2-1.9,5.2-3,7.6c-0.6,0-0.5,0.6-0.5,0.9
						c-0.9-0.2-0.5,1.1-1,1.4c-0.2,0.6,0,1.5-1,1.4c-0.3,0.2-0.4,0.5-0.4,0.8c0,0,0-0.1-0.1-0.1c0.3-0.5-0.3-1.2,0.3-1.6
						c-0.7-0.6-0.1-1.5,0-2.1c0.1-1,0.3-2.1-0.5-2.8c0.1-0.3,0.2,0.2,0.4-0.1c-0.1-0.5-0.4-0.9-0.3-1.5l0.2,0.2
						c0.1-0.1,0.1-0.4,0.1-0.6c-0.1-0.2-0.2,0-0.4,0l-0.2-1.3c0.1-0.4,0.5-0.3,0.7-0.3c0.1-0.5-0.7-0.2-0.8-0.7
						c-0.2-0.4-0.1-0.8,0-1c-0.1-0.3-0.2-0.5-0.1-0.8c-0.5-0.5,0.5-0.2,0.2-0.8c0-0.2-0.3,0-0.5-0.1c-0.2-0.9,0.2-1.6,0.3-2.4
						l-0.3-0.1c0-0.2,0.2-0.5-0.2-0.6l0,0c0-0.1,0-0.3,0.1-0.4c0,0,0.1-0.1,0.1-0.1c0-0.2,0-0.4,0-0.6c0.2-1.3,0.6-2.6,1-3.8
						c0,0,0,0-0.1-0.1c-0.3-0.8-0.2-1.6,0-2.5c-0.5-0.6,0.2-1.4-0.2-2.1c0.1-0.2,0.3-0.3,0-0.6c0.2-0.8-0.2-1.5-0.2-2.2
						c0.3-0.9-0.3-1.7,0-2.5c-0.8-0.6,0.2-1.2-0.2-1.5c-0.1-0.2-0.2-0.6,0-0.7c-0.1-0.3,0-0.8-0.3-1.2c0-0.1,0-0.1,0-0.1
						c0-0.1,0.1-0.1,0.2-0.1c0.1-0.2,0-0.5-0.2-0.6c-0.1-0.1-0.1-0.2-0.1-0.3c0,0,0,0,0,0c0,0,0,0,0,0c-0.1-0.4,0-0.7,0.1-1
						c0.1-0.1,0.2-0.3,0.4-0.4c0.8-0.5,1.3,0.3,2.3,0.3c1.8,2,3.8,3.8,6.4,5c0.5,0.8,0.8,1.8,1.8,1.8c2.3,1.5,3.6,4,5.1,6.3
						c0.5,0.2,1,0.4,1.6,0.5c1.2,1.3,2.4,2.3,3.6,0.7c0-0.8-0.1-1.6,0.2-2.3c0.2-0.3,0.5-0.2,0.8-0.7c-0.3-1.4,0.1-3.5-0.1-4.9
						c-0.5,0.2-0.7,1-0.9,2.1c-0.2-1.4,0.4-2.7,0.9-3.4c-0.3-0.8-0.9-1.2-0.8-2.3c-0.2-1.4,0.6-2.1,1-2.9c-0.5,0.5-1-0.6-1-1.5
						c0.2-1.6,0-3.3,0.6-4.3c-0.1-0.5,0.1-1.1-0.4-0.8c0.2-0.3,0.3-0.2,0.5-0.2l-0.2-1.4c0.2-0.5,0.5,0.3,0.6-0.5
						c-0.2-0.6,0-1.6-0.2-1.9c-1.5,0.1-0.2-3.3-1.4-3.7c0.4-1,0.4-2.1,0.5-3.2l-0.4-0.6l-0.3,0.5c-0.1-0.3,0.2-0.5,0.3-1.1
						c-0.2,0-0.5-0.1-0.6-0.4c0-0.3,0-0.6,0.1-0.9c1.3-1,1.3-2.8,2.3-4c1.5-0.5,1.8-2.5,3.3-2.8C264.3,56.5,266.3,56.5,267.6,55.5z
						 M244.2,111.2l0.1,0.1l-0.1,0.1l-0.1-0.1L244.2,111.2z M237.7,123.9c0.1-0.4,0.5-0.7,0.7-1.1c0,0.2,0.1,0.4,0.1,0.6
						c-0.4,0.2-0.7,0.6-1,0.9C237.6,124.2,237.7,124.1,237.7,123.9z M334.5,127.5C334.3,127.5,334.4,127.6,334.5,127.5L334.5,127.5z
						 M350.8,74c0.2-0.7-1.1-0.9-1.9-1.3c0.2-0.5-0.3-0.8-0.7-1.1c-0.2,0.1-0.3,0.1-0.4,0.1c-0.3-0.3-0.6-0.7-0.9-1.2
						c-0.6,0-1.2,0-1.7-0.1c-0.6-0.3-1.4-0.3-1.6-0.9c0,0.1-0.4,0.2-0.6,0.4l0-0.6c-0.4,0.4-1,0-1.5,0.5c-1-0.4-1.6-0.5-2.7-0.7
						c-0.7,0.6-1.7,0.3-2.3,0.9l-0.1-0.1c0-0.1,0-0.3,0.1-0.4l0.3-0.1c0.7-0.2-0.3-0.3-0.3-0.6c0,0-0.1,0.1-0.1,0.1
						c-0.2-0.9-0.1-1.8,0.1-2.8c-0.2-0.4-0.1-0.9-0.1-1.4c0,0,0,0,0,0c0,0,0,0,0,0c0-0.3,0-0.6-0.1-0.8c0.1-0.4,0.3-0.8,0.2-1.4
						c0-0.2,0-0.4,0.1-0.5c-0.2-0.4-0.4-0.8-0.5-1.2c0-0.2,0-0.3,0-0.5c0.3-1.1-0.3-2.1,0-3.1c0,0-0.1-0.1-0.1-0.1
						c0.1-0.6,0.1-1.2,0-1.8c0-0.1-0.1-0.3-0.1-0.4c0-0.1,0-0.2,0-0.3c0,0,0-0.1,0-0.1c-0.1-0.2-0.1-0.5-0.1-0.8c0,0,0,0,0,0
						c0,0,0,0,0,0c0-0.2-0.1-0.3-0.1-0.5c0-0.1,0.1-0.2,0.1-0.3h0c0,0,0-0.1,0-0.1c0.2-0.5,0.6-1.1,0-1.5c0.2-1.2,0.2-2.5,0.3-3.8
						c0.1-0.5,0.2-1.1,0.4-1.6c0.3-0.7-0.3-1-0.4-1.5c0-0.1,0-0.3,0-0.5c0.2-0.7-0.1-1.3-0.3-1.9c0.1-0.9,0.4-1.8-0.9-2.4
						c0-0.1,0-0.1,0-0.2c0,0,0,0,0-0.1c0-0.1,0-0.1-0.1-0.1c0-0.3-0.1-0.5-0.3-0.6c0-0.2,0.1-0.4,0.1-0.6c-0.3-0.3,0.1-0.7-0.4-1
						c0.2-0.5,0.6-0.8,1-1.2c0.1-0.3,0.2-0.5,0.2-0.8c-0.3-0.3,0-0.8-0.4-1.1l-0.7-0.6l0.1-0.2c-0.4-0.4-1.2-0.4-1.3-1.2
						c-0.3-0.7-0.8-0.2-1.3-0.4c-0.5,0.1-0.8,0.5-1.4,0.4c-0.5,0.3-0.2,1.7-1.1,1c-0.1,0.2-0.3,0.4-0.4,0.5
						c-0.2-0.2-0.5-0.3-0.7-0.4c0.2,0.5-0.2,0.8-0.2,1.2c-0.3,0.3-0.5,0.6-0.6,1c-0.1-0.1-0.2,0-0.2,0.2c-0.1,0.1-0.1,0.2-0.2,0.3
						c0.1,0.2,0,0.3-0.1,0.5c-0.1,0-0.1,0-0.2-0.1c0,0.1,0.1,0.1,0.2,0.2c-0.4,0.4-0.5,0.8-1.1,1.1c0.1,0.3-0.5,0.3-0.2,0.7
						c-0.1,1.3-1,2.4-1.1,3.7c0,0.7-0.8,0.4-0.6,1.1c-0.3,0.3-0.2,1-0.6,0.9c-0.1,0.2-0.1,0.7-0.5,0.6c0,0.1-0.1,0.2-0.1,0.3l0,0.3
						c0,0.1-0.1,0.1-0.1,0c0,0.1,0,0.2-0.1,0.3c0,0.1,0,0.1-0.1,0.2l-0.3,1.5c-0.1,0.6-0.3,1.3-0.1,1.9c0.2,0.8,0.8,1.3,1.3,1.9
						c0.5,0.7,0.7,1.7,0.7,2.6c0.1,0,0.2,0.1,0.2,0.3c0.2,0.6,0.9,0.6,0.9,1.3c0.3,0.2,0.5,0.5,0.8,0.7c-0.2,1.9-0.3,3.9,0.2,5.6
						c-0.9,2.4,0.6,4.8-0.3,7.6c-0.6,0.7-0.8,1.5-0.9,2.2c-0.4,0-0.8,0.1-1.2,0.2c-1,0.5-2.5,0.3-3.1,1.2l-0.1-0.1
						c-1.5,0.1-2.8,0.5-4.1,0.9c-0.4,0.1-0.2,0.6-0.5,1c-0.3,0.1-0.3-0.3-0.6-0.3c0-1-0.9,0.2-1.3-0.4c-0.7-0.1-0.9,0.8-1.9,0.7
						c0.1,0.1,0,0.4,0.1,0.4c-0.3,0.2-0.7-0.1-1.2-0.3c-0.5,0.6-1.5,0.5-2,0.7l-0.1-0.1c-0.9,0.6-2.2,0.4-2.8,1.2
						c-0.1,0-0.3,0-0.4,0c-0.1-0.2-0.1-0.5-0.3-0.7c0.7-0.4-0.3-1.3,0.4-1.9c-0.3-0.6,0.1-2.5-1-2.9c-0.5-0.5-0.7-1.4-0.4-1.9
						c-1.4-1-2-3.1-4-3c-0.9-2.5-3.4-1.8-4.4-3.8l-0.7,0.6l-0.2-0.2c-0.5,0.4-0.9,0.4-1.3,0.2c0-0.2,0-0.4,0.1-0.6
						c0.3,0.3,0.7,0.2,1,0.5c0.4-0.3,0.9-0.5,1.1-1c-0.4,0.3-0.4-0.1-0.7-0.4l-0.2,0.3c-0.3-0.5-0.6,0.4-0.9,0.3l0-0.3
						c-0.4,0.2-0.6,0.6-0.8,0.8h0c-0.1-0.1-0.1-0.1-0.2-0.2c0.4-0.6,0.1-1.4,1-1.6c0.5-0.1,1.4-0.5,1.7,0.2c0.3-0.8,1.6,0,1.4-1.2
						c0.3,0.1,0.4,0,0.5-0.2c0.1-0.3,0.2-0.6,0.1-0.9c0.5-0.2-0.1-0.7,0-1.3c0.2-0.2,0.4-0.5,0.3-0.8c0.1-0.2,0.2-0.4,0.3-0.6
						c0.2,0.1,0.4,0.4,0.6,0.3c0.1-0.6,0.5-0.1,0.7-0.5l-0.2-0.4c0.1-0.2,0.4,0,0.5,0.1c0.6-0.4,0.4-0.9,0.6-1.5
						c0.4,0,0.6,0.5,1,0.5c0-0.3,0-0.4,0.3-0.6c0.1-0.4-0.4-0.4-0.3-0.8l0.4,0.1c0.4,0,0.3-0.6,0.3-0.9c0.3-0.5,0.5,0.2,0.8,0.2
						l0.4-0.3c-0.2-1.1,0.7-1.2,0.7-2.1l-0.5-0.2l0.2-0.3c0.1-0.3,0-0.4-0.3-0.5l0.5-0.2c0-0.4-0.7-0.4-0.6-0.8
						c0.3-0.2,0.1,0.1,0.4,0.1c0.4-0.6-0.1-1-0.7-1.2c-0.1-0.8-0.4-1.5-0.9-2.2c-2.4-0.8-4.8-3.9-7.2-3.8c-0.4-0.3-0.8-0.5-1.4-0.4
						c-0.7-0.5-1.4,0.2-2.2,0.3c-0.5,0.3-0.5-0.7-1.1-0.6c-0.1,0.3-0.1,0.9-0.3,0.9c-0.6,0.2,0,0.4-0.2,0.9
						c-0.4-0.1-0.8-0.6-1.1-0.7c-0.8,0.1-1.5,0.3-2,1c-0.2,0.6-1.3,1.5-0.2,1.9c0.5,0.7-0.3,1.2-0.2,1.8c-0.1,0.3-0.6,0.6-0.5,1.1
						l0.4-0.2c0.7,0.3,0.8,1.2,0.7,1.8c0.5,0.1,0.3,0.8,0.9,0.9c0.1,0.6,0,1.2-0.1,1.6c-0.7,0.5-1.3-0.3-2-0.3l0.1-0.6
						c-0.3,0-0.5,0.1-0.7,0.4c0,0.4,0.6,0.9,1,1.2c0.3-0.2,0.6-0.2,1-0.2c-0.2,0.1-0.4,0.2-0.5,0.5c-0.6,0.3-0.6,1.5-1.4,1.4
						c0.1,0.2,0,0.4-0.1,0.5c0,0,0,0,0-0.1l-0.1,0.1c-0.3,0.1-0.6,0.2-0.7,0.5c-0.4,0.2-0.6,0.4-0.8,0.8c-0.2-0.2-0.4,0.2-0.4,0.3
						l0.2,0.1c-0.1,0.3-0.3,0.5-0.6,0.6c-0.6-0.1-0.8,0.5-1.2,1.1c0-0.1-0.1-0.1-0.1-0.1c0,0.1,0.1,0.1,0.1,0.2
						c-0.1,0.2-0.2,0.3-0.4,0.4c-0.1,0.3,0.3,0.9-0.2,1l0.2,0.1c0,0,0,0.1,0,0.1c-0.3,0.5-0.6,1.1-1,1.6c-0.2,0.1-0.3,0.3-0.4,0.5
						c0,0-0.2,0.2-0.2,0.1c-0.1,0.6-0.8,0.4-1,0.6c-0.2,0.4,0.4,0.5,0,0.8c-0.6,0-0.6,0.7-1.1,0.9c0.5,1-0.8,0.6-0.9,1.1
						c-0.2,0.1-0.2-0.2-0.3-0.3c-0.1,0.2,0.3,0.6,0.1,0.9c-0.2-0.1-0.4-0.2-0.6-0.3c-0.2,0.3-0.4,0.6-0.7,0.9
						c-0.8,0.8-1.4,2.2-2.5,2.8c0.1,0.1,0.1,0.2,0.2,0.3c-0.4,0.6-0.8,1.2-1.3,1.7c0.2,0,0.3,0,0.5,0c0,0,0,0,0,0
						c0,2.1-0.3,4.8,1.9,6.2c3.7-1.4,7.1-5.2,9.6-8.3c1.6-0.7,3.1-0.7,4.6,0c1.2,0.7,1.2,1.7,1.6,3.1c2.2,0.4,1.8,2.8,2.8,4.1
						c-0.4,1.6,0,3.8-0.5,5.6c-0.3,0-0.7,0-1,0l-0.1,0.3c-0.2,0-0.6,0-0.6,0.4c-0.1,0.3-0.4,0-0.7,0.1c-0.5-0.1-0.7,0.3-1.1,0.4
						c-0.2-0.1-0.4-0.1-0.6-0.1c-1.4,0.7-2.9,1.3-4.3,2c-0.8,0.4-1.6,0.7-2.5,1c-0.6-0.1-1.1-0.1-1.6,0.3c0,0.1-0.1,0.1-0.1,0.2
						c-0.4,0.1-0.8,0.1-1.1,0.1c-0.4,0.1-0.9,0-1.2,0.3c-0.3,0-0.6,0-0.7-0.3c-0.1,0.2-0.4,0.3-0.7,0.4c-0.1-0.3-0.5-0.3-0.3-0.5
						c-0.3,0.1-0.6,0.2-0.6,0.5c-0.4-0.3-0.9-0.1-1.4-0.2c-0.5,0.4-0.9,0-1.5,0.3c-0.1,0.1-0.3,0.1-0.3,0c-0.6,0.6-1.3,1.1-2.1,1.3
						c-0.7,0.1-1.5,0.1-2.1,0.4c-0.5,0.3-0.8,0.8-1.1,1.3l-0.7,1.2c0,0.1-0.1,0.2-0.1,0.2c0,0.1-0.1,0.2-0.1,0.2c0,0,0.1,0,0.1,0.1
						l-0.2,0.1c-0.1,0.1-0.1,0.2-0.2,0.3c0,0,0,0.1,0.1,0.1c-0.7,0.9-0.9,2.4-1.1,3.6c0.3,1.7,1.2,3.1,2.8,4.5
						c0.6,0.1,1.1,0.3,1.5,0.6c0.1,0.5,0.3,0.9,0.9,0.9c-0.5,1.8,1.7,1.7,1.5,3.4c0.4,0.4,0.8,0.6,1.3,0.8c0.4,0.7,0.9,1.3,1.5,1.8
						c0,0,0,0.1,0,0.1l0.2,0.1l-0.2,1c2.1,0,2.8,2.7,5.1,2.4c0.9,2,2.9,1.6,4.3,2.4c0.3-0.5,1-0.8,1.7-0.6c0.8,0.9,2.1-0.5,2.7-0.5
						c0.2-1,1.3-0.4,1.3-1.3c1.2,0,2.2-1,3-1.9c1.1-0.6,1.5-2.1,2.5-3.1l0.4,0.1c0.1-0.5,0-0.9,0.3-1.2l0.3,0.4
						c-0.1-0.5,0.1-1,0.2-1.4c0.6-0.8,1.1-1.6,1.5-2.5c0.6-0.6,0.6-1.8,1.5-2.1c-0.7-1.1,0.4-2.2,0.7-3.4c0.9-0.5,1.2-1.5,1.1-2.7
						c-0.6-0.8,1-1.1,0.5-1.9c0.2-0.2,0.5-0.3,0.8-0.2c-0.2-1,0.6-1.5,0.9-2.3c0.7,0,1.6,0.3,2.3-0.1c0.7-0.1,1.6-0.3,2.3-0.2
						c0.6,0,1.5-0.6,2.2-0.6v0.1c0.6,0.1,1.2-0.1,1.6-0.3c1,0.4,1.9-0.6,2.9,0c0.3-0.5,0.7,0,1.2-0.1c0.9-0.5,2.5-0.2,2.6-1.4
						c0.1,0.3,0.7,0.1,0.7,0.5c0.3,0,0.4-0.2,0.6-0.4l0.1,0.1c0.7-0.4,2.5,0.4,3.1-0.5l0.6,0.5c0.2-0.4,0.7-0.1,0.9-0.5
						c0.4,0.1,1.5-0.1,1.6,0.4l0.3-0.2c0.2-0.1,0.4-0.2,0.6-0.2c0,0.3,0,0.6,0,0.8c0.1,0.1,0.3,0.4,0.3,0.7c-0.9,0.3,0,1.3-0.4,1.8
						c0,0.8,0.6,2.2,0,2.9l0.5,0.7c0,0.6-0.2,0.7-0.6,1c-0.2,0.3-0.1,1,0,1.4c0.8,0.6-0.9,1.2,0.2,1.8c-0.2,0.8,0.5,1.7-0.1,2.2
						c-0.2-0.3,0-0.6-0.1-0.8c-0.3,0.6,0,1.4,0.1,2.1c0.2,0.1,0.3,0.2,0.3,0.4c0,0,0,0.1,0,0.1c-0.1,0.4-0.9,0.8-0.5,1.5
						c0.1,0.7,0,1,0.1,1.5c-0.1,0.3,0,0.6,0,0.8c-0.2,1.4-0.4,2.7-0.7,4c-1.9,3.3-1.4,6.9-0.1,10.2c-0.1,0.6-0.1,1.2-0.1,1.7
						c-1.2,0.2-2.3,0.5-3.5,0.7c0-0.2,0-0.3,0-0.5c0.1-0.7,0.3-1.4,0.2-2c-0.3-0.5-0.5-1-0.8-1.5c-0.1-0.1-0.1-0.1-0.2-0.2l-0.9-1
						c-0.1,0-0.1-0.1-0.1-0.2c-0.1-0.1-0.1-0.1-0.2-0.2c0,0-0.1,0.1-0.1,0l-0.1-0.2c-0.1-0.1-0.1-0.2-0.2-0.2
						c-0.3,0.3-0.5-0.1-0.6-0.2c-0.3,0.4-0.5-0.3-0.9-0.4c-0.1-0.7-0.6,0-0.9-0.5c-0.6-1-1.8-1.4-2.5-2.4c0.1-0.4-0.4-0.1-0.4-0.4
						c-0.6,0.1-0.9-0.1-1.4-0.3c-0.1-0.1-0.3-0.1-0.3-0.3c-0.2,0-0.3-0.3-0.5,0c-0.8-1-1.9-0.5-2.7-0.9c-0.4,1.1-0.8-0.2-1.3-0.2
						c-0.5,0.4-0.9,0.3-1.3,0.4c-0.3,0.4-0.9,0.3-0.9,1c0.3,0.7-0.4,1.1-0.5,1.6l0.2,0.1l-0.2,0.9c-0.1,0.5,0.5,0.7,0.1,1.3
						c0.6,0.4,1.3,0.4,1.9,0.8c-0.3,0.5,0.4,0.6,0.1,1.1c0.2,0.3,0.2,0.7,0.2,1.1c0,0,0,0,0,0.1c-0.1,0.4-0.1,0.8,0,1.1
						c0.1-0.1,0.1-0.2,0.2-0.2c-0.1,0.5,0.1,1.1,0,1.6c0.2,0.5-0.2,1,0.1,1.2c-0.3,0.9,0.6,1.7-0.1,2.6c0.3,0.1,0.1,0.5-0.1,0.7
						c-0.2,0.4,0.3,0.7,0.5,0.6l-0.1,0.2c-0.1,0-0.1,0-0.2,0c-0.1-0.1-0.2-0.1-0.2,0c0,0,0,0,0,0.1c-0.3,0.1-0.7,0.2-1,0.3
						c-4.6-1.3-9.3-1.8-14-1.5c-0.2,0.3-0.3,0.7-0.7,0.8l-0.7-0.7c-0.1,0-0.2,0-0.2,0c-0.1,0.4,0.3,0.6,0,1
						c-0.2,0.4-0.7,0.6-1.3,0.7c0.1,0.2,0.3,0.5,0,0.5c-0.8-0.2-1,0.9-1.8,0.7c-0.1,0.6-1,1.1-0.8,1.8c0,0-0.1,0.1-0.1,0.1
						c-0.4,0.2-0.5,0.5-0.6,0.9c-0.1,0.3-0.2,0.6-0.2,0.9c0,0.1-0.1,0.1-0.1,0.2c0,0.7-0.8,1.3-0.8,2c-0.5,0.3-0.2,1.2-1,1.4
						c0.4,1-0.3,1.9,0.2,2.9c-0.3,0.7-0.3,1.7,0.2,2.3c-0.1,0.5,0.5,0.3,0.9,0.5c0.7,0.2,0.3,0.7,0.8,1c0.2,0.1,0.4,0.3,0.6,0.4
						c0.5,1.4,2.1,1.8,3.3,2.3c0.2,0,0.4,0,0.6,0c0.3,0.3,0.5,0.6,1,0.3c0.8-0.5,1.1,0.8,1.7,0.8c0.4-0.5,0.9-0.3,1.1-0.8
						c0.2-0.2,0.4-0.4,0.6-0.5c0.5-0.1,0.9-0.2,1.3-0.5c1,0.8,2.1-0.6,3.1-0.6c1.2,1.1,2.6-0.8,3.6,0.8c0.3,0.4,0.2,0.9-0.2,1.3
						c-1.6,0.4-2.3,2.5-3.8,2.8c-1.9,2.3-4.2,4.4-6.2,6.3c-1.7,0.6-3,2.3-4.7,2.9c-0.5,0.4-0.5,1.1-1.2,1.3
						c-1.9-0.8-1.2,2.1-2.9,2.5c-1.9-0.4-2.6,1.7-4.2,1.9v1.7c-0.5,1.3-0.3,2.7-0.2,3.8c0,1.7,0.2,3.8,1.2,5.3
						c1.4,0.2,1.2,2.9,2.9,1.7c1,1.3,2.4,0.8,3.8,0.8c2.4-2.1,6.1-1.3,8.8-2.1c1-0.2,2.3,0,3.1-0.9c2.3,0.4,3.8-1.3,6.2-1.1
						c1.2-0.4,2.3,0.6,3.5-0.2c1.6,0,2.9-0.4,4.5-0.2c2.9-0.2,6.4-0.4,9.5-0.2c0.5-0.6,1.4-0.4,1.9,0c1.4-0.6,2.8,1,4,0
						c1.6,0.2,3.3-0.2,5,0c0.2-0.1,0.4-0.3,0.6-0.5c0.2,0.1,0.4,0.2,0.7,0.1c0.2-0.7,0.5,0.5,0.8,0.5c0.6-0.2,1.5-0.1,1.9,0.7
						c0.2,0.1,0.8,0.2,0.8-0.4l0.1,0.1c0.1,0.4,0.3,0.3,0.5,0.2c0.2-0.7,0.8,0.6,1-0.2c0.5-0.2,0.8-0.8,1.3-0.8
						c0.1-0.3,0.4-0.3,0.3-0.8c1-0.2,0-1.3,0.5-2.1c0.2-0.2,0.2,0.3,0.5,0.1c0.1-0.7,1.1-0.7,0.8-1.8c0.1,0.1,0.2,0.1,0.4,0
						c0.1-0.4-0.2-0.6-0.4-1c0.6-0.6-0.3-1.4,0.3-1.9c0.1-0.4-0.2-0.7-0.3-0.8l0.1,0c0.2-0.7-0.3-1.1-0.1-1.7
						c-0.3-0.8,0.4-1.3,0.4-2.1c-0.2-0.6-0.8-0.1-1-0.8c-0.1,0-0.3-0.1-0.4,0.2l-0.1-0.3c-0.3-0.1-0.4,0.2-0.6,0.3l-0.1-0.1
						c0,0-0.1-0.1,0-0.3h-0.1c-0.7,0.2-1-1.1-1.6-1.2c-0.8,0.5-0.6-1.2-1.1-1.5l-0.2,0.3c-0.5-0.8-0.9,0.7-1.2-0.6
						c-0.2-0.4-0.4,0-0.6,0.1c0-0.1-0.1-0.1-0.1-0.3c-0.1,0-0.4-0.3-0.4,0.2c0-0.9-0.5-0.1-0.6-0.8c-0.4-0.3-1-0.2-1.6-0.7
						c-0.3,0.2-0.5,0.5-0.6,0.8l-0.1-0.1c-0.4,0-0.6,0.2-0.8,0.5c-0.3-1.3-1.2-1.3-1.7-1.9c-0.7,1.4-1.6,0.9-2.6,0.5
						c-0.2,0.2-0.5,0.3-0.5,0.6c-0.2-0.1-0.5-0.1-0.7-0.4c-0.3,0.3-0.2,0.6-0.3,0.9l-0.4-0.3c-0.4,0.2-0.8,0.4-0.9,1.1
						c-0.5,0.2-0.7,0.9-1.1,0.7c-0.2-0.1-0.4,0-0.4,0.3c-0.2-0.6-0.6-0.2-0.9-0.5l-0.2,0.5c-0.1,0-0.1-0.3-0.2-0.1
						c0.2,0.7-0.5,0.6-0.6,1.1c-0.5-0.2-0.5-1.1-1-0.6c-0.3-0.3-0.6,0.2-0.8,0.4c-0.2-0.1-0.3-0.2-0.5-0.2c0.1-0.2,0.2-0.3,0.3-0.5
						c0-0.3,0.2-0.7-0.1-0.9c0.4-0.6-0.4-1.6,0.5-2.1c-1-0.9-0.1-2,0.2-2.8c0.1-1.4,0.5-2.8-0.5-3.8c0.2-0.4,0.3,0.3,0.6-0.1
						c-0.1-0.6-0.4-1.2-0.3-2.1l0.3,0.3c0.2-0.2,0.2-0.6,0.2-0.8c-0.2-0.2-0.2,0-0.5,0l-0.1-1.7c0.1-0.6,0.7-0.4,1-0.3
						c0-0.2,0-0.3-0.2-0.4c0.9-0.5,1.4-1.3,1.8-2.3c1.4-0.8,2.4-2.7,4-3.2c1-1.3,2.6-2.1,3.3-4c1.5-1.2,0.7-2.6,0.5-4.1
						c0,0,0,0.1,0.1,0.1c0.1-0.1,0.3-0.3,0.5-0.6c0.7,0.3,0.9,1.1,1.2,0.8c-0.2-0.5,0.5-0.3,0.7-0.6c0.3-0.2,0.7-0.2,0.7,0.1
						c0.1,0.3,0,0.4,0,0.4c0.1,0,0.1,0,0.3,0c0.3-0.3,0.6,0.1,0.7-0.3c0.1-0.2-0.1-0.5,0.4-0.6c0.3,0,0.2,0.4,0.2,0.5
						c0.5-0.2,1.2-0.7,1.6-0.8l1.1,1.2c0.3,0,0.5-0.5,0.2-0.8l-0.2-0.1c0.4-0.3,0-1.1,0.3-1.5c-0.6-0.1-0.3-0.6-0.8-0.8l0.1-0.4
						c0.3,0,0.2,0.5,0.4,0.2c0.5-0.6-0.5-1,0.2-1.5c0-0.1-0.4-0.1-0.6-0.1c0,0.1-0.1,0.1,0,0.2c-0.2-0.3-0.7-0.7-0.5-1l1-0.2
						c-0.6-0.6,0.6-1.4-0.2-2c0.7-0.5-0.1-1.2,0.3-1.7c-1.5-0.5,0.2-2.1-0.7-2.7c0.1-0.4,0.3-1,0.2-1.5c0.1-0.5-0.1-0.8,0-1.4
						c0.6-1-1.8-1.1-0.4-1.8c0.1-0.7,0.4-1.5,0-2c-0.1,0.3,0.2,0.5-0.1,0.8c-0.9-0.4,0-1.3-0.3-2.1c1.5-0.7-0.9-1.1,0.1-1.7
						c0.1-0.4,0.2-1.1-0.1-1.3c-0.6-0.2-0.9-0.3-0.9-0.8l0.6-0.7c-0.2-0.1-0.3-0.3-0.3-0.4c0,0,0,0,0,0c0,0,0,0,0,0
						c-0.2-0.7,0.2-1.6,0.1-2.3c0,0,0,0,0,0c0.1,0,0.2,0,0.3,0c0.1-0.4-0.2-0.5-0.4-0.6c0.1-0.5,0.3-1-0.5-1.1
						c0-0.3,0.2-0.5,0.4-0.7c-0.2-0.5,0.1-1.3-0.5-1.6c0,0.1,0,0.1-0.1,0.2c-0.4-0.6,0.7-0.3,0.3-1.2c-0.1-0.3-0.4-0.1-0.6-0.1
						c-0.2-1.3,0.4-2.4,0.5-3.5l-0.4-0.2c0.1-0.3,0.2-0.8-0.3-1c0,0,0,0,0,0c0-0.1,0-0.2-0.1-0.3c0-0.2,0.2-0.5,0.1-0.7
						c0.3-0.6-0.2-1.1-0.1-1.7c0.2-0.3,0.3-0.6,0.4-0.9c-0.1-0.9-0.3-1.7-0.4-2.6l0.4,0.3c0.3-0.1,0.6-0.2,0.7-0.6l0.4,0.3l0.1-0.1
						c0.6-0.1,1.3-0.2,1.5-0.8c0.3,0.3,0.1,0.5,0.4,0.8c0.3-0.2,0.9-0.5,1-0.8c0.5,1,1.5-1,1.9,0.4c0.4-0.2,0.2-0.9,0.7-1
						c0.7-0.2,0.6,0.6,1.2,0.7c0,0.3-0.3,0.2-0.5,0.4c0,0.1,0,0.3,0.1,0.3c0.2-0.2,0.6-0.4,0.7-0.7l0.7,0.8c0.4,0,0.9-0.5,1.2,0
						c0.2-0.2-0.3-0.3-0.1-0.4l0.1,0c0.4-0.1,0.5-0.6,0.5-0.9c0.3-0.2,0.9,0.3,1.2,0.4c0.1-0.2,0.4-0.4,0.7-0.4
						c-0.4-0.4,0.2-0.9,0.3-1.1l0.4,0.3l0.9-0.8l-0.6-0.5c0.3-0.1,0.6-0.2,0.9,0c0.4-0.1,0.6-0.4,0.6-0.7c0.2-0.5-0.6-0.3-0.4-0.6
						c-0.1-0.3,0.1-0.3,0.3-0.4c-0.1-0.4,0-1.1-0.7-1.2c0.4-0.4,0.6-1,1.1-1.3C351.7,75.2,351.3,74.5,350.8,74z M285.7,99
						c-0.3,0.7-0.3,1-0.9,1.4c-1.6-1.4-2.5,1-4-0.7c-4-3.1,2.5-4.5,3.4-7.2c1.2-1,3.1-1.7,4.9-1l0.6,0.7
						C288.5,94.5,288.2,97.6,285.7,99z M325.8,84.4C325.8,84.3,325.8,84.3,325.8,84.4C325.8,84.3,325.8,84.3,325.8,84.4
						C325.8,84.3,325.8,84.3,325.8,84.4z M309.7,159.9c-1,0-2.1,1.1-3.1,0.4c-1.2,0.9-3,0.2-4,1.5c-1.2-0.2-2.4,0.2-3.6,0
						c-0.9-0.6-1.2-1.5-0.9-2.7c1.2-0.6,2.9-1.1,3.5-3c1.9,0,2.1-3,4-2.8c1.6-0.6,2.1-2.3,3.5-3.2c0.7,0,1.2,0.4,1.4,1
						c0.5,1.3,0.5,3,0,4.4C310.4,157.1,310.9,158.6,309.7,159.9z"/>
				</g>
			</g>
		</g>
	</g>
</g>
</svg>
